<?xml version="1.0"?>
<svg viewBox="0 0 995 640" xmlns="http://www.w3.org/2000/svg" xmlns:svg="http://www.w3.org/2000/svg" version="1.1">
 <g class="layer">
  <title>Layer 1</title>
  <g id="svg_1">
   <rect fill="transparent" height="640" id="0" width="995" x="0" y="0"/>
  </g>
  <g id="svg_2">
   <path clip-path="none" d="m554,265.3l0.43,2l-0.22,2.73l-1.15,1.93l-1.95,2.3l-0.69,2.61l-1.84,0.97l-0.43,1.31l1.63,1.38l3.42,-1.11l4.18,0.24l-0.18,1.04l2.59,2.07l-0.35,4.46l-1.51,1.31l-2.54,0.51l-2.53,1.14l-0.76,1.42l1.06,2.8l-0.09,1.03l-1.55,2.76l0,2.77l-0.72,3.75l0.03,1.89l2.37,-0.11l0.58,2.29l3.54,1.48l0.73,3.43l0.63,0.75l1.55,7.55l0.44,0.95l0.7,3.9l-0.18,2.43l-0.68,0.43l-0.38,4.76l-1.01,1.37l-1.01,-1.24l-2.61,-1.22l-1.83,0.69l-2.32,-1.59l-2.68,0.09l-1.26,-0.23l-1.91,0.79l-2,1.35l-1.34,0.05l-0.99,1.86l-2.03,2.33l-1.37,0.15l-1.12,1.63l-0.91,-0.33l-1.03,0.94l-1.24,-0.31l-1.29,1.6l-0.18,1.1l1.48,0.59l-1.55,0.53l0.31,1.92l0.39,-0.21l-0.05,2.27l-1.98,0.74l-0.26,3.54l0.83,-0.49l0.42,1.6l-2.13,0.03l-2.06,1.3l-0.4,-0.77l-1.55,0.52l-0.26,0.81l-1.02,-0.02l-0.94,1.16l0.98,0.82l1.28,-0.14l1.37,0.58l0.42,2.04l-0.85,1.03l-1.27,0.45l-1.24,1.1l-2.59,0.32l-1.11,0.79l-0.69,1.4l0.61,1.67l1.07,0.31l-1.19,1.53l0.43,1.33l-0.53,1.33l-1.4,0.75l-1.35,1.31l-0.29,1.21l0.39,0.97l1.91,1.66l-0.08,0.83l-1.53,0.64l0.61,1.7l-0.55,0.54l-2.23,-0.05l-0.46,0.46l-2.6,4.37l2.04,2.22l1.17,-0.03l2.14,-1.67l1.84,0.14l0.11,0.92l-0.98,1.42l0.17,2.47l-0.79,0.97l-3.26,2.41l0.2,1.02l4.2,0.71l1.04,0.39l0.96,-1.31l2.18,0.08l0.14,1.49l-0.7,0.53l0.43,1.25l0.94,0.39l0.29,1.59l-1.39,0.7l-1.23,2.83l0.16,1.01l2.12,0.88l0.46,0.58l-0.11,1.32l-1.37,0.61l-0.49,1.63l-0.77,1.11l-2.1,0.43l-0.86,-0.72l-0.85,-1.99l-1.85,-2.28l-0.18,-3.92l-0.66,-0.52l0.57,-1.31l-1.34,0.18l-0.91,0.84l-1.68,-0.5l-0.18,-1.98l-0.86,-0.93l-1.81,1.43l-1.75,-1.33l-1.51,-0.53l-0.69,0.32l-2.97,2.63l-1.09,-0.7l-0.76,0.45l0.51,3.32l-0.5,1.08l-1.39,0.56l-0.75,-0.33l-1.05,0.57l-0.38,1.1l-1.52,-0.87l-0.61,0.21l-0.12,-1.02l-3.23,0.88l-0.58,-0.56l-1.29,1.32l-1.17,-0.52l1.41,-1.84l-0.24,-1.24l-1.18,0.51l0.06,-1.57l-1.43,-0.59l0.1,-1.47l0.99,-0.4l0.54,-1.52l1.16,-0.76l0.81,-1.35l-0.19,-1.19l1.3,0.45l1.03,-0.75l1.4,-2.56l-0.52,-0.93l0.6,-2.07l-0.02,-1.68l-1.21,-0.54l-0.99,0.33l-2.24,-0.62l-1.68,0.31l-0.48,-0.85l-1.43,-1.06l-0.04,-1.3l-1.46,-2.48l-0.96,0.31l-0.48,-2.57l0.41,-0.44l-0.6,-1.33l-0.9,-0.04l-2.33,2.02l-1.06,0.26l-2.92,-0.54l-1.02,-0.62l-2.7,-0.35l-0.08,-0.59l1.59,-0.86l0.04,-1.03l0.83,-0.27l-0.65,-1.68l-2.08,-0.23l-0.34,-0.73l0.53,-3.19l-0.94,-2.01l-1.95,-0.74l-1.69,-1.66l-3.12,1.36l-1.05,0.75l-1.8,0.05l-1.12,-0.51l-1.63,-1.54l0.34,-0.98l-0.6,-1.07l0.7,-0.4l-0.12,-1.61l-1.54,-1.35l-0.67,-1.93l-1.27,-1.4l-0.69,-1.95l-1.55,-1.17l-0.14,-1.04l0.8,-0.93l2.92,-0.58l0.81,-1.58l-0.88,-3.42l0.03,-2.36l0.68,-3.19l0.11,-1.69l-0.69,-1.25l-1.47,-0.98l-2.25,-2.32l0.53,-3.57l0.82,-1.77l0.88,-0.83l1.81,-0.33l0.12,-0.49l2.59,-1.13l1.29,-1.76l1.12,-1.01l1.02,-0.07l0.98,2.57l1.71,1.64l1.59,-0.71l2.04,-4.01l0.63,0.02l2.19,1.56l0.71,0.01l1.44,-1.19l0.34,-0.84l-0.03,-2.73l0.66,-1.41l0.69,-3.38l1.06,-2.23l1.05,-0.92l2.47,-1.07l1.98,-1.83l-0.04,-0.95l-1.32,-0.88l-1.3,-2.4l-0.19,-2.74l-1.12,-3.61l0.15,-3.77l1.17,-3.37l2.47,-1.62l0.61,-3.1l0.49,-0.46l2.37,-0.59l2.69,-2.36l2.43,-1.63l2.09,-2.11l3.11,-0.94l3.06,-2.94l1.26,-3.45l2.95,0.06l2.23,-1.44l1.42,0.61l1.1,-0.09l1.1,1.53l0.85,2.62l-0.03,2.53l1.76,1.35l-1.07,0.77l-0.51,2.07l0.74,0.54l1.45,-1.59l-0.01,-2.14l1.16,-0.61l1.85,-2.99l0.58,-1.61l-0.52,-1.87l0.19,-1.03l2.37,-1.45l1.92,0.37l1.55,1.66l0.81,2.48l1.39,2.02l1.24,1.08l1.12,-0.53l0.66,-1.4l1.3,-1.56l0.68,-1.87l2.16,-0.78l3.43,-4.62l1.14,-0.73l1.19,-0.16l2.13,0.73l2.27,1.57l2.1,1.95l1.02,0.13l4.83,-3.42l1.92,-0.97l2.84,0.1z" fill="#7f3f00" id="svg_3" stroke="#666" stroke-miterlimit="10" transform="matrix(1 0 0 1 0 0)"/>
   <path clip-path="none" d="m323.56,339.14l-0.02,-2.93l1.4,-2.25l1.15,-1.04l1.15,-1.65l0.43,-1.96l1.89,-2.16l0.85,-2.36l1.44,-0.73l0.87,0.57l0.8,1.26l0.35,1.83l0.56,0.85l2.64,2.42l1.46,-0.16l0.89,-1.38l1.02,-2.8l1.02,-2.19l2.02,-2.54l2.75,-1.39l1.9,-0.39l0.61,4.75l-0.4,1.93l-2.04,2.32l-0.18,1.95l1.34,1.76l3.36,0.85l1.77,2.17l-0.02,0.65l-1.27,0.97l0.36,1.14l2.66,0.89l0.95,1.6l-0.02,1.09l-1.39,2.54l0.12,2.84l1.34,3.17l-0.11,2.1l-0.67,0.85l1.24,0.92l0.84,2.28l0.47,0.38l1.19,-0.57l-0.3,1.64l1.02,1.28l0.58,2.63l0.65,0.56l2.02,-1.71l1.37,-0.04l1.04,1.14l1.57,0.79l0.14,1.13l-0.42,2.73l0.93,1.32l2.82,1.23l0.56,0.51l2.55,0.17l1.29,-1.72l2.32,0.76l1.07,1.83l2.11,0.28l-0.32,1.25l-0.87,0.81l1.66,2.75l0.86,-1.08l0.95,1.86l2.04,0.67l2.69,0.08l1.3,2.06l1.19,0.42l4.37,-0.05l1.12,1.08l0.07,2.02l1.21,4.13l1.01,2.75l-1.82,0.66l-1.74,1.69l-0.56,0.97l-0.58,2.25l-0.2,2.29l-1.34,1.7l0.18,2.94l1.77,1.75l0.98,2.04l0.89,0.73l1.19,-1.62l0.8,0.45l-0.2,1.4l1.07,-0.04l1.51,-1.14l0.94,0.85l2.17,-0.95l-0.02,1.15l1.22,1.73l2.73,0.25l2.63,-0.18l1.76,0.99l2.25,2.36l1.07,-0.89l0.67,2.34l-1.27,0.69l-0.71,-0.69l-1.09,0.12l-1.02,0.81l0.09,0.8l-1.08,1.09l0.06,1.55l-2.17,-1.04l-1.45,0.21l-0.94,-1.96l-0.86,-0.35l-0.42,0.76l0.58,2.41l-0.79,2.69l-0.59,4.91l-0.6,1.49l-0.92,-0.45l-1.44,-1.47l-1.89,0.35l-1.88,1.81l-1.66,2.69l-0.97,1.09l-4.34,1.38l-2.31,0.35l-1.84,-0.05l-2.32,0.53l-2.33,-0.68l-5.57,1.25l-2.09,-0.53l-1.53,0.47l-1.18,2.14l0.53,0.75l-0.41,0.73l-1.28,-0.76l-0.79,-1.38l-0.72,-3.27l-1.03,-2.8l-1.92,-2.71l0.49,-2.17l-0.48,-2.41l-1.28,-1.99l0.52,-3.77l-0.3,-1.15l0.98,-0.62l-0.03,-1.28l-2.74,-0.09l-1.87,3l-1.3,-1.68l-1.91,-0.08l-1.27,0.77l-2.35,-0.5l-0.23,-0.78l-1.05,-0.49l-1.83,2.05l-1.27,0.93l-1.37,1.98l-0.43,1.54l1.12,3.66l-2.21,2.89l-1.09,0.27l-0.55,1.35l-1.03,1.34l-0.41,4.45l-0.56,1.13l-0.9,3.19l0.05,1.33l-0.99,2.94l0.61,1.49l1.37,1.07l-0.64,1.66l0.39,1.14l-0.09,3.62l-1.36,0.51l-2.06,2.24l-0.94,-0.21l-1.18,1.41l-0.33,1.88l-1.11,2.06l-0.03,3.2l-0.26,0.67l0.73,3.82l2.52,4.31l0.42,2.64l-0.73,3.73l-0.5,1.1l-2.37,2.16l-0.87,1.44l0.15,0.9l1.27,1.73l0.49,1.43l-0.17,3.05l0.77,1l1.37,-0.04l1.08,0.87l-0.24,1.13l0.13,3.02l-1.91,4.59l-1.89,2.43l-1.19,2.24l-0.89,3.58l-0.01,1.46l0.5,2.39l1.25,0.98l1.11,0.16l0.74,0.79l-0.18,0.75l-1.51,1.37l-1.97,-2.06l-1.48,2.36l-1.11,0.87l-3.6,0.6l-2.72,-0.4l-4.18,0.67l-1.69,0.81l-0.43,-0.57l0.25,-1.84l-0.61,-1.86l-1.83,-1.89l-0.47,0.43l-0.44,1.79l-0.84,0.4l-0.91,-1.05l-1.89,0.08l-2.33,-2.53l0.22,-0.38l-2.42,-1.89l-0.65,1.02l-1.65,-0.76l-0.42,-1.17l0.51,-1.17l0.14,-3.18l-0.2,-2.39l0.71,-1.23l0,-1.45l0.45,-2.3l-0.25,-1.45l0.35,-1.09l-0.72,-0.72l-0.54,0.62l0.39,1.03l-2.18,-1.27l-0.84,0.65l-0.73,1.5l-0.79,0.3l-1.49,1.56l-3.18,-0.04l-0.3,2.33l-1.11,0.53l-0.41,-1.81l-1.09,-1.58l1.22,-0.62l0.42,-2.02l-0.18,-4.39l-1.04,-1.04l0.49,-1.54l-0.62,-1.07l-0.84,-0.09l-2.22,-1.27l-0.69,1.19l-1.25,1.06l0.1,-2.01l-0.86,-0.76l-2.34,0.2l-0.54,-0.69l0.12,-1.51l-1.55,-1.93l0.96,-1.21l-1.22,-0.8l-0.3,-1.68l0.6,-0.72l0.13,-2.21l0.67,-2.44l-0.11,-3.66l0.5,-0.55l-0.28,-1.49l0.4,-1.44l2.28,1.87l-0.11,0.72l1.27,1.18l0.71,-0.16l1.17,-1.81l0.52,-1.86l0.64,-0.08l0.56,-3.13l-0.11,-1.44l0.83,0.14l0.44,-1.84l1.12,-0.85l0.26,-0.92l-0.69,-2.05l0.57,-1.98l1.15,-1.39l-0.41,-0.83l-0.17,-2.12l-0.45,-0.51l-1.17,0.5l-0.37,-2.14l0.54,-1.09l1.7,-1.15l0.77,-1.89l-0.47,-0.76l0.23,-1.37l1.73,-3.27l-0.03,-1.36l0.79,-1.58l-0.76,-2.53l0.6,-0.49l0.37,-2.47l-1.62,-2.96l0.41,-1.11l0.65,-0.17l1.18,1.22l1.87,0.87l0.86,-1.55l0.74,-0.29l0.97,-1.9l-0.02,-2.67l-0.71,-1.4l0.06,-4.41l0.86,-0.89l1.01,-2.73l-0.07,-1.27l1.05,-1.12l-0.74,-4.63l1.25,-2.56l1.24,-1.02l1.22,-1.67l0.96,-2.76l2.07,-0.7l0.77,-0.79l2.24,-0.16l1.28,-0.66l-0.04,-2.53l1.08,-1.13l0.84,0.16l0.42,-0.77l-0.28,-1.14l-1.47,-2.19l0.32,-1.71l-0.37,-1.19l0,-1.94l-2.13,-0.52l-0.93,-1.6l-0.03,-1.22l0.63,-2.07l-1.66,-2.39l-0.55,-1.47l-2.13,-1.75l-2.04,-0.21l0.14,-2l0.87,-0.31l6.96,3.06l2,-0.26l-0.6,-1.95l1.68,-0.91l0.42,-1.81l-0.09,-2.81l-0.34,-2.51l0.6,-1.13l4.02,-3.21l0.71,-1.45l-0.07,-2.63l0.32,-2.23l1.35,-0.68l0.18,-0.95l-0.62,-1.27l0.43,-1.12l0.11,-2.03l-0.58,-4.01zm-4.85,-4.55l-2.14,3.28l-0.17,1.1l-1.74,2.79l-0.65,0.21l-0.4,1.29l-2.15,0.19l-2.79,-0.83l-0.62,-1.15l1.04,-1.77l0.13,-1.35l-0.66,-2.01l0.58,-1.66l2.2,-2.26l0.3,-0.6l0.86,-4.88l0.8,1.05l0.36,2.29l1.49,-0.33l1.58,-1.63l1.16,0.04l0.37,1.14l0.45,5.09z" fill="#aaff56" id="svg_4" stroke="#666" stroke-miterlimit="10" transform="matrix(1 0 0 1 0 0)"/>
   <path clip-path="none" d="m635.56,48.64l0.86,1.94l-0.47,1.61l0.5,4.38l0.01,2.01l0.88,0.96l1.83,2.95l-0.08,1.76l0.97,1.4l1.4,0.84l0.58,1.49l-0.34,3.68l-0.58,4.12l1.19,1.72l1.57,-0.04l0.07,1.32l2.06,4.38l0.82,1.26l0.53,-0.23l1.16,-1.88l0.58,5.16l-1.15,1.66l-0.57,1.56l-1,0.21l-0.23,0.93l-0.03,3.65l-0.69,2.78l-1.06,1.64l-1.71,0.89l-2.11,2.2l0.59,1.03l-1.35,1.92l-2.01,0.89l-0.83,-0.69l-0.13,0.84l-2,0.94l-2.25,2.53l0.08,1.12l1.08,2.14l-1.07,1.51l0.47,0.82l1.38,0.84l1.1,1.83l0.01,1.29l-1.89,2.01l-0.17,1.32l1.13,2.19l-0.38,2.25l-0.69,1.3l1.43,1.3l0.4,1.46l-1.55,4.19l-1.37,2.89l-1.03,-0.35l-0.94,-1.98l-0.96,-0.71l0.6,-0.81l1.26,-0.63l-0.59,-0.24l-1.11,-1.59l-0.14,-1.05l-0.99,-0.46l-1.16,0.63l-0.06,-1.05l2.37,-0.35l0.27,-1.55l-1.84,0.58l-1.3,-0.75l-0.76,1.01l-0.03,2.05l-0.76,1.54l1.11,1.61l0.98,0.14l1.68,1.56l-0.4,1.88l-0.6,0.08l-1.67,-1.86l-1.58,0.46l-1.84,-0.57l-2.09,0.22l0.69,1.6l-4.38,-0.03l-0.75,1.49l-0.47,2.38l0.1,3.83l0.32,2.5l-0.45,3.46l0.36,1.76l-0.26,4.41l-0.28,1.47l-0.71,-0.3l-1.43,2.3l-1.17,0.12l-0.75,0.98l-1.19,-1.01l0.21,1.16l-0.22,3.35l-0.4,2.75l-1.33,3.96l0.11,1.32l-0.67,1.3l0.72,-0.19l0.5,1.07l1.43,-0.5l0.58,0.34l0,2.49l1.77,-0.22l0.36,2.26l1.82,-0.91l0.64,0.12l0.82,-2.67l0.68,0.42l0.59,-0.96l0.46,1.44l2.38,4.11l1.25,1.18l0.5,0.98l-1.7,3.55l-0.36,1.34l-0.17,3.12l0.2,1.05l1.13,2.63l-1.65,0.47l-0.69,0.82l-0.96,2.47l-0.02,4.25l1.43,2.18l0.87,2.14l1.78,2l0.06,1.86l1.08,-0.04l0.21,1.41l-1.36,1.82l-0.37,0.99l0.02,2.36l1.2,4.37l-0.34,1.38l-1.4,1.81l-1.79,4.78l-0.05,1.98l0.4,2.56l-0.4,2.91l-0.84,1.47l-0.8,0.63l-1.83,0.02l-1.96,-0.46l-1.47,1.63l-1.98,6.36l-1.78,0.75l-0.78,-0.13l-1.68,1.3l-0.72,2.05l0.21,0.78l1.58,1.2l1.64,-0.02l0.59,0.73l0.03,4.27l0.25,1.24l-3.31,0.36l-0.33,0.76l1.75,1.43l-0.59,1.75l0.5,1.03l2.52,0.51l-0.14,1.94l1.37,0.94l3.46,-0.72l1.3,-1.46l2.23,-0.47l1.31,1.69l-0.2,0.76l0.86,1.47l1.46,0.08l0.05,-0.96l-1.13,-1.41l1.13,-1.74l1.6,-0.97l0.91,0.43l0.12,1.45l-0.69,1.36l0.42,1.92l1.82,-0.62l1.26,1.52l0.99,0.38l0.35,2.07l0.77,1.46l1.96,0.62l0.66,1.44l-0.6,2.44l-1.18,1.11l-1.51,0.37l-2.52,1.4l-1.12,0.08l-0.17,0.63l0.68,1.35l-1.84,0.85l-2.7,-0.46l-0.15,0.81l-1.53,1.71l-1.73,-0.27l-0.35,0.35l0.18,2.05l0.15,1.58l-0.42,0.51l-1.81,0.08l-1.04,-1.15l-0.04,-1.72l-2.98,0.68l0.58,-1.5l1.92,-1.52l-1.03,-0.26l-0.21,-0.93l-0.87,0.75l-2.8,-0.19l-3.13,-0.43l0.18,-1.49l1.75,-0.71l-0.76,-1.11l-2.39,0.05l-1.68,-1.06l-1.93,-0.26l-2.31,-0.89l-1.69,0.09l-1.5,-0.54l-0.37,-1.12l0.56,-0.74l0.36,-1.65l-1.28,-0.02l-2.26,1.14l-1.53,-1.2l-0.87,0.08l-3.42,1.14l-0.61,0.62l1.14,2.09l0.42,1.35l-1.24,1.1l-0.99,0.1l-1.1,-1.09l-1.08,-2.45l-0.54,0.85l1.11,2.37l-0.11,1.32l-1.23,0.55l-1.04,-1.58l-1,-0.89l0.21,-0.89l-1.43,-1.33l-1.48,0.11l0.24,-1.39l-0.48,-2.12l0.59,-1.13l0.98,-0.42l0.19,-2.12l2.53,-2.26l-0.23,-4.21l-0.32,-1.87l-0.61,-0.93l-3.12,0.4l-0.64,0.29l-1.59,-0.84l-1.44,3.77l-1,-0.08l-0.01,-1.27l-0.65,-1.27l-1.42,0.2l-1.01,-0.58l0.03,-2.69l2.28,-2.22l-0.13,-1.51l-1.33,-1.58l-1.18,-0.67l0.36,-0.89l-1.96,-0.21l0.37,-2.64l-0.68,-0.15l-1.23,0.87l-2.81,-0.32l-1.91,-0.61l-1.24,-1.45l-0.8,0.35l0.18,2.55l-0.21,2.16l-0.59,1.3l-1.46,1.55l0.36,1.52l-0.97,0.45l-2.69,3.58l-0.84,1.95l-2.84,-0.1l-1.92,0.97l-4.83,3.42l-1.02,-0.13l-2.1,-1.95l-2.27,-1.57l-2.13,-0.73l-1.19,0.16l-1.14,0.73l-3.43,4.62l-2.16,0.78l-0.68,1.87l-1.3,1.56l-0.66,1.4l-1.12,0.53l-1.24,-1.08l-1.39,-2.02l-0.81,-2.48l-1.55,-1.66l-1.92,-0.37l-2.37,1.45l-0.19,1.03l0.52,1.87l-0.58,1.61l-1.85,2.99l-1.16,0.61l0.01,2.14l-1.45,1.59l-0.74,-0.54l0.51,-2.07l1.07,-0.77l-1.76,-1.35l0.03,-2.53l-0.85,-2.62l-1.1,-1.53l-1.8,-4.84l0.03,-1.13l1.56,-2.6l0.78,-3.47l-0.21,-1.41l-1.39,-1.83l0.14,-2.73l-0.85,-1.44l-2.39,0.03l-1.85,-2.78l-0.97,-2.86l-1.81,-1.18l-1.09,-1.26l-1.44,-0.44l-1.01,0.38l-1.93,1.45l-1.43,0.05l-0.26,1.41l-0.86,-0.41l-1.13,0.82l0.43,2.46l-0.6,0.86l-0.91,0.04l-2.59,-1.21l-0.85,-0.97l-1.24,0.23l-0.79,-1.71l-1.97,-0.71l-1.67,0.65l-1.03,0.93l-2.87,1.52l-0.86,1.73l-1.02,-0.69l-1.95,0.4l-0.92,-1.5l-1.19,-3.04l-0.06,-0.85l0.83,-2.06l1.61,-1.19l0.2,-2.44l-0.4,-1.94l-1.6,-0.87l-0.57,-1.49l-1.73,-0.62l-0.9,-1.72l-0.7,0.7l0.22,0.93l-1.49,0.91l-1.74,1.65l-0.46,0.98l0.69,1.92l-1.16,0.89l-2.12,-1.91l-3.61,1.13l-0.91,-0.23l-0.87,-1.78l-1.79,-2.53l-0.62,-2.33l-1.17,0.2l-0.86,-2.37l0.28,-2.23l-2.1,-0.94l-0.04,-0.65l-2.11,-0.22l-0.41,-0.93l-2.22,0.34l-2.06,0.87l-0.81,-0.37l0.37,-2.52l-0.36,-3.9l-0.34,-1.05l0.21,-2.91l1.78,-0.02l3.7,-2.05l-0.32,-0.91l0.44,-0.81l1.46,0.18l2.49,-0.53l2.04,0.16l1.51,0.61l2.03,1.33l1.33,0.15l1.32,0.94l1.23,-1.07l1.7,0.25l0.61,-0.79l1.06,0l2.45,-1.86l3.61,-3.32l1.36,-0.09l1.91,-1.35l0.23,-0.84l-1.34,0.14l-0.99,-0.78l-0.22,-0.85l1.61,-2.05l0.54,-1.28l-0.17,-1.25l-1.16,-0.49l0.7,-1.09l-0.71,-1.25l-1.96,-0.17l-0.42,-1.17l0.83,-0.62l-0.11,-2.89l0.56,-0.22l1.32,-1.8l-0.27,-1.22l-0.74,-0.63l-0.14,-1.49l-1.31,-1.3l-0.71,-1.72l-1.06,-0.44l-1.32,0.48l-2.13,-1.08l-0.29,-2.14l1.27,-2.43l0.83,-0.18l0.11,-2.08l-1.13,-1.62l-0.45,-1.64l-1.73,-0.68l-0.49,-2.24l-1.38,-0.4l-0.42,-1.9l-1.45,-0.31l-1.35,-1.48l-3.01,-1.79l-1.89,-0.53l-1.15,0.44l-1.81,0.11l-2.04,1.44l-1.02,1.03l-2.19,0.58l-0.98,0.89l0.88,2.57l-0.25,0.47l-1.25,-0.28l-0.69,-1.35l-2.54,0.49l-0.08,0.96l-0.86,0.04l-0.51,-2.9l-0.7,-0.83l-1.69,-0.71l-0.78,1.41l-0.92,-0.4l-2.21,0.78l-0.79,1.18l-1.8,-1.06l0.24,-1.35l-0.94,-0.96l-0.71,-1.43l-0.07,-1.49l1.01,-3.99l0.94,-1.24l0.89,-3.06l-1.38,-1.08l-0.16,-1.21l-1.03,0.67l-1.23,-0.63l-1.51,-3.64l-0.99,-2.95l-1.41,-0.04l-1.01,-0.64l-0.45,-2.14l-0.67,-0.89l-1.35,0.96l-0.01,1.18l1.45,1.33l-2.38,-0.07l-1.94,0.56l-0.51,1.66l0.31,1.79l-0.8,0.65l-1.76,-1.2l-0.58,0.24l-1.55,-0.57l-0.52,-1.4l-1.17,-1.79l-1.16,-0.1l-0.78,-1.06l-0.94,1.01l-0.04,-1.65l1.15,-2.33l0.3,-2.44l0.49,-0.37l-0.7,-0.89l-0.23,-2.15l-0.71,-1.02l0.53,-1.27l-0.48,-2.96l-1.07,-0.08l-1.81,-0.85l-0.05,-2.03l0.68,-1.11l-0.93,-1.02l0.5,-1.51l0.44,0.03l0.81,-2.98l-0.38,-1.29l1.72,0.06l0.74,-0.67l1.35,-0.1l0.63,-1.57l1.26,0.22l-0.12,-2.92l0.79,-0.85l0.13,-2.99l0.63,-0.47l1.23,0.72l0.72,-0.51l1.6,-2.95l1.04,-0.12l0.8,1.62l0.04,1.49l1.95,-1.07l0.61,-1.53l1.26,0.99l3.53,0.47l1.36,-0.86l0.85,1.05l1.56,-0.63l0.83,0.93l0.79,-1.28l1.17,-0.66l-1.47,-1.3l0.33,-0.31l0.18,-2.48l0.51,-0.61l-0.86,-0.35l-0.23,-2.4l1.32,0.16l1.73,-1.22l1.28,-0.37l-0.21,-2.55l0.84,-1.01l1.28,-0.43l-0.13,-1.35l1.04,-1.43l0.2,-3.21l1.08,1.89l1.9,0.46l0.89,0.59l0.84,1.95l1.03,0.36l-0.56,1.45l1.24,0.24l-0.5,1.4l1.16,0.19l2.23,0.92l-0.05,-0.79l1.32,0.77l0.92,2.11l-0.68,1.01l1.43,0.81l0.49,2.36l1.62,0.42l-0.47,-1.23l1.28,0.32l1.44,-0.59l0.69,1.03l1.29,0.03l0.52,0.95l0.19,2.02l1.08,1.49l0,1.4l0.73,1.53l1.22,1.15l0.86,-0.65l2.01,1.64l1.75,2.59l2.11,0.82l0.07,-0.75l1.37,0.19l0.13,1.3l1.2,2.97l1.59,1.04l0.65,1.6l1.01,0.18l0.72,0.87l0.36,-0.82l2.44,0.07l-0.26,-1.7l0.42,-1.76l-0.57,-0.44l-0.07,-1.76l0.45,-0.96l-0.47,-0.63l1.53,-1.95l-0.39,-0.95l1.26,-1.29l1.3,1l0.96,0.06l1.02,0.75l0.71,-0.34l1.17,1.21l-0.09,0.63l1.33,0.39l0.4,1.12l1.15,0.25l0.9,-0.96l0.73,0.48l0.33,-1.28l-1.64,-1.77l-0.78,-2.03l-1.08,-1.69l0.6,-1.3l2.35,1.64l0.94,2.63l1.43,-1.63l-1.01,0.1l-1.78,-2.9l0.06,-1.87l0.61,-0.42l-0.04,-1.2l0.53,-0.94l-0.37,-3.22l1.64,-0.1l0.76,-1.94l-1.17,-1.31l-0.52,-3.39l-1.15,-0.29l-0.4,-2.75l-2.98,-2.72l-0.71,-1.77l-0.26,-2.19l1.04,-0.55l-0.3,-1.06l-0.77,-0.3l0.19,-1.11l1.41,-1.19l-0.62,-0.57l1.19,-0.26l0.16,0.79l1.35,2.53l1.71,1.34l1.16,0.2l0.18,1.64l1,0.3l0.03,0.98l1.31,0.13l1.3,1.73l0.19,1.24l-0.39,1.54l0.05,1.64l1.56,2.3l0.51,0.02l0.46,1.34l1.02,-0.04l0.75,0.85l1.23,-0.51l-0.46,1.11l0.32,1.63l0.86,1l0.79,0.1l0.79,-0.74l0.72,1.87l-0.95,0.66l-2.21,-0.01l0.11,0.87l0.91,0.35l0.78,1.41l-0.31,1.95l-0.71,0.42l-1.21,-0.57l-0.57,1.82l0.92,3.94l-0.15,1.65l-2.47,2.28l-0.4,1.02l-1.5,-0.05l-0.79,1.29l0.72,1.01l-0.48,0.99l0.49,1.67l2.23,-0.79l-0.03,-1.09l-0.61,-0.97l0.79,-0.42l1.58,1.53l2.11,-0.69l-0.15,1.65l1.75,1.35l1.07,-1.55l1.62,1.32l0.93,-0.42l0.88,1.01l-0.41,2.52l1.43,0.75l0.72,-0.74l0.85,0.25l0.71,-1.14l1.3,-0.39l-0.17,-2.9l-1.77,-3.6l-0.19,-1.41l0.4,-1.52l0.86,-1.42l1.59,-0.63l1.01,0.02l1.39,-0.7l0.1,-1.39l-1.35,-0.66l-0.75,-1l0.04,-2.87l1.5,-0.11l0.5,-1.63l1.15,1.09l0.08,1.22l0.66,0.55l0.68,1.59l1.82,-1.14l0.58,-1.84l-0.37,-1.19l3.48,-0.22l0.32,-3.07l-0.27,-0.11l1.29,-3.83l0.24,-1.49l-1.98,0.18l-0.7,-0.77l-0.07,-1.15l0.81,-0.16l-0.9,-2.11l-2.31,-1.66l-0.4,-2.31l0.87,-1.58l0.48,0.35l0.65,-1.88l1.59,0.05l0.21,0.76l0.91,-0.65l1.14,-1.88l1.08,-0.8l0.7,0.63l1.66,-1.74l1.44,2.21l0.36,1.28l0.75,0.56l0.14,1.34l1.51,-0.9l1.89,-0.07l0.07,-1.96l-0.69,-1.74l-0.05,-1.12l0.8,-2.05l-0.55,-2.71l1.8,-0.41l0.24,-0.59l1.31,-0.19l-0.29,-2.72l1.54,0.02l0.6,0.54l0.01,1.78l1.86,-0.65l-1.24,-0.75l0.66,-2.03l1.31,-0.53l0.54,2.01l-0.83,0.28l-0.34,1.08l1.21,0.23l1.65,-1.06l0.6,-1.88l4.25,0.3l0.36,1.36l0.95,-0.77l1.06,0.3l1.45,-0.82l0.14,0.9l0.89,-1.1l0.45,1.29l-0.41,0.23l1.17,1.08l-0.9,2.58l-0.17,1.17l2.94,0.15l-0.94,1.09l-0.54,1.67l0.26,2.47l0.5,0.8l0.05,2l2.57,1.36l0.65,-0.62l-0.11,-1.72l0.85,-1.53l1.48,-0.8l2.57,-0.95l1.95,-0.36l1.86,-2.51l-1.24,-1.45l2.63,-1.09l0.69,0.62l1.52,-0.45l1.12,-1.54l-0.33,-0.95l1.34,-2.89l0.89,0.22l-0.17,-2.71l0.66,-1.72l1.19,-1.07l0.7,-1.26l-0.21,-1.44l-1.62,0.09l-0.8,-0.7l-0.7,-1.51l-0.1,-1.21l-0.71,-1.43l-2.48,-0.07l-0.59,-1.97l1.23,-2.15l1.68,-1.61l-0.42,-2.43l-1.21,0.14l-0.16,-2.11l-0.6,-2.1l1.15,-0.74l0.97,0.78l1.91,-0.52l1.4,-4.12l-0.57,-0.93l-1.23,-0.33l-0.02,-1.56l0.39,-1.32l-0.85,-1.39l0.1,-1.92l2.13,-0.31l1.35,-1.71l2.12,1.07l-0.16,2.32l1.01,0.74l1.43,-0.47l2.54,-2.47l1.59,-0.13l1.62,-1.82l0.45,-1.18l1.41,0.01l0.57,1.51l0.08,2.78l0.46,1.58l0.84,0.9l-0.47,0.87l0.39,1.04l1.1,0.28l-0.04,-1.47l0.58,-0.74l0.96,0.31l1.11,-0.35l1.6,0.62l1.28,-0.26l0.29,1.88l3.39,0.83l0.84,-1.62l1.02,-0.24l0.82,-2.45l-0.23,-0.81l1.38,-0.86l1.14,-1.33l0.73,0.92l0.09,1.83l0.71,0.32l0.69,1.54l0.67,0.15l1.2,1.9l1.46,0.89l-1.01,4.15l-0.95,2.98l-0.43,4.4l1.71,0.54l1.09,1.02l0.8,0.07l-0.22,3.57l-1.02,2.68l1.66,1.02l1.31,1.44l2.4,0.52l0.41,-2.82l1.04,-0.44l0.43,-2.75l1.99,0.14l2.1,-3.49l1.7,0.19l4.19,-0.01l2.85,-0.61l0.96,-1.01l0.14,-0.91l3.14,-4.07zm-12.22,242.33l-0.71,-0.41l-0.22,-1.08l0.9,-0.52l0.58,0.82l1.02,0.73l0.01,0.71l-1.42,0.31l-0.16,-0.56z" fill="#c98b50" id="svg_5" stroke="#666" stroke-miterlimit="10"/>
   <path clip-path="none" d="m371.25,436.84l-0.53,-0.75l1.18,-2.14l1.53,-0.47l2.09,0.53l5.57,-1.25l2.33,0.68l2.32,-0.53l1.84,0.05l2.31,-0.35l4.34,-1.38l0.97,-1.09l1.66,-2.69l1.88,-1.81l1.89,-0.35l1.44,1.47l0.92,0.45l0.6,-1.49l0.59,-4.91l0.79,-2.69l-0.58,-2.41l0.42,-0.76l0.86,0.35l0.94,1.96l1.45,-0.21l2.17,1.04l-0.06,-1.55l1.08,-1.09l-0.09,-0.8l1.02,-0.81l1.09,-0.12l0.71,0.69l1.27,-0.69l-0.67,-2.34l-1.07,0.89l-2.25,-2.36l-1.76,-0.99l-2.63,0.18l-2.73,-0.25l-1.22,-1.73l0.02,-1.15l-2.17,0.95l-0.94,-0.85l-1.51,1.14l-1.07,0.04l0.2,-1.4l-0.8,-0.45l-1.19,1.62l-0.89,-0.73l-0.98,-2.04l-1.77,-1.75l-0.18,-2.94l1.34,-1.7l0.2,-2.29l0.58,-2.25l0.56,-0.97l1.74,-1.69l1.82,-0.66l1.72,-1.03l2.47,-1.98l1.12,-2.82l1.22,-1.15l3.55,-1.85l2.16,-0.73l0.82,-0.81l1.28,1.35l1.06,-2.44l2.92,-1.19l1.61,1.63l1.84,-0.97l0.86,-2.01l1.3,-0.43l3.83,0.32l1.43,-0.6l2.33,-2.61l1.7,-0.85l1.73,-1.84l0.64,-0.2l1.55,1.08l2.72,-1.56l0.67,0.38l0.14,1.63l-0.48,1.59l0.94,2.15l-0.19,2.21l-1.33,0.91l1.23,1.8l1.93,-0.46l2.4,-1.12l2.02,-1.56l2.12,0.33l5,-2.81l0.8,-0.83l0.49,-1.5l0.2,-2.63l0.59,-1.97l0.06,-4.05l0.33,-0.94l1.44,-1.85l-0.71,-3.74l1.27,1.4l0.67,1.93l1.54,1.35l0.12,1.61l-0.7,0.4l0.6,1.07l-0.34,0.98l1.63,1.54l1.12,0.51l1.8,-0.05l1.05,-0.75l3.12,-1.36l1.69,1.66l1.95,0.74l0.94,2.01l-0.53,3.19l0.34,0.73l2.08,0.23l0.65,1.68l-0.83,0.27l-0.04,1.03l-1.59,0.86l0.08,0.59l2.7,0.35l1.02,0.62l2.92,0.54l1.06,-0.26l2.33,-2.02l0.9,0.04l0.6,1.33l-0.41,0.44l0.48,2.57l0.96,-0.31l1.46,2.48l0.04,1.3l1.43,1.06l0.48,0.85l1.68,-0.31l2.24,0.62l0.99,-0.33l1.21,0.54l0.02,1.68l-0.6,2.07l0.52,0.93l-1.4,2.56l-1.03,0.75l-1.3,-0.45l0.19,1.19l-0.81,1.35l-1.16,0.76l-0.54,1.52l-0.99,0.4l-0.1,1.47l-5.78,-1.1l-2.54,-0.78l-1.51,-0.87l-1.82,0.28l-0.11,3.47l-1.06,2.9l-1.13,1.08l-1.73,0l-1.23,-1.81l-0.76,-2.05l-1.63,0.83l-0.31,0.73l-1.85,-0.22l-1.33,2.25l0.73,0.29l2.12,-0.11l2.42,2.95l-0.75,0.06l-0.65,0.9l-0.05,2.49l-0.8,3.51l-1.63,0.94l-0.12,0.82l1.83,0.15l1.05,1.77l-0.08,1.55l-1.6,1.54l-0.67,-0.31l-0.55,-1.24l-1.03,1.15l-0.61,5.21l-1.16,2.38l-0.33,0.53l-0.76,-0.57l-0.31,1.41l1.17,-0.31l0.98,-0.42l0.03,0.64l1.78,-1.25l-0.38,0.87l0.9,1.13l0.43,-0.82l1.17,0.33l1.3,2.13l1.2,0.04l-0.24,1.34l1.11,0.2l-0.01,1.45l-0.5,1.39l-1.27,0.01l-0.61,0.56l-0.19,1.53l0.41,1.56l-1.23,0.09l0.1,1.8l1.78,0.61l0.15,0.7l-1.18,1.96l-0.23,1.73l-0.74,0.25l-0.16,2.82l-1.15,2.03l-1.68,1.4l0.34,2.07l-0.25,2.23l0.5,0.33l0.67,2.78l0.25,3.5l-0.37,2.03l-2.19,1.71l0.07,1.55l1.33,0.5l2.2,-2.21l1.39,-1.04l2.23,-0.52l0.29,0.46l-0.75,1.63l-0.21,1.8l0.41,1.73l1.92,1.37l1.71,0.52l1.85,1.27l2.33,0.9l1.17,0.03l1.03,-0.54l1.36,-2.5l0.87,-0.36l2.24,1.48l1.75,2.04l0.93,0.36l-0.22,1.55l-1.49,4.08l-3.15,4.28l-0.39,0.91l0.35,2.48l-0.14,1.46l-1.69,4.02l-1.13,-0.14l-0.7,1.38l-0.19,2.54l0.75,0.16l-0.71,1.26l1.38,0.32l0.78,1.67l0.04,1.06l-1,1.63l-1.28,-0.05l-0.36,2.21l0.94,-0.55l2.15,1.89l0.62,2.56l-1.14,0.94l-1.85,-0.62l-1.61,-0.11l-3.38,1.48l-1.31,0.23l-0.76,-0.43l-1.78,-3.04l-0.85,-1.07l-2.97,-1.44l-1.1,0.03l-2.45,0.96l-0.68,-3.01l-1.01,-3.3l-0.85,-1.36l-0.7,-1.89l-1.22,1.01l-1.46,-0.38l0.18,-1.57l-0.57,-0.45l-0.34,1.93l-1.38,1.43l-1.23,-0.01l-0.45,-2.92l1.18,-0.87l-2.28,-3.37l-1.83,0.43l-2.13,-2.12l-0.03,-0.97l1.46,-0.49l0.66,0.38l0.85,-0.87l-0.63,-0.74l0.92,-2.27l-0.64,-1.59l-1.56,-1.2l0.34,-1.19l-0.71,-0.21l-1.1,1.88l-0.92,0.21l0.18,1.13l-0.7,1.78l-1.16,-0.34l-1.31,-1.11l-2.88,0.12l-0.48,-1.86l0.35,-1.58l-0.81,-1.95l-0.24,1.88l-0.76,1.87l-0.76,0.84l-0.12,1.04l0.67,0.78l1.12,-0.5l1.11,1.59l-1.08,1.72l-4.32,3.31l-1.77,1.64l-0.35,0.98l0.35,2.56l1.37,1.45l-0.41,1.31l1.16,1.34l-1.11,0.73l-1.7,-0.51l-0.1,0.85l-1.35,0.9l-1.57,-1.32l-4.01,-2.31l-1.8,-1.2l-2.68,-0.94l-0.29,-3.73l-2.57,-5.68l-0.59,-2.47l-1.62,-1.16l-1.2,-3.7l-1.23,-1.34l-1.65,-5.03l-0.77,-1.05l-1.47,-0.97l-2.5,-0.51l-1.48,-0.69l-4.24,-4.23l-1.01,-0.02l-1.75,2.22l-1.56,-0.03l-1.52,-2.48l-1.92,-2.22l-0.91,-1.81l-2.86,-1.66l-1.3,-2.2l-1.08,-1.24l-0.94,-0.11l-2.62,-2.69l-1.24,-1.91l-0.51,-2.64l0.36,-4.52l-0.93,-1.24l-1.73,0.54l-1.17,-0.02l-1.95,-1.25l-1.31,-1.62l-1.47,-2.47l-1.79,-0.78l-1.08,-1.81l0.74,-2.91l-0.26,-1.6l-0.57,0.3zm91.31,-5.87l0.75,0.64l-0.98,0.42l-0.1,-0.53l0.33,-0.53z" fill="#ffffaa" id="svg_6" stroke="#666" stroke-miterlimit="10" transform="matrix(1 0 0 1 0 0)"/>
   <path clip-path="none" d="m397.88,390l-1.01,-2.75l-1.21,-4.13l-0.07,-2.02l-1.12,-1.08l-4.37,0.05l-1.19,-0.42l-1.3,-2.06l-2.69,-0.08l-2.04,-0.67l-0.95,-1.86l-0.86,1.08l-1.66,-2.75l0.87,-0.81l0.32,-1.25l-2.11,-0.28l-1.07,-1.83l-2.32,-0.76l-1.29,1.72l-2.55,-0.17l-0.56,-0.51l-2.82,-1.23l-0.93,-1.32l0.42,-2.73l-0.14,-1.13l-1.57,-0.79l-1.04,-1.14l-1.37,0.04l-2.02,1.71l-0.65,-0.56l-0.58,-2.63l-1.02,-1.28l0.3,-1.64l-1.19,0.57l-0.47,-0.38l-0.84,-2.28l-1.24,-0.92l0.67,-0.85l0.11,-2.1l-1.34,-3.17l-0.12,-2.84l1.39,-2.54l0.02,-1.09l-0.95,-1.6l-2.66,-0.89l-0.36,-1.14l1.27,-0.97l0.02,-0.65l-1.77,-2.17l-3.36,-0.85l-1.34,-1.76l0.18,-1.95l2.04,-2.32l0.4,-1.93l-0.61,-4.75l-1.9,0.39l-2.75,1.39l-2.02,2.54l-1.02,2.19l-1.02,2.8l-0.89,1.38l-1.46,0.16l-2.64,-2.42l-0.56,-0.85l-0.35,-1.83l-0.8,-1.26l-0.87,-0.57l-1.44,0.73l-0.85,2.36l-1.89,2.16l-0.43,1.96l-1.15,1.65l-1.15,1.04l-1.4,2.25l0.02,2.93l-3.17,-2.09l-1.7,-1.76l0.02,-0.7l-0.45,-5.09l-0.37,-1.14l-1.16,-0.04l-1.58,1.63l-1.49,0.33l-0.36,-2.29l-0.8,-1.05l1.58,-3.69l-0.2,-1.55l-1.08,-2.36l-1.16,-0.56l-1.9,1.57l-0.83,-1.16l0.18,-1.81l-1.22,-2.08l-0.87,-0.48l-2.84,0.78l-3.07,-0.03l-2.28,-0.48l-0.71,-0.94l-0.87,-2.54l-2.21,-0.41l-1.85,-2.16l-2.6,0.04l-1.97,-1.67l-0.8,0.13l-0.66,1.3l-0.2,1.61l-0.99,0.56l-1.68,-1.35l-0.25,-1.72l0.18,-2.73l0.87,-0.86l0.48,-2.07l-0.54,-1.23l-1.43,-0.57l0.57,-1.79l-1.18,-0.95l-0.55,-1.71l0.88,-1.78l-0.95,-0.86l-0.3,-1.41l0.64,-2.36l-1.59,-0.85l-0.53,-3.12l0.8,-2.54l-1.81,-1.61l-1.65,-4.07l-3.08,0.17l-3.72,1.1l-1.65,-1l-0.62,-0.78l1.48,-1.87l0.05,-1.23l1.73,1.21l0.97,-0.22l0,-0.87l-0.78,-1.3l1.18,-0.24l0.66,0.98l1.94,-1.12l0.82,-1.02l-0.96,-1.43l-0.17,-2.09l2.12,-3.06l0.84,-0.11l-0.1,-1.32l0.54,0.62l1.11,-0.91l1.22,-4.08l1.27,-0.08l1.2,-2.48l0.65,0.06l0.05,-1.14l-0.93,-0.96l1.08,-1.12l0.11,-1.24l1.58,-0.63l3.78,1.6l0.72,-0.35l-0.07,1.58l0.67,1.22l1.17,0.15l0.65,1.05l1.09,-0.05l1.29,0.71l0.56,0.8l2.8,-0.03l-0.58,1.58l1.27,0.59l1.21,-0.39l-0.9,1.6l1.41,2.81l-0.04,1.34l2.17,3.04l2.33,-0.2l1.7,1.09l0.61,1.46l1.66,0.51l1.71,-1.33l2.41,-0.51l0.75,0.65l1.53,-0.9l0.52,-1.37l0.75,0.17l2.55,-1.12l1.34,0.98l1.76,-1.35l1.24,1.9l0.32,1.61l1.7,-0.46l0.1,-1.17l1.73,-3.02l1.64,0.28l0.92,1.1l0.75,0.03l1.19,1.34l-0.72,1.53l0.16,2l1.94,1.69l0.73,-0.81l1.21,-0.31l0.21,-0.71l1.02,-0.25l0.77,-2.42l2.24,-1.28l0.63,-1.21l1.9,-1.4l0.62,0.03l2.75,-1.83l1.14,-1l1.9,-2.54l1.23,0.55l0.15,-1.41l1,-0.24l0.89,-1.08l2.14,0l0.89,0.82l2.07,-0.89l1.26,0.3l2.09,1.41l0.95,-0.5l0.48,1.44l1.16,0.61l-0.06,3.13l0.66,-0.54l0.31,-1.38l1.64,-2.09l1.31,-2.49l0.66,-2.12l-0.63,-0.6l0.75,-1.5l0.46,-2.1l-0.5,-0.75l0.21,-1.84l1.18,-0.62l0.12,-1.19l0.95,-1.22l-0.63,-2.68l0.36,-0.59l-0.96,-0.54l-1.13,0.63l-0.23,-0.77l0.98,-0.63l-0.21,-0.92l0.94,-0.84l-0.61,-0.9l0.73,-0.11l0.49,-1.18l1.69,-0.86l1.47,-1.82l1.36,-1.16l-0.18,-1.6l-0.77,-0.86l0.83,-0.82l0.56,-1.9l-0.08,-1.99l-0.72,-1.49l0,-1.66l1.63,-2.28l0.78,-1.6l1.22,-0.26l1.3,-2.47l1.31,0l0.55,-0.77l1.04,-0.31l0.79,0.87l0.12,-1.34l2.54,-0.9l0.86,0.72l0.9,-1.57l0.79,-0.02l0.9,0.94l1.77,-0.88l1.48,0.26l2.34,0.99l0.47,0.85l1.38,0.54l1.11,3.33l1,0.9l1.96,-0.19l2.3,0.76l-0.23,1.35l0.67,1.59l1.19,1.39l0.11,1.84l0.48,0.65l1.33,0.12l1.12,-2.15l0.88,-0.85l1.26,0.08l0.72,0.61l1.55,0.2l1.79,-1l-0.18,-0.92l0.35,-1.71l4.2,-1.51l1.55,-0.15l2.79,0.99l1.63,0.16l1.1,0.58l1.65,-1.38l0.73,-2.03l1.28,-0.77l0.88,0.3l1.31,-1.11l1.51,-0.23l0.81,2.35l3.63,-1.57l1.58,-1.13l1.75,0.37l-0.21,2.91l0.34,1.05l0.36,3.9l-0.37,2.52l0.81,0.37l2.06,-0.87l2.22,-0.34l0.41,0.93l2.11,0.22l0.04,0.65l2.1,0.94l-0.28,2.23l0.86,2.37l1.17,-0.2l0.62,2.33l1.79,2.53l0.87,1.78l0.91,0.23l3.61,-1.13l2.12,1.91l1.16,-0.89l-0.69,-1.92l0.46,-0.98l1.74,-1.65l1.49,-0.91l-0.22,-0.93l0.7,-0.7l0.9,1.72l1.73,0.62l0.57,1.49l1.6,0.87l0.4,1.94l-0.2,2.44l-1.61,1.19l-0.83,2.06l0.06,0.85l1.19,3.04l0.92,1.5l1.95,-0.4l1.02,0.69l0.86,-1.73l2.87,-1.52l1.03,-0.93l1.67,-0.65l1.97,0.71l0.79,1.71l1.24,-0.23l0.85,0.97l2.59,1.21l0.91,-0.04l0.6,-0.86l-0.43,-2.46l1.13,-0.82l0.86,0.41l0.26,-1.41l1.43,-0.05l1.93,-1.45l1.01,-0.38l1.44,0.44l1.09,1.26l1.81,1.18l0.97,2.86l1.85,2.78l2.39,-0.03l0.85,1.44l-0.14,2.73l1.39,1.83l0.21,1.41l-0.78,3.47l-1.56,2.6l-0.03,1.13l1.8,4.84l-1.1,0.09l-1.42,-0.61l-2.23,1.44l-2.95,-0.06l-1.26,3.45l-3.06,2.94l-3.11,0.94l-2.09,2.11l-2.43,1.63l-2.69,2.36l-2.37,0.59l-0.49,0.46l-0.61,3.1l-2.47,1.62l-1.17,3.37l-0.15,3.77l1.12,3.61l0.19,2.74l1.3,2.4l1.32,0.88l0.04,0.95l-1.98,1.83l-2.47,1.07l-1.05,0.92l-1.06,2.23l-0.69,3.38l-0.66,1.41l0.03,2.73l-0.34,0.84l-1.44,1.19l-0.71,-0.01l-2.19,-1.56l-0.63,-0.02l-2.04,4.01l-1.59,0.71l-1.71,-1.64l-0.98,-2.57l-1.02,0.07l-1.12,1.01l-1.29,1.76l-2.59,1.13l-0.12,0.49l-1.81,0.33l-0.88,0.83l-0.82,1.77l-0.53,3.57l2.25,2.32l1.47,0.98l0.69,1.25l-0.11,1.69l-0.68,3.19l-0.03,2.36l0.88,3.42l-0.81,1.58l-2.92,0.58l-0.8,0.93l0.14,1.04l1.55,1.17l0.69,1.95l0.71,3.74l-1.44,1.85l-0.33,0.94l-0.06,4.05l-0.59,1.97l-0.2,2.63l-0.49,1.5l-0.8,0.83l-5,2.81l-2.12,-0.33l-2.02,1.56l-2.4,1.12l-1.93,0.46l-1.23,-1.8l1.33,-0.91l0.19,-2.21l-0.94,-2.15l0.48,-1.59l-0.14,-1.63l-0.67,-0.38l-2.72,1.56l-1.55,-1.08l-0.64,0.2l-1.73,1.84l-1.7,0.85l-2.33,2.61l-1.43,0.6l-3.83,-0.32l-1.3,0.43l-0.86,2.01l-1.84,0.97l-1.61,-1.63l-2.92,1.19l-1.06,2.44l-1.28,-1.35l-0.82,0.81l-2.16,0.73l-3.55,1.85l-1.22,1.15l-1.12,2.82l-2.47,1.98l-1.72,1.03zm-84.38,-63.06l-0.86,4.88l-0.3,0.6l-2.2,2.26l-0.58,1.66l0.66,2.01l-0.13,1.35l-1.04,1.77l0.62,1.15l2.79,0.83l2.15,-0.19l0.4,-1.29l0.65,-0.21l1.74,-2.79l0.17,-1.1l2.14,-3.28l-0.02,0.7l1.7,1.76l3.17,2.09l0.58,4.01l-0.11,2.03l-0.43,1.12l0.62,1.27l-0.18,0.95l-1.35,0.68l-0.32,2.23l0.07,2.63l-0.71,1.45l-4.02,3.21l-0.6,1.13l0.34,2.51l0.09,2.81l-0.42,1.81l-1.68,0.91l0.6,1.95l-2,0.26l-6.96,-3.06l-0.87,0.31l0.89,-2.01l-0.18,-1.43l-0.71,-0.15l-0.07,-1.12l-1.4,-1.53l-1.27,0.71l-3.88,-0.57l-1.33,1.22l-2.21,-1.95l-0.41,-1.04l-0.04,-2.33l0.82,-2.81l-0.94,-2.39l-1.42,-1.12l-0.09,-1.81l-0.72,-1.34l-0.99,-0.9l-0.22,-0.89l-2.1,0.54l-0.06,2.73l-1.55,2.81l-0.17,1.83l-1.4,0.77l-0.19,1.39l-0.92,1.36l-2.28,0.16l-1.52,0.84l-1.13,-2.19l-2.41,-0.44l-0.21,1.59l-1.5,0.23l-0.74,-0.96l-0.99,-0.03l-0.8,0.91l-2.28,-0.75l-1.31,-1.07l-1.62,-0.11l-1.29,-1.44l-1.86,0.62l-1.05,-0.26l-0.8,0.76l-0.74,1.74l-1.44,2.36l-0.38,1.09l-1.32,2l-1.05,0.88l-0.38,1.62l0.61,2.42l0.1,2.75l-1.83,1.49l-0.94,-0.89l-3.18,0.32l-0.73,-0.99l-2.68,0.4l-1.62,-0.64l-2.78,0.61l-0.73,0.41l-1.91,-0.09l-0.94,-0.43l-2.04,0.67l-2.05,-2.33l-2.16,0.28l-0.5,-0.52l-0.43,-2.66l-1.15,-1.66l-2.89,-1.8l0.17,-2.64l-1.99,-2.86l1.17,-2.93l-0.23,-2.06l0.08,-3l0.79,-1.05l0,-1.26l0.52,-1.13l-0.39,-2.12l-0.51,-0.51l-1.29,1.5l-1.2,-0.34l-1.11,-1.77l-0.06,-1.41l-0.55,-0.95l0.14,-1.26l-1.38,-2.88l-0.24,-2.58l0.39,-1.71l0.75,-0.21l0.83,-1.38l-0.18,-1.22l0.82,-0.54l2.01,-0.56l0.9,-0.73l1.14,-0.11l0.51,-1.1l-1.11,-1.96l-0.38,-1.78l0.15,-1.41l1.12,-2.27l-0.19,-2l-1.97,-1.53l-0.07,-1.23l-0.81,-2.46l-0.97,-1.47l-0.36,-2.09l-1.49,-1.81l-0.9,-1.7l-2.77,-0.32l-1.88,2.46l-0.16,1.15l-1.44,1.2l-1.51,0.81l-0.82,-0.32l1.35,-0.85l-0.42,-2.4l-0.51,0.04l-1.04,-1.54l-0.54,-1.86l0.68,-0.44l0.87,-1.77l0.98,0.9l1.82,0.88l1.14,-0.03l-0.62,-3.35l-1.14,0.33l-1.94,-0.85l0.38,-1.93l0.84,-1.03l1.57,-0.65l1.06,0.32l1.24,-1.01l2.02,0.55l1.44,-1.98l-0.46,-1.85l1.21,-0.49l0.81,-2.25l0.87,-0.81l0.79,-1.62l0.35,-1.59l1.41,-0.09l1.59,-2.25l0.92,-1.76l-0.2,-1.13l1.14,0.3l0.09,-2.08l2.12,0.39l1.55,-1.07l0.39,-1.85l1.87,0.72l0.01,-2.68l0.65,-0.24l0.15,-3.17l1.09,-0.04l1.65,-2.16l0.15,-4.58l0.79,-0.49l0.12,-1.03l1.01,-2.07l0.67,-3.84l1.08,1.2l1.13,0.15l0.05,0.97l1.78,0.32l0.41,0.7l1.2,-0.31l1.27,-1.3l0.85,0.1l0.12,2.12l0.31,0.17l0.01,4.23l1.84,1.82l1.72,0.88l0.44,1l1.68,1.11l0.29,0.91l2.85,-0.81l0.47,0.99l1.44,0.97l-0.25,1.97l1.02,1.27l0.65,1.57l2.33,2.62l0.62,0.78l1.65,1l3.72,-1.1l3.08,-0.17l1.65,4.07l1.81,1.61l-0.8,2.54l0.53,3.12l1.59,0.85l-0.64,2.36l0.3,1.41l0.95,0.86l-0.88,1.78l0.55,1.71l1.18,0.95l-0.57,1.79l1.43,0.57l0.54,1.23l-0.48,2.07l-0.87,0.86l-0.18,2.73l0.25,1.72l1.68,1.35l0.99,-0.56l0.2,-1.61l0.66,-1.3l0.8,-0.13l1.97,1.67l2.6,-0.04l1.85,2.16l2.21,0.41l0.87,2.54l0.71,0.94l2.28,0.48l3.07,0.03l2.84,-0.78l0.87,0.48l1.22,2.08l-0.18,1.81l0.83,1.16l1.9,-1.57l1.16,0.56l1.08,2.36l0.2,1.55l-1.58,3.69z" fill="#27d1d1" id="svg_7" stroke="#666" stroke-miterlimit="10" transform="matrix(1 0 0 1 0 0)"/>
   <path clip-path="none" d="m712.33,294.67l-0.19,-1.38l-1.58,-1.07l-0.96,-1.47l-0.04,-1.63l-1.06,-1.1l-0.55,-1.65l-3.37,-1.16l-0.31,-0.8l0.56,-1.42l1.72,-0.63l-0.37,-0.75l0.62,-1.38l1,-0.11l0.43,-3.77l1.33,-1.16l0.81,-3.76l-0.47,-1.85l-1.36,-1.69l-0.34,-1.06l0.33,-1.14l1.67,-0.11l-0.7,-1.2l0.85,-0.62l0.85,0.15l0.62,0.91l0.13,1.84l1.59,-0.14l0.93,-2.26l0.68,-0.33l1.87,0.55l0.76,-0.89l1.59,-0.7l4.19,0.68l1.11,-0.34l0.33,-1.99l1.22,-3.06l-0.17,-1.06l-1.22,-1.97l-1.36,-0.92l-1.45,0.14l-0.42,-1.55l-2.49,0.36l-0.82,-0.93l0.15,-1.26l1.81,-2.21l-0.26,-0.77l-2.07,-0.55l-1.17,-1.66l-0.97,0.07l-1.89,2.89l-1.14,0l-1.1,-0.67l-2.02,-0.47l-1.86,0.04l0.24,-1.36l-1.01,0l-0.92,0.74l1.26,2.38l-0.44,0.48l-0.9,-0.81l-1.78,-0.47l-0.74,0.41l-1.42,-0.39l-1.71,0.21l0.22,2.21l-1.41,-0.19l-0.05,-1.59l-0.86,-0.73l-2.54,-3.26l-1.39,-0.31l-2.42,1.66l-1.97,-0.34l-2.05,-1.5l-0.88,-0.26l-1.12,0.69l-0.8,1.21l-1,3.56l-1,0.8l-1.49,-1.05l-1.52,0.07l-1.11,1.61l-1.3,3.6l-0.63,2.45l-1.89,-0.58l-0.5,1.68l-0.69,0.37l-1.6,-1.51l-1.48,-0.25l-0.79,-0.62l-1.2,0.18l-1.43,2.09l-1.94,1.26l-3.1,2.46l-1.74,2.36l-1.46,1.17l-1.48,-0.35l-2.19,0.82l-1.51,-0.41l-3.15,-2.26l-1.34,0.33l-1.12,0.93l-1.33,3.37l-0.46,2.74l-0.76,1.96l-1.19,0.6l-1.6,-1.56l-0.77,-1.84l-0.99,-1.29l-1.71,0.25l-2.83,-0.91l-1.65,0.98l-1.96,0.04l-3.71,0.69l-0.43,1.76l-0.99,-0.38l-1.26,-1.52l-1.82,0.62l-0.42,-1.92l0.69,-1.36l-0.12,-1.45l-0.91,-0.43l-1.6,0.97l-1.13,1.74l-0.29,-0.03l-0.41,-0.01l-0.34,0.1l-1.31,-1.69l-2.23,0.47l-1.3,1.46l-3.46,0.72l-1.37,-0.94l0.14,-1.94l-2.52,-0.51l-0.5,-1.03l0.59,-1.75l-1.75,-1.43l0.33,-0.76l3.31,-0.36l-0.25,-1.24l-0.03,-4.27l-0.59,-0.73l-1.64,0.02l-1.58,-1.2l-0.21,-0.78l0.72,-2.05l1.68,-1.3l0.78,0.13l1.78,-0.75l1.98,-6.36l1.47,-1.63l1.96,0.46l1.83,-0.02l0.8,-0.63l0.84,-1.47l0.4,-2.91l-0.4,-2.56l0.05,-1.98l1.79,-4.78l1.4,-1.81l0.34,-1.38l-1.2,-4.37l-0.02,-2.36l0.37,-0.99l1.36,-1.82l-0.21,-1.41l-1.08,0.04l-0.06,-1.86l-1.78,-2l-0.87,-2.14l-1.43,-2.18l0.02,-4.25l0.96,-2.47l0.69,-0.82l1.65,-0.47l-1.13,-2.63l-0.2,-1.05l0.17,-3.12l0.36,-1.34l1.7,-3.55l-0.5,-0.98l-1.25,-1.18l-2.38,-4.11l-0.46,-1.44l-0.59,0.96l-0.68,-0.42l-0.82,2.67l-0.64,-0.12l-1.82,0.91l-0.36,-2.26l-1.77,0.22l0,-2.49l-0.58,-0.34l-1.43,0.5l-0.5,-1.07l-0.72,0.19l0.67,-1.3l-0.11,-1.32l1.33,-3.96l0.4,-2.75l0.22,-3.35l-0.21,-1.16l1.19,1.01l0.75,-0.98l1.17,-0.12l1.43,-2.3l0.71,0.3l0.28,-1.47l0.26,-4.41l-0.36,-1.76l0.45,-3.46l-0.32,-2.5l-0.1,-3.83l0.47,-2.38l0.75,-1.49l4.38,0.03l-0.69,-1.6l2.09,-0.22l1.84,0.57l1.58,-0.46l1.67,1.86l0.6,-0.08l0.4,-1.88l-1.68,-1.56l-0.98,-0.14l-1.11,-1.61l0.76,-1.54l0.03,-2.05l0.76,-1.01l1.3,0.75l1.84,-0.58l-0.27,1.55l-2.37,0.35l0.06,1.05l1.16,-0.63l0.99,0.46l0.14,1.05l1.11,1.59l0.59,0.24l-1.26,0.63l-0.6,0.81l0.96,0.71l0.94,1.98l1.03,0.35l1.37,-2.89l1.55,-4.19l-0.4,-1.46l-1.43,-1.3l0.69,-1.3l0.38,-2.25l-1.13,-2.19l0.17,-1.32l1.89,-2.01l-0.01,-1.29l-1.1,-1.83l-1.38,-0.84l-0.47,-0.82l1.07,-1.51l-1.08,-2.14l-0.08,-1.12l2.25,-2.53l2,-0.94l0.13,-0.84l0.83,0.69l2.01,-0.89l1.35,-1.92l-0.59,-1.03l2.11,-2.2l1.71,-0.89l1.06,-1.64l0.69,-2.78l0.03,-3.65l0.23,-0.93l1,-0.21l0.57,-1.56l1.15,-1.66l-0.58,-5.16l-1.16,1.88l-0.53,0.23l-0.82,-1.26l-2.06,-4.38l-0.07,-1.32l-1.57,0.04l-1.19,-1.72l0.58,-4.12l0.34,-3.68l-0.58,-1.49l-1.4,-0.84l-0.97,-1.4l0.08,-1.76l-1.83,-2.95l-0.88,-0.96l-0.01,-2.01l-0.5,-4.38l0.47,-1.61l-0.86,-1.94l3.79,1.31l1.78,1.3l0.37,1.45l1.86,0.05l1.77,-1.46l2.48,-0.66l0.65,1.74l0.97,0.08l1.44,1.15l-0.54,1.92l1.66,0.4l1.38,-1.7l0.3,-2.73l0.8,-1.75l0.18,-1.64l1.5,0.21l1.44,0.76l0.49,0.7l-0.87,3.8l1.12,3.6l-0.1,1.88l0.36,0.79l0.97,5.4l1.59,0.76l0.66,0.8l0.35,1.4l-0.03,2.91l0.67,1.71l-0.2,2.83l-0.83,1.81l0.82,3.09l-0.09,2.17l2.65,1.06l0.38,0.53l0.23,1.97l-0.34,1.71l-0.94,0.59l-0.26,0.92l-2.37,2.99l0.03,3.38l-0.37,1.6l-1.05,2.11l1.08,0.78l0.76,-0.34l3.65,3.05l2.88,1.05l1.63,1.17l2.1,-0.02l0.91,0.8l1.9,-0.35l0.91,0.49l0.16,-1.37l1.43,-0.3l0.63,-0.89l1.3,-0.7l0.87,0.6l1.26,-0.16l0.5,-1.67l0.88,0.35l0.96,1.37l-0.07,1.15l1.02,-0.09l1.2,0.84l1.34,-0.98l0.85,0.31l0.35,2.15l-1.61,1.91l-1.34,2.04l0.59,6.36l-2.03,0.1l-1.17,0.6l-0.34,0.72l0.74,2.64l-0.58,1.17l1.19,2.29l-0.08,2.04l0.99,0.78l0.52,2.25l0.67,0.4l-0.11,3.55l-2.01,0.3l-0.92,1.84l-0.12,3.24l0.36,2.64l2.09,0.3l0.79,1.97l5.31,-1.17l0.79,-1.08l-0.17,-1.44l-1.4,0.53l-0.25,-0.75l0.78,-3.32l0.89,-0.81l1.64,-0.59l0.48,-1.32l-0.79,-2.22l-1.73,-1.14l-0.29,-1.3l-2.38,-1.74l0.35,-1.61l1.26,-1.19l1.17,0.35l1.65,-0.9l1.2,0l0.77,-2.33l1.29,1.14l0.21,2.02l0.78,0.87l0.92,0.15l0.5,0.83l-0.22,1.36l2.55,1.54l0.51,1.31l-1.65,4.03l0.1,1.18l1.9,0.68l-0.53,1.73l0.05,2.42l-1.55,2.83l0.81,1.21l-0.59,1.17l-2.13,1.34l-1.44,1.83l0.18,2.56l0.93,1.05l0.12,3.02l1,-0.03l0.86,0.92l-0.04,2.74l0.67,0.78l0.75,-2.67l2.48,-1.65l0.55,-1.94l1.52,-0.38l0.24,1.77l0.84,1.64l0.27,1.32l1.78,0.94l0.87,-0.79l3.08,-1.67l1.41,0.49l0.68,-0.28l1.29,1.25l-0.56,1.42l0.2,0.74l2.56,1.03l2.19,1.45l0.54,1.18l1.48,-0.01l0.78,-0.81l0.42,-1.25l-0.04,-2.72l1.21,-2.56l1.08,0.33l0.31,1.51l1.87,0.65l1.93,1.98l0.75,-1.54l1.07,-0.6l-0.15,-1.66l-1.36,-2.27l-0.36,-1.97l0.57,-1.55l1.21,-0.36l1.75,-2.31l-0.27,-0.75l0.99,-1.09l1.36,-2.95l-0.33,-1.71l1.23,-1.31l0.08,-0.73l-1.23,-1.02l0.58,-0.65l0.79,-2.15l0.04,-2.04l0.33,-0.76l-0.27,-1.78l1.01,0.33l0.06,-1.93l1.04,-0.14l0.38,-1l-0.39,-0.84l0.84,-0.87l0.58,-2.22l2.23,-1.41l1.7,0.9l0.27,-0.43l3.56,-2.04l0.15,1.34l-0.9,0.28l-0.52,2.13l0.09,1.29l-0.46,2.22l0.7,4.04l0.03,1.49l1.19,2l1.03,0.28l-0.29,1.91l-1.57,2.62l0.63,3.01l-0.2,0.59l1.17,0.66l1.13,1.41l-0.25,1.79l1.08,0.54l0.8,-0.27l2.44,-2.17l2.08,1.34l-1.02,1.81l0.68,0.33l0.6,-1.04l1.04,-0.34l2.14,0.96l-1.1,0.14l-1.36,1.42l-0.58,2.22l-1,0.7l0.27,1.63l-1.3,1.72l-0.5,2.04l0.26,2.11l-0.13,1.43l-0.56,0.49l0.22,2.06l-0.95,1.87l-0.25,1.46l-1.04,1.41l-0.21,2.55l-0.67,0.89l-0.58,5.5l0.67,0.31l0.53,-1l1.28,-0.6l0.88,-2.43l1.17,0.23l2.21,1.79l0.81,1.62l-1.32,3.01l-2.15,0.47l-1.93,1.7l-0.14,2.6l-1.23,0.37l-0.5,1.21l1.13,3.14l0.1,1.9l-0.28,1.29l0.82,1.53l-0.26,1.26l0.38,2.19l1.47,-0.19l-1,1.37l1.75,2.24l-0.5,2.41l0.23,2.59l-1.07,1.14l0.92,0.18l-0.75,0.93l0.47,0.86l1.11,0.61l1.35,1.41l-0.12,1.85l1.41,0.87l-1.13,1.98l2.48,-0.52l0.27,0.59l1.77,-0.42l0.39,1.35l1.1,1.34l2.52,1.25l1.28,1.66l-1.15,0.69l-0.2,0.67l0.79,2.26l0.52,2.83l-0.08,0.98l-1.68,4.38l1,2.55l-0.26,0.68l-1.24,-0.28l-1.16,1.75l-2.69,-0.26l-2.43,1.84l-4.99,5.21l-1.27,1l-0.88,1.32l0.37,5.16l-0.66,1.31l-1.27,-0.09l-3.84,0.81l-0.21,-1.43l-2.01,-1.16l-0.77,-1.45l-1.08,0.05l-1.19,1.69l-2.11,2.34l-1.01,0.17l0.3,-3.23l-0.5,-0.81l-0.95,-0.01l-1.94,2.53l0,1.28l-0.98,-0.78l-0.35,0.74l0.62,0.77l0.87,-0.37l0.4,-1.25l0.88,-0.6l0.31,1.58l-1.34,1.58l-1.11,0.62l0.83,1.53l-1.02,2.6l0.43,0.62l-0.38,1.19l-0.75,-0.37l-0.5,0.73l0.25,1.59l-1.63,0.76l-0.56,-0.48l-1.05,1.51l-0.91,-0.51l-0.7,-1.22l-0.72,0.7l0.91,3.13l-0.02,1.4l-0.78,0.83l-0.45,1.5l-1.59,-0.75l-1.25,1.47l-1.03,0.37l-1.13,-0.39l-0.27,1.81l-1.51,1.34l-0.48,1.25l-1.13,-0.07l-0.41,0.96l-3.08,1.72l-0.53,1.29l1.61,0.59l-0.62,0.77l0.99,1.68l-0.34,0.61l0.06,1.79l-1.22,0.4l-0.83,2.85l-1.67,1.72zm-90.86,-26.46l1.13,1.41l-0.05,0.96l-1.46,-0.08l-0.86,-1.47l0.2,-0.76l0.34,-0.1l0.41,0.01l0.29,0.03z" fill="#77dddd" id="svg_8" stroke="#8cd1ca" stroke-miterlimit="10"/>
   <path clip-path="none" d="m490.33,552.71l-0.95,1.1l-4.59,1.35l-1.28,0.89l-0.44,1.36l-0.89,0.58l-2.26,0.69l-0.53,0.82l-1.63,0.03l-1.76,0.82l-1.53,1.08l-1.99,0.22l-1.51,0.67l-1.07,1.13l-2.48,-0.65l-1.6,0.24l-0.73,0.77l-1.08,-0.11l-1.32,-1.01l-1.2,-0.21l-1.74,2.34l-0.49,1.22l-0.79,0.21l-0.74,-0.63l-2.1,-0.53l-0.72,0.87l0.43,1.2l1.35,1.25l0.32,1.22l1.38,2.63l0.91,0.84l0.51,1.4l-0.09,1.72l0.7,1.33l0.2,1.3l-0.54,1.41l-0.29,3.3l-1.13,1.54l0.26,1.3l-1.67,4.06l-1.91,-0.56l-0.62,0.76l-0.42,2.46l-0.49,0.91l-1.37,0.59l-0.51,1.38l-1.53,1.02l-1.24,0.09l-1.71,1l-1.76,1.65l-0.08,1.36l-0.66,2.2l-1.51,2.91l-0.83,-0.23l-2.27,-1.88l-0.4,-1.53l-2.25,-2.02l-0.83,-1.32l-0.62,-1.98l-0.42,-2.61l-3.48,-0.06l-1.19,0.31l-1.07,-0.96l-1.57,0.12l-0.76,1.58l-2.67,1.74l-2.08,0.18l-0.96,-0.41l-2.72,-1.94l-0.69,-1.83l-1.98,-0.94l-1.2,-1.63l-1.82,-1.63l-2.57,-0.89l-2.62,0.43l-2.28,-0.63l-1.1,-1.05l-0.63,-2.27l-1.6,-0.48l-1.67,1.28l-2.67,-0.15l-1.98,-0.38l-2.42,-0.98l-0.4,-0.91l-0.04,-2.09l-0.78,-1.7l-1.27,-0.72l-1.35,-3.15l-0.76,-4.12l-0.5,-1.39l-1.41,-1.11l-3.41,-1.36l-2.46,-0.24l-2.5,1.27l-0.47,0.88l-2.36,0.3l-2.71,-0.69l-1.36,-0.09l-0.74,-1.49l0.6,-1.77l-1.18,-1.4l-1.57,0.22l-0.34,-1.91l-1.49,-0.05l-0.24,-1.76l-1.57,0.08l-1.64,1.16l-2,3.33l-1.1,-0.73l-1.22,0.41l-0.68,1.9l-1.53,0.85l-0.81,1.03l-2.36,1.81l-0.45,2.73l-2.96,2.75l-0.18,0.92l0.45,1.46l-0.38,2.49l-1.03,2.31l0.7,2.53l-0.08,0.95l-1.53,0.31l-3.24,1.86l-7.81,2.19l-2.22,1.64l-0.89,1.15l-0.54,3.65l-1.74,3.17l-1.78,0.73l-1.16,-0.16l-0.7,0.74l-3.65,1.09l-1.22,1.24l-0.74,3.11l-1.31,0.51l-1.92,-0.75l-0.94,-1.07l0.43,-1.64l-0.53,-0.44l-2.99,-0.94l-3.11,-0.29l-0.39,-0.25l-2.73,-4.36l-0.54,-1.79l-1.84,-0.47l-1.48,-1.72l-2.74,-0.45l-0.07,-0.68l1.29,-2.37l-0.18,-1.14l0.42,-1.61l-0.74,-1.94l0.41,-1.46l-0.16,-1.12l2.12,-3.15l0.81,-0.63l1.5,-3.61l0.88,-1.45l1.12,-0.99l0.98,-0.2l1.57,-1.25l0.31,-1.79l1.19,-2.05l-0.01,-0.71l1.19,-1.35l-0.05,-1.51l2.22,-1.48l-0.17,-1.32l1.45,-1.16l1.15,-0.18l-0.57,-1.74l-0.59,-3.28l-1.58,-2.32l-0.94,-0.46l-2.04,-0.05l-1.51,0.53l-1.54,-0.75l2.6,-0.12l2.23,-0.64l1.45,-1.19l-0.01,-2.43l0.64,-0.9l0.3,-2.57l2.06,-2.19l0.05,-1.48l1.27,-1.89l0.22,-1.81l-0.95,-1.68l0.69,-1.16l0.84,-0.2l0.92,-1.06l1.55,1.33l0.95,2.25l0.97,0.9l1.61,2.2l1.3,0.19l0.41,-1.4l-1.35,-2.38l0.68,-1l-0.72,-2.19l0.18,-1.99l1.68,-0.67l-1,-3l-1.07,-0.22l-0.87,1.16l-0.77,-0.4l-0.8,-1.66l-1.27,-0.82l-1.15,0.08l0.28,1.19l-2,-0.19l-0.57,-0.72l-1.9,-1.02l-0.16,-1.8l-3.44,0.34l-0.86,1.08l-1.97,-1.25l-0.09,-0.51l1.2,-0.76l-0.67,-1.43l0.15,-3.43l-0.14,-1.63l0.84,-0.4l0.44,-1.79l0.47,-0.43l1.83,1.89l0.61,1.86l-0.25,1.84l0.43,0.57l1.69,-0.81l4.18,-0.67l2.72,0.4l3.6,-0.6l1.11,-0.87l1.48,-2.36l1.97,2.06l1.51,-1.37l0.18,-0.75l-0.74,-0.79l-1.11,-0.16l-1.25,-0.98l-0.5,-2.39l0.01,-1.46l0.89,-3.58l1.19,-2.24l1.89,-2.43l1.91,-4.59l-0.13,-3.02l0.24,-1.13l-1.08,-0.87l-1.37,0.04l-0.77,-1l0.17,-3.05l-0.49,-1.43l-1.27,-1.73l-0.15,-0.9l0.87,-1.44l2.37,-2.16l0.5,-1.1l0.73,-3.73l-0.42,-2.64l-2.52,-4.31l-0.73,-3.82l0.26,-0.67l0.03,-3.2l1.11,-2.06l0.33,-1.88l1.18,-1.41l0.94,0.21l2.06,-2.24l1.36,-0.51l0.09,-3.62l-0.39,-1.14l0.64,-1.66l-1.37,-1.07l-0.61,-1.49l0.99,-2.94l-0.05,-1.33l0.9,-3.19l0.56,-1.13l0.41,-4.45l1.03,-1.34l0.55,-1.35l1.09,-0.27l2.21,-2.89l-1.12,-3.66l0.43,-1.54l1.37,-1.98l1.27,-0.93l1.83,-2.05l1.05,0.49l0.23,0.78l2.35,0.5l1.27,-0.77l1.91,0.08l1.3,1.68l1.87,-3l2.74,0.09l0.03,1.28l-0.98,0.62l0.3,1.15l-0.52,3.77l1.28,1.99l0.48,2.41l-0.49,2.17l1.92,2.71l1.03,2.8l0.72,3.27l0.79,1.38l1.28,0.76l0.41,-0.73l0.57,-0.3l0.26,1.6l-0.74,2.91l1.08,1.81l1.79,0.78l1.47,2.47l1.31,1.62l1.95,1.25l1.17,0.02l1.73,-0.54l0.93,1.24l-0.36,4.52l0.51,2.64l1.24,1.91l2.62,2.69l0.94,0.11l1.08,1.24l1.3,2.2l2.86,1.66l0.91,1.81l1.92,2.22l1.52,2.48l1.56,0.03l1.75,-2.22l1.01,0.02l4.24,4.23l1.48,0.69l2.5,0.51l1.47,0.97l0.77,1.05l1.65,5.03l1.23,1.34l1.2,3.7l1.62,1.16l0.59,2.47l2.57,5.68l0.29,3.73l2.68,0.94l1.8,1.2l4.01,2.31l1.57,1.32l1.35,-0.9l0.1,-0.85l1.7,0.51l1.11,-0.73l-1.16,-1.34l0.41,-1.31l-1.37,-1.45l-0.35,-2.56l0.35,-0.98l1.77,-1.64l4.32,-3.31l1.08,-1.72l-1.11,-1.59l-1.12,0.5l-0.67,-0.78l0.12,-1.04l0.76,-0.84l0.76,-1.87l0.24,-1.88l0.81,1.95l-0.35,1.58l0.48,1.86l2.88,-0.12l1.31,1.11l1.16,0.34l0.7,-1.78l-0.18,-1.13l0.92,-0.21l1.1,-1.88l0.71,0.21l-0.34,1.19l1.56,1.2l0.64,1.59l-0.92,2.27l0.63,0.74l-0.85,0.87l-0.66,-0.38l-1.46,0.49l0.03,0.97l2.13,2.12l1.83,-0.43l2.28,3.37l-1.18,0.87l0.45,2.92l1.23,0.01l1.38,-1.43l0.34,-1.93l0.57,0.45l-0.18,1.57l1.46,0.38l1.22,-1.01l0.7,1.89l0.85,1.36l1.01,3.3l0.68,3.01l2.45,-0.96l1.1,-0.03l2.97,1.44l0.85,1.07l1.78,3.04l0.76,0.43l1.31,-0.23l3.38,-1.48l1.61,0.11l1.85,0.62l0.32,1.54l-0.25,1.52l0.38,1.42l1.85,0.41l1.26,-0.1l0.75,0.72l1.74,3.4l0.53,3.3l0.65,2.3l0.14,2.16l0.85,1.27l-0.91,2.06l-2.78,1.89l-0.9,1.25l-1.05,0.12l0.55,1.4l0.71,0.63l0.33,-0.93l1.42,1.08l0.11,0.81l1.73,2.08l1.47,2.49l0.36,1.55l0.8,0.53l0.48,1.14l-0.23,1.58l-0.91,1.83l0.34,0.37zm-135.26,18.06l1.58,-1.69l0.13,0.55l-1.02,1.19l-0.69,-0.05z" fill="#ffd4aa" id="svg_9" stroke="#666" stroke-miterlimit="10" transform="matrix(1 0 0 1 0 0)"/>
   <path clip-path="none" d="m629.03,271.94l0.43,-1.76l3.71,-0.69l1.96,-0.04l1.65,-0.98l2.83,0.91l1.71,-0.25l0.99,1.29l0.77,1.84l1.6,1.56l1.19,-0.6l0.76,-1.96l0.46,-2.74l1.33,-3.37l1.12,-0.93l1.34,-0.33l3.15,2.26l1.51,0.41l2.19,-0.82l1.48,0.35l1.46,-1.17l1.74,-2.36l3.1,-2.46l1.94,-1.26l1.43,-2.09l1.2,-0.18l0.79,0.62l1.48,0.25l1.6,1.51l0.69,-0.37l0.5,-1.68l1.89,0.58l0.63,-2.45l1.3,-3.6l1.11,-1.61l1.52,-0.07l1.49,1.05l1,-0.8l1,-3.56l0.8,-1.21l1.12,-0.69l0.88,0.26l2.05,1.5l1.97,0.34l2.42,-1.66l1.39,0.31l2.54,3.26l0.86,0.73l0.05,1.59l1.41,0.19l-0.22,-2.21l1.71,-0.21l1.42,0.39l0.74,-0.41l1.78,0.47l0.9,0.81l0.44,-0.48l-1.26,-2.38l0.92,-0.74l1.01,0l-0.24,1.36l1.86,-0.04l2.02,0.47l1.1,0.67l1.14,0l1.89,-2.89l0.97,-0.07l1.17,1.66l2.07,0.55l0.26,0.77l-1.81,2.21l-0.15,1.26l0.82,0.93l2.49,-0.36l0.42,1.55l1.45,-0.14l1.36,0.92l1.22,1.97l0.17,1.06l-1.22,3.06l-0.33,1.99l-1.11,0.34l-4.19,-0.68l-1.59,0.7l-0.76,0.89l-1.87,-0.55l-0.68,0.33l-0.93,2.26l-1.59,0.14l-0.13,-1.84l-0.62,-0.91l-0.85,-0.15l-0.85,0.62l0.7,1.2l-1.67,0.11l-0.33,1.14l0.34,1.06l1.36,1.69l0.47,1.85l-0.81,3.76l-1.33,1.16l-0.43,3.77l-1,0.11l-0.62,1.38l0.37,0.75l-1.72,0.63l-0.56,1.42l0.31,0.8l3.37,1.16l0.55,1.65l1.06,1.1l0.04,1.63l0.96,1.47l1.58,1.07l0.19,1.38l0.04,1.09l-0.82,0.77l-0.5,-0.95l-1.27,-0.12l-0.53,2.36l-0.79,-0.31l-1.75,1.15l-1.85,-1.16l-1.43,1.92l1.08,0.55l2.57,2.62l0.92,-0.64l0.44,0.63l-0.16,1.26l1.01,2l1.3,0.12l0.82,1.85l0.11,1.23l-0.53,0.82l1.14,-0.38l1.47,-1.76l1.68,-0.27l-0.34,-0.86l0.57,-0.48l0.04,2.51l1.44,-0.26l1.43,-0.87l-0.09,-2.27l-0.74,-0.06l-0.25,-0.92l2.23,-1.22l2.38,-2.45l1.69,-0.77l0.8,-0.82l0.26,-1.13l1.28,-1l0.31,0.71l1.68,-0.03l0.78,-1.51l0.47,0.74l1.26,-1.5l1.58,0.05l1.33,-0.89l1.08,-0.02l1.04,0.7l-0.28,0.96l-1.13,0.61l-0.92,1.59l-0.76,2.95l2.76,0.49l0.99,-1.07l1.24,0.2l0.88,0.77l1.09,-2.68l0.97,0.62l0.98,-1.13l2.54,-3.9l1.49,-3.34l0.86,-0.54l0.88,0.36l0.64,2.34l1.53,0.6l1.73,-1.02l3.39,-0.48l-0.13,-1.21l2.35,-0.52l1.43,0.64l0.39,-0.96l0.61,1.45l0.8,0l-0.03,-1.53l0.75,-0.44l-0.05,0.9l1.41,-0.18l1.19,3.48l1.21,0.99l0.7,-0.3l0.87,-1.6l1.42,-0.2l-0.31,2.44l-0.92,0.9l-0.16,1.47l0.89,0.21l-0.73,1.34l0.6,0.45l1.55,-0.07l-0.1,1.23l-2.52,0.22l1.29,0.59l1.76,1.36l0.85,-1.07l-0.88,-0.62l0.29,-1.4l0.81,-0.09l0.62,0.82l1.26,0.03l-0.76,0.58l0.79,0.99l-0.08,2.1l0.66,0.74l0.08,1.35l1.45,1.71l-0.06,2.35l-1.07,0.28l-0.16,1.84l0.87,0.31l0.93,-1.24l0.78,4.72l-2.01,1.04l-0.65,1.59l-1.18,-0.61l-1.96,1.21l-0.85,0.94l-1.17,0.3l-1.27,1.17l-1.09,0.27l-0.95,0.89l0.19,1.9l0.6,0.71l-0.79,1.32l1.52,-0.08l1.34,3.74l0.9,0.25l0.95,8.74l-3.07,-0.14l-1.52,0.75l-1.88,1.94l-0.35,2.19l-0.65,0.3l-2.42,-0.95l0.44,1.92l-1.22,0.89l-0.75,1.11l-0.94,0.37l-1.82,-0.85l-1.55,-0.22l-1.94,0.65l-0.52,-0.6l-0.86,0.34l0.31,1.12l1.61,3.32l2.81,2.12l1.97,-1.6l0.87,3.2l1.35,1.37l0.56,2.22l0.62,0.53l-0.39,1.56l0.29,0.73l-0.45,1.4l1.27,0.01l-0.36,0.57l0.83,0.78l0.45,2.89l-0.42,0.93l-2.12,1.4l0.35,3.12l-2.01,2.21l-0.15,1.21l1.74,0.56l-0.7,1.54l-1.18,0.14l-3.2,2.55l-0.69,1.17l-0.56,2.66l-1.37,3.65l-0.6,2.86l-1.43,0.67l-0.56,1.54l0.29,1.54l1.07,2.45l1.1,-0.17l0.83,0.81l1.74,0.05l-0.15,0.98l1.07,0.73l0.47,1.58l1.37,-0.15l1.77,-1.62l1.69,0.14l0.96,-0.83l1.84,-0.63l0.82,0.26l1.21,-0.4l0.08,-1.52l1.56,-1.48l0.56,-0.04l1.01,1.87l-1.74,1.97l-0.46,2.37l-1.29,3.22l1.19,3.65l1.5,0.81l0.2,0.85l-1.05,0.29l1.17,3.02l-0.4,0.95l1.19,2.1l1.34,0.07l0.07,-0.95l0.92,2.31l0.86,0.74l-0.13,1.6l-0.81,2.33l-2.79,-0.27l-1.37,0.69l-0.95,-1.04l0.12,3.23l-0.32,0.53l0.59,2.22l1.17,0.67l1.21,0.11l0.32,2.27l-1.33,3.65l-1.32,1.14l-4.31,3.02l-0.15,0.78l1.8,0.74l0.56,0.92l0.22,1.94l-0.81,1.99l-1.17,1.35l-1.55,0.66l-0.51,1.14l-0.25,2.56l-1.4,2.19l-0.44,1.33l-0.95,0.83l-0.93,-0.35l-0.91,0.63l-0.21,2.83l0.25,1.08l-0.32,1.62l-0.68,0.68l0.47,1.52l-0.59,1.33l0.99,0.77l0.29,1.05l-0.13,1.9l-2.36,-0.18l-0.1,1.39l-1.62,0.98l-1.52,0.03l-2.26,-0.73l-0.15,-1.1l-0.67,0.04l-1.26,-1.01l-1.59,-0.05l-0.97,-0.44l0.23,-0.91l-0.41,-3.31l0.15,-1.77l-1.27,-1.5l-1.66,-0.6l-0.87,1.07l1.51,0.93l-0.4,0.86l1.23,0.94l-0.78,1.41l-2.21,0.53l-0.37,1.79l-0.66,0.36l-1.5,-2.64l1.08,-1.79l-0.02,-2.26l-0.79,-1.27l-1.61,-0.5l-2.18,0.89l0.32,0.9l-0.99,-0.09l-0.67,0.9l-0.25,1.49l-2.79,-1.73l-1.58,-0.42l-1.37,0.38l-0.46,1.43l-1.33,-0.62l-0.76,0.69l0.98,2.3l-0.97,-0.31l-0.95,2.22l-1.44,0.02l-0.44,0.63l0.38,0.95l-0.91,0.22l-1.28,-1.17l-0.99,0.94l-1.72,0.98l0.07,0.8l-1.49,0.53l-0.11,1.34l0.49,2.64l1.81,0.57l0.92,-0.8l1.79,0.94l0.91,-1.84l1.54,-1.13l0.88,-2.53l1.64,-0.49l0.17,-1.48l2.57,1.71l0.6,-0.23l0.55,-1.65l1.22,-0.05l-0.14,0.74l2.33,1.44l-0.68,1.56l0.31,1.8l-1.66,1.76l-0.75,2.4l-0.62,0.46l-0.1,2.25l-1,1.18l1.45,1.34l-0.4,1.24l0.37,4.27l0.55,1l1.46,0.62l0.74,1.1l1.21,0.45l-1.05,1.66l-0.99,-0.31l-1.06,1.65l-1.06,-0.31l-1.79,1.94l-1.32,-0.84l-2.01,-1.81l-1.58,0.24l-0.04,-1.35l-1.88,-1.73l-1.36,0.35l-0.58,-0.35l-1.75,1.58l-1.46,0.36l-0.81,-0.5l0.14,-1.43l-1.33,0.37l-0.84,-0.65l-1.48,0.49l0.41,0.78l-2.4,0.2l-0.36,-0.41l-1.29,2.97l-1.19,-1.47l-0.19,-1.08l-0.84,-1l-0.73,0.04l0.52,-2.23l1.15,-0.48l-0.4,-2.25l-1.37,-0.98l0.59,-2.38l-0.24,-0.93l-1.74,-0.48l-0.33,-0.71l-3.62,0.41l-0.84,1.38l-1.01,-0.26l-1.38,0.29l-0.62,2.17l0.69,0.2l0.07,1l-0.63,1.28l-1.03,-0.51l-1.11,0.67l-0.1,1.42l0.56,1.39l-0.72,1.32l2.73,2.07l0.3,2.05l-0.75,-0.27l-1.39,-1.4l-0.44,0.78l-0.79,-0.51l-2.04,1.4l-0.14,1.31l-0.86,0.69l-0.1,1.27l-1.29,0.09l1.01,0.97l0.21,0.95l0.74,-0.15l0.46,1.69l-1.11,-0.45l-0.92,-1.45l-1.19,3.1l0.13,2.8l-1.18,1.39l0.77,1.73l1.69,0.04l0.79,2.19l0.15,1.56l-0.8,1.44l1.38,3.74l-0.49,1.45l0.03,2.03l-1.06,-0.22l-2.33,-3.19l0.5,-1.53l-0.8,-2.31l-2.2,-1.01l0.15,-1.29l-1.89,-2.41l0.04,-0.55l-1.89,-1.29l-1.22,0.49l0.25,-1.79l-0.61,-0.53l-0.66,-1.86l-1.13,-1.07l-1.55,-0.32l-0.8,0.57l-1.89,0.55l-0.91,1.7l-1.36,-0.87l-0.37,-2.3l-1.38,-3.72l-0.73,-0.89l-1.05,-0.27l-2.05,-1.6l-0.73,-1.41l0.07,-1.05l-0.74,-0.53l-2.62,0.73l-1.27,1.35l-1.1,-0.49l-0.79,-2.7l-0.15,-1.45l0.49,-1.26l-1.45,-1.85l-1,-0.73l-1.29,0.32l-0.4,-2.11l0.41,-2.24l-0.91,-0.98l-1.1,0.9l-0.79,1.26l-1.89,0.04l-1.44,-0.7l0.42,-3.29l-0.44,-0.74l-1.48,-0.98l0.31,-2.39l-0.99,-3.38l-0.81,0.77l-1.29,-0.05l-0.51,0.75l-1.43,0.46l-0.45,0.89l-1.06,0.11l0.28,-2.21l-0.41,-0.8l0.14,-1.75l0.37,0.17l-0.57,-3.14l0.99,-1.48l-0.31,-1.45l-1.63,-0.78l-0.43,-1.54l0.98,-3.57l2.91,-2.45l-1.47,-1.06l0.16,-0.79l2.31,-2.8l0.39,-1.16l1.2,-1.02l-0.45,-1.57l-0.49,-0.22l-0.35,-1.91l1.4,-0.67l1.4,-2.08l0,-2.23l1.36,0.16l0.79,-0.52l0.75,0.42l1.06,-1.05l0.28,-0.94l0.98,-0.36l-0.43,-0.95l0,-2.73l0.63,-0.75l-0.68,-0.32l1.16,-1.98l0.95,-0.65l-0.21,-1.56l-1.14,0.38l-0.27,-1.24l0.7,-1.33l-0.2,-1.01l-1.28,0.11l-0.64,1.69l-1.93,2.33l-1.12,0.27l-0.87,-0.6l-0.41,-3.73l0.9,-0.35l-0.14,-0.89l-1.12,-0.64l-0.61,-1.45l-1.39,0.27l0.12,1.25l-0.7,0.36l-0.69,-0.71l-0.99,1.69l-3.42,-0.68l-1.16,0.43l-1.94,-0.45l-1.29,-1.05l-1.46,-0.37l-1.12,1.35l-1.22,-0.38l-1.34,0.36l-0.19,1.01l-0.9,-0.47l-0.57,1.91l-0.36,-0.38l-0.03,-1.94l-1.2,0.05l0.43,-0.74l-1.42,-0.7l-0.56,-1.32l-0.83,-0.81l-0.06,-1.26l-0.75,-0.9l-1.83,0.91l-0.81,-0.65l-1.69,-2.29l-1.1,0.38l-0.33,3.26l-0.42,1.54l-0.96,0.44l-1.38,-0.6l-1.48,-1.67l-0.72,-1.42l-0.43,-2.24l-1.8,-1.21l-0.68,-0.96l0.16,-1.36l-0.63,0.47l-0.12,-1.15l-0.84,-0.34l-0.03,1.12l-0.73,0.29l0.3,-5.74l0.43,-0.35l1.38,-4.58l1.09,-2.71l0.71,-3.33l0.01,-1.1l-1.67,-1.03l-2.78,-0.15l-0.96,0.27l-1.42,1.51l-2.27,0.69l-1.82,1.96l-1.49,0.52l-0.43,-0.58l-0.17,-1.89l-0.57,-2.08l-1.03,-2.27l-0.74,-0.85l-2.41,-1.52l-0.24,-1.07l-2.63,-0.71l-1.49,0.84l-0.97,1.42l-0.89,-1.77l0.02,-2.32l-0.58,-3.71l-1.14,-0.94l-3.76,1.36l-1.71,0.4l-1.61,2.85l-1.6,0.55l-2.45,-0.58l-1.73,-1.72l-2.78,-1.2l-2.2,-3.05l-0.88,0.19l-0.46,-1.63l1.19,-0.48l-0.23,-1.02l1.95,-1.28l2.15,-2.9l0.08,-0.83l-1.12,-0.95l-1.81,-0.19l-0.65,-1.68l0.12,-1.75l1.39,-0.84l-0.28,-0.87l0.63,-0.97l1.5,1.01l0.71,-0.77l1.62,0.87l0.34,0.65l1.86,-0.24l-0.42,-1.71l1.81,-0.53l0.89,0.79l-0.11,-1.81l0.72,0.18l-0.12,-1l1.09,-0.03l0.51,-0.82l1.67,0.21l-0.56,1.73l0.15,2.03l1.55,0.03l0.28,-2.06l0.69,-0.16l0.23,0.92l1.08,0.68l0.94,-0.65l0.02,-1.47l0.84,-0.57l1.43,0.07l1.01,-1.98l0.74,-0.17l0.92,-1.82l1.1,-0.05l0.96,-0.88l-0.01,2.62l1.42,0.9l0.74,-1.72l-0.04,-1.43l1.12,-0.34l1.65,0.6l0.67,0.75l1.05,2.69l0.97,0.84l4.21,0.43l2.07,-0.54l0.89,-1.69l-0.52,-1.47l-1.31,-2.08l-0.45,-2.33l-0.66,-1.27l-1.31,-1.05l-0.41,-2.56l-0.2,-3.46l-0.53,-1.45l1.04,-1.4l-0.32,-1.47l1.29,-2.15l0.85,0.16l0.63,-2.14l0.79,-0.01l1.48,-1.9l-0.21,-0.49l1.41,-0.65l0.61,-1.3l-0.43,-2.66l-1.25,0.32l-1.63,-0.68l-0.23,-1.17l1,0.07l-0.12,-0.74l-1.64,-1.61l-2.98,-1.46l-0.25,0.78l0.35,1.8l-0.77,-0.47l-0.25,0.93l-1.12,-0.15l-1.94,0.95l-1.34,-1.12l0.78,-0.94l0.26,-1.65l-0.89,-1.8l-1.01,-0.12l-0.29,-0.98l-1.14,-0.81l-0.91,-1.83l1.46,-2.38l1.39,-3.5l0.64,0.05l2.41,-1.96l0.33,-1.52l-2.42,-5.57l-0.19,-2.58l0.82,-2.17l1.08,-1.4l1.71,0.6l-0.31,-2.46l0.85,-1.08l2.01,-4.29l-0.48,-2.15l-1.38,-2.2l-0.52,-2.15l0.81,-0.55l-1.48,-2.18l-0.79,0.8l-1.08,-0.57l1,-1.21l0.37,-2.2l1.69,-0.09l2.31,0.89l1.93,0.26l1.68,1.06l2.39,-0.05l0.76,1.11l-1.75,0.71l-0.18,1.49l3.13,0.43l2.8,0.19l0.87,-0.75l0.21,0.93l1.03,0.26l-1.92,1.52l-0.58,1.5l2.98,-0.68l0.04,1.72l1.04,1.15l1.81,-0.08l0.42,-0.51l-0.15,-1.58l1.76,0.38l0.5,1.06l2.85,-0.42l0.16,0.56l1.42,-0.31l-0.01,-0.71l-1.02,-0.73l0.62,-4.02l1.84,-0.85l-0.68,-1.35l0.17,-0.63l1.12,-0.08l2.52,-1.4l1.51,-0.37l1.18,-1.11l0.6,-2.44l-0.66,-1.44l-1.96,-0.62l-0.77,-1.46l-0.35,-2.07zm136.4,55.2l0.38,-1.43l1.52,-1.44l0.12,-1.2l1.19,-0.13l0.37,1.47l2.16,1.17l-0.32,1.1l0.26,3.16l-1.49,2.15l0.02,0.97l0.96,1.77l0.92,2.66l-0.06,2.78l0.49,1.06l-1.64,0.58l-0.22,-1.64l-1.47,-0.3l-0.95,-8.74l0.52,-0.89l-1.42,0.64l-1.34,-3.74zm11.71,13.79l0.28,-0.5l-0.31,-1.87l1.82,1.24l-1.64,2.49l-0.08,0.94l-0.93,0.89l-1.39,0.4l-0.58,0.64l-0.09,-1.65l-1.68,-1.31l0.54,-0.38l1.86,1.16l0.71,-0.87l-0.33,-1.56l1.16,0.85l0.66,-0.47zm-158.91,-50.98l-0.18,-2.05l0.35,-0.35l1.73,0.27l1.53,-1.71l0.15,-0.81l2.7,0.46l-0.62,4.02l-0.58,-0.82l-0.9,0.52l0.22,1.08l0.71,0.41l-2.85,0.42l-0.5,-1.06l-1.76,-0.38z" fill="#7f7f7f" id="svg_10" stroke="#666" stroke-miterlimit="10" transform="matrix(1 0 0 1 0 0)"/>
   <path clip-path="none" d="m486.9,402.21l1.43,0.59l-0.06,1.57l1.18,-0.51l0.24,1.24l-1.41,1.84l1.17,0.52l1.29,-1.32l0.58,0.56l3.23,-0.88l0.12,1.02l0.61,-0.21l1.52,0.87l0.38,-1.1l1.05,-0.57l0.75,0.33l1.39,-0.56l0.5,-1.08l-0.51,-3.32l0.76,-0.45l1.09,0.7l2.97,-2.63l0.69,-0.32l1.51,0.53l1.75,1.33l1.81,-1.43l0.86,0.93l0.18,1.98l1.68,0.5l0.91,-0.84l1.34,-0.18l-0.57,1.31l0.66,0.52l0.18,3.92l1.85,2.28l0.85,1.99l0.86,0.72l2.1,-0.43l0.77,-1.11l0.49,-1.63l1.37,-0.61l0.11,-1.32l-0.46,-0.58l-2.12,-0.88l-0.16,-1.01l1.23,-2.83l1.39,-0.7l-0.29,-1.59l-0.94,-0.39l-0.43,-1.25l0.7,-0.53l-0.14,-1.49l-2.18,-0.08l-0.96,1.31l-1.04,-0.39l-4.2,-0.71l-0.2,-1.02l3.26,-2.41l0.79,-0.97l-0.17,-2.47l0.98,-1.42l-0.11,-0.92l-1.84,-0.14l-2.14,1.67l-1.17,0.03l-2.04,-2.22l2.6,-4.37l0.46,-0.46l2.23,0.05l0.55,-0.54l-0.61,-1.7l1.53,-0.64l0.08,-0.83l-1.91,-1.66l-0.39,-0.97l0.29,-1.21l1.35,-1.31l1.4,-0.75l0.53,-1.33l-0.43,-1.33l1.19,-1.53l-1.07,-0.31l-0.61,-1.67l0.69,-1.4l1.11,-0.79l2.59,-0.32l1.24,-1.1l1.27,-0.45l0.85,-1.03l-0.42,-2.04l-1.37,-0.58l-1.28,0.14l-0.98,-0.82l0.94,-1.16l1.02,0.02l0.26,-0.81l1.55,-0.52l0.4,0.77l2.06,-1.3l2.13,-0.03l-0.42,-1.6l-0.83,0.49l0.26,-3.54l1.98,-0.74l0.05,-2.27l-0.39,0.21l-0.31,-1.92l1.55,-0.53l-1.48,-0.59l0.18,-1.1l1.29,-1.6l1.24,0.31l1.03,-0.94l0.91,0.33l1.12,-1.63l1.37,-0.15l2.03,-2.33l0.99,-1.86l1.34,-0.05l2,-1.35l1.91,-0.79l1.26,0.23l2.68,-0.09l2.32,1.59l1.83,-0.69l2.61,1.22l1.01,1.24l1.01,-1.37l0.38,-4.76l0.68,-0.43l0.18,-2.43l-0.7,-3.9l-0.44,-0.95l-1.55,-7.55l-0.63,-0.75l-0.73,-3.43l-3.54,-1.48l-0.58,-2.29l-2.37,0.11l-0.03,-1.89l0.72,-3.75l0,-2.77l1.55,-2.76l0.09,-1.03l-1.06,-2.8l0.76,-1.42l2.53,-1.14l2.54,-0.51l1.51,-1.31l0.35,-4.46l-2.59,-2.07l0.18,-1.04l-4.18,-0.24l-3.42,1.11l-1.63,-1.38l0.43,-1.31l1.84,-0.97l0.69,-2.61l1.95,-2.3l1.15,-1.93l0.22,-2.73l-0.43,-2l0.84,-1.95l2.69,-3.58l0.97,-0.45l-0.36,-1.52l1.46,-1.55l0.59,-1.3l0.21,-2.16l-0.18,-2.55l0.8,-0.35l1.24,1.45l1.91,0.61l2.81,0.32l1.23,-0.87l0.68,0.15l-0.37,2.64l1.96,0.21l-0.36,0.89l1.18,0.67l1.33,1.58l0.13,1.51l-2.28,2.22l-0.03,2.69l1.01,0.58l1.42,-0.2l0.65,1.27l0.01,1.27l1,0.08l1.44,-3.77l1.59,0.84l0.64,-0.29l3.12,-0.4l0.61,0.93l0.32,1.87l0.23,4.21l-2.53,2.26l-0.19,2.12l-0.98,0.42l-0.59,1.13l0.48,2.12l-0.24,1.39l1.48,-0.11l1.43,1.33l-0.21,0.89l1,0.89l1.04,1.58l1.23,-0.55l0.11,-1.32l-1.11,-2.37l0.54,-0.85l1.08,2.45l1.1,1.09l0.99,-0.1l1.24,-1.1l-0.42,-1.35l-1.14,-2.09l0.61,-0.62l3.42,-1.14l0.87,-0.08l1.53,1.2l2.26,-1.14l1.28,0.02l-0.36,1.65l-0.56,0.74l0.37,1.12l1.5,0.54l-0.37,2.2l-1,1.21l1.08,0.57l0.79,-0.8l1.48,2.18l-0.81,0.55l0.52,2.15l1.38,2.2l0.48,2.15l-2.01,4.29l-0.85,1.08l0.31,2.46l-1.71,-0.6l-1.08,1.4l-0.82,2.17l0.19,2.58l2.42,5.57l-0.33,1.52l-2.41,1.96l-0.64,-0.05l-1.39,3.5l-1.46,2.38l0.91,1.83l1.14,0.81l0.29,0.98l1.01,0.12l0.89,1.8l-0.26,1.65l-0.78,0.94l1.34,1.12l1.94,-0.95l1.12,0.15l0.25,-0.93l0.77,0.47l-0.35,-1.8l0.25,-0.78l2.98,1.46l1.64,1.61l0.12,0.74l-1,-0.07l0.23,1.17l1.63,0.68l1.25,-0.32l0.43,2.66l-0.61,1.3l-1.41,0.65l0.21,0.49l-1.48,1.9l-0.79,0.01l-0.63,2.14l-0.85,-0.16l-1.29,2.15l0.32,1.47l-1.04,1.4l0.53,1.45l0.2,3.46l0.41,2.56l1.31,1.05l0.66,1.27l0.45,2.33l1.31,2.08l0.52,1.47l-0.89,1.69l-2.07,0.54l-4.21,-0.43l-0.97,-0.84l-1.05,-2.69l-0.67,-0.75l-1.65,-0.6l-1.12,0.34l0.04,1.43l-0.74,1.72l-1.42,-0.9l0.01,-2.62l-0.96,0.88l-1.1,0.05l-0.92,1.82l-0.74,0.17l-1.01,1.98l-1.43,-0.07l-0.84,0.57l-0.02,1.47l-0.94,0.65l-1.08,-0.68l-0.23,-0.92l-0.69,0.16l-0.28,2.06l-1.55,-0.03l-0.15,-2.03l0.56,-1.73l-1.67,-0.21l-0.51,0.82l-1.09,0.03l0.12,1l-0.72,-0.18l0.11,1.81l-0.89,-0.79l-1.81,0.53l0.42,1.71l-1.86,0.24l-0.34,-0.65l-1.62,-0.87l-0.71,0.77l-1.5,-1.01l-0.63,0.97l0.28,0.87l-1.39,0.84l-0.12,1.75l0.65,1.68l1.81,0.19l1.12,0.95l-0.08,0.83l-2.15,2.9l-1.95,1.28l0.23,1.02l-1.19,0.48l0.46,1.63l0.88,-0.19l2.2,3.05l2.78,1.2l1.73,1.72l2.45,0.58l1.6,-0.55l1.61,-2.85l1.71,-0.4l3.76,-1.36l1.14,0.94l0.58,3.71l-0.02,2.32l0.89,1.77l0.97,-1.42l1.49,-0.84l2.63,0.71l0.24,1.07l2.41,1.52l0.74,0.85l1.03,2.27l0.57,2.08l0.17,1.89l0.43,0.58l1.49,-0.52l1.82,-1.96l2.27,-0.69l1.42,-1.51l0.96,-0.27l2.78,0.15l1.67,1.03l-0.01,1.1l-0.71,3.33l-1.09,2.71l-1.38,4.58l-0.43,0.35l-0.3,5.74l0.73,-0.29l0.03,-1.12l0.84,0.34l0.12,1.15l0.63,-0.47l-0.16,1.36l0.68,0.96l1.8,1.21l0.43,2.24l0.72,1.42l1.48,1.67l1.38,0.6l0.96,-0.44l0.42,-1.54l0.33,-3.26l1.1,-0.38l1.69,2.29l0.81,0.65l1.83,-0.91l0.75,0.9l0.06,1.26l0.83,0.81l0.56,1.32l1.42,0.7l-0.43,0.74l1.2,-0.05l0.03,1.94l0.36,0.38l0.57,-1.91l0.9,0.47l0.19,-1.01l1.34,-0.36l1.22,0.38l1.12,-1.35l1.46,0.37l1.29,1.05l1.94,0.45l1.16,-0.43l3.42,0.68l0.99,-1.69l0.69,0.71l0.7,-0.36l-0.12,-1.25l1.39,-0.27l0.61,1.45l1.12,0.64l0.14,0.89l-0.9,0.35l0.41,3.73l0.87,0.6l1.12,-0.27l1.93,-2.33l0.64,-1.69l1.28,-0.11l0.2,1.01l-0.7,1.33l0.27,1.24l1.14,-0.38l0.21,1.56l-0.95,0.65l-1.16,1.98l0.68,0.32l-0.63,0.75l0,2.73l0.43,0.95l-0.98,0.36l-0.28,0.94l-1.06,1.05l-0.75,-0.42l-0.79,0.52l-1.36,-0.16l0,2.23l-1.4,2.08l-1.4,0.67l0.35,1.91l0.49,0.22l0.45,1.57l-1.2,1.02l-0.39,1.16l-2.31,2.8l-0.16,0.79l1.47,1.06l-2.91,2.45l-0.98,3.57l0.43,1.54l1.63,0.78l0.31,1.45l-0.99,1.48l0.57,3.14l-0.37,-0.17l-0.14,1.75l0.41,0.8l-0.28,2.21l1.06,-0.11l0.45,-0.89l1.43,-0.46l0.51,-0.75l1.29,0.05l0.81,-0.77l0.99,3.38l-0.31,2.39l1.48,0.98l0.44,0.74l-0.42,3.29l1.44,0.7l1.89,-0.04l0.79,-1.26l1.1,-0.9l0.91,0.98l-0.41,2.24l0.4,2.11l1.29,-0.32l1,0.73l1.45,1.85l-0.49,1.26l0.15,1.45l0.79,2.7l1.1,0.49l0.21,0.56l-0.58,1.9l-1.71,2.64l-1.89,0.78l-1.9,1.48l-0.43,1.57l1.53,1.37l-0.03,1l-2.46,0.44l0.04,-1.29l-0.46,-1.6l-1.73,-0.21l-0.97,-0.92l-2.83,1.79l-0.46,0.72l0.7,1.45l0.52,-0.55l1.88,1.62l-0.46,0.69l0.71,0.98l-1.01,1.75l-1.64,0l-1.06,-0.4l-1.03,0.52l1.17,1.58l-0.29,3.04l-1.46,1.32l0.11,0.83l1.34,1.52l-0.24,1.75l-1.27,1.57l0.1,2.47l0.59,1.04l-0.81,1.27l-0.09,3.17l-1.13,0.42l-0.64,2.6l-3.22,2.06l-2.53,-0.73l-4.03,0.54l-0.83,-0.16l-1.2,1.22l-1.88,1.12l-1.75,0.46l-2.05,2.3l-1.24,-0.12l-1.63,0.99l-0.04,0.51l-2.37,0.4l-0.42,1.53l-2.44,1.68l-2.1,-1.65l-1.2,0.54l-1.15,1.09l-1.49,-1.08l-0.91,0.9l-0.59,-0.87l1.52,-1.3l1,-2.48l-0.64,-1.97l-2.13,-2.28l-0.34,-1.41l0.54,-3.63l-0.86,-1.5l-1.02,0.09l-2.98,4.6l-0.92,1.16l-0.56,-0.46l0.15,-2.75l-0.53,-1.05l-1.93,-2.03l-0.76,-1.82l-0.33,-4.31l0.99,-1.76l-0.87,-1.11l-1.53,0.18l-1.07,0.59l-1.65,4.15l0.05,1.11l-0.56,0.26l-0.31,1.36l-1.12,-0.95l0.53,1.48l-0.8,0.24l-0.69,-0.88l-2.31,1.15l-0.46,0.92l-1,0.59l-0.18,1.29l-1.87,0.38l-0.3,1.74l-0.49,-1.12l-0.81,-0.13l0.01,0.86l-2.38,-0.06l-0.65,-0.32l0.22,-1.53l-0.44,-0.77l1.89,-5.58l-0.8,-2.94l-1,-0.08l-2.05,1.66l-1.54,-0.2l-0.38,-3.04l-1.83,-4.22l-0.06,-1.64l0.42,-1.57l1.02,-1.39l-0.28,-1.15l-1.73,-0.08l-1.51,-2.11l-0.99,-0.19l-0.81,1.03l-0.24,1.11l-1.01,-0.06l-0.89,-1.02l-2.77,0.12l-0.55,-0.81l-0.06,-3l0.63,0.43l1,-0.63l-0.04,-0.98l0.7,-0.52l-0.25,-3.32l-0.84,-1.42l0.09,-1.11l0.61,-0.14l-1.42,-1.3l-0.54,0.59l-1.09,-2.54l-3.03,-2.84l-2.46,-1.06l-0.7,-1.64l0.54,-2.58l-0.69,-2.44l-1.64,-0.54l-1.07,0.67l-1.17,1.61l-0.19,1.58l-1.81,0.5l-0.5,0.51l-3.6,0.69l-2.71,-0.63l-2.72,1.29l-0.03,2.03l0.98,2.75l-0.42,1.19l-1.36,0.98l-1.49,0.08l-1.94,0.74l-1.09,2.25l-0.34,2.17l-0.7,2.43l-1.36,-0.68l-1.71,1.35l0.48,1.42l-0.1,2.07l0.6,0.31l0.53,2.36l-0.03,1.76l0.7,1.79l2.25,0.6l0.32,1.27l-0.65,4.6l0.56,1.57l-0.32,0.66l0.35,1.87l-2.1,1.53l-0.36,0.92l1.02,1.45l-0.23,0.57l-1.86,0.84l-1.95,-1.67l-2.07,-0.52l-1.9,0.92l-0.84,1.44l-0.36,2.36l0,2.28l-1.12,1.54l-3.34,-0.6l-1.54,0.94l-3.59,1.13l-0.99,-0.05l-1.43,-1.32l-0.72,-0.22l-3.05,2.61l-0.92,0.06l-1.58,-1.79l-1.35,-0.39l-2.22,1.08l-2.11,0.72l-0.57,0.95l0.14,2.78l-1.05,1.71l-1.41,0.63l-1.61,1.44l-0.61,2.14l-1.1,0.51l-2.59,0.11l-1.91,1.29l-0.79,1.58l-0.34,-0.37l0.91,-1.83l0.23,-1.58l-0.48,-1.14l-0.8,-0.53l-0.36,-1.55l-1.47,-2.49l-1.73,-2.08l-0.11,-0.81l-1.42,-1.08l-0.33,0.93l-0.71,-0.63l-0.55,-1.4l1.05,-0.12l0.9,-1.25l2.78,-1.89l0.91,-2.06l-0.85,-1.27l-0.14,-2.16l-0.65,-2.3l-0.53,-3.3l-1.74,-3.4l-0.75,-0.72l-1.26,0.1l-1.85,-0.41l-0.38,-1.42l0.25,-1.52l-0.32,-1.54l1.14,-0.94l-0.62,-2.56l-2.15,-1.89l-0.94,0.55l0.36,-2.21l1.28,0.05l1,-1.63l-0.04,-1.06l-0.78,-1.67l-1.38,-0.32l0.71,-1.26l-0.75,-0.16l0.19,-2.54l0.7,-1.38l1.13,0.14l1.69,-4.02l0.14,-1.46l-0.35,-2.48l0.39,-0.91l3.15,-4.28l1.49,-4.08l0.22,-1.55l-0.93,-0.36l-1.75,-2.04l-2.24,-1.48l-0.87,0.36l-1.36,2.5l-1.03,0.54l-1.17,-0.03l-2.33,-0.9l-1.85,-1.27l-1.71,-0.52l-1.92,-1.37l-0.41,-1.73l0.21,-1.8l0.75,-1.63l-0.29,-0.46l-2.23,0.52l-1.39,1.04l-2.2,2.21l-1.33,-0.5l-0.07,-1.55l2.19,-1.71l0.37,-2.03l-0.25,-3.5l-0.67,-2.78l-0.5,-0.33l0.25,-2.23l-0.34,-2.07l1.68,-1.4l1.15,-2.03l0.16,-2.82l0.74,-0.25l0.23,-1.73l1.18,-1.96l-0.15,-0.7l-1.78,-0.61l-0.1,-1.8l1.23,-0.09l-0.41,-1.56l0.19,-1.53l0.61,-0.56l1.27,-0.01l0.5,-1.39l0.01,-1.45l-1.11,-0.2l0.24,-1.34l-1.2,-0.04l-1.3,-2.13l-1.17,-0.33l-0.43,0.82l-0.9,-1.13l0.38,-0.87l-1.78,1.25l-0.03,-0.64l-0.75,-0.64l1.16,-2.38l0.61,-5.21l1.03,-1.15l0.55,1.24l0.67,0.31l1.6,-1.54l0.08,-1.55l-1.05,-1.77l-1.83,-0.15l0.12,-0.82l1.63,-0.94l0.8,-3.51l0.05,-2.49l0.65,-0.9l0.75,-0.06l-2.42,-2.95l-2.12,0.11l-0.73,-0.29l1.33,-2.25l1.85,0.22l0.31,-0.73l1.63,-0.83l0.76,2.05l1.23,1.81l1.73,0l1.13,-1.08l1.06,-2.9l0.11,-3.47l1.82,-0.28l1.51,0.87l2.54,0.78l5.78,1.1zm-24.67,29.29l0.1,0.53l-1.17,0.31l0.31,-1.41l0.76,0.57z" fill="#d4ffaa" id="svg_11" stroke="#666" stroke-miterlimit="10" transform="matrix(1 0 0 1 0 0)"/>
  </g>
 </g>
</svg>