<svg width="1920" height="1080" viewBox="0 0 1920 1080" fill="none" xmlns="http://www.w3.org/2000/svg" xmlns:xlink="http://www.w3.org/1999/xlink"><style>text{text-anchor:middle;dominant-baseline:middle; font-size:12px;}</style><path d="M258.142 178.215L258.469 179.742L258.301 181.826L257.42 183.305L255.932 185.056L255.403 187.053L253.996 187.795L253.669 188.796L254.917 189.846L257.527 189.003L260.722 189.187L260.585 189.978L262.563 191.559L262.296 194.967L261.144 195.965L259.204 196.356L257.265 197.226L256.689 198.311L257.497 200.452L257.432 201.238L256.241 203.349L256.246 205.464L255.695 208.327L255.721 209.77L257.531 209.691L257.97 211.433L260.675 212.568L261.234 215.187L261.712 215.759L262.899 221.531L263.234 222.254L263.767 225.236L263.63 227.091L263.109 227.417L262.826 231.053L262.051 232.102L261.277 231.15L259.282 230.224L257.888 230.749L256.112 229.533L254.065 229.603L253.106 229.427L251.648 230.026L250.117 231.058L249.094 231.097L248.337 232.517L246.789 234.298L245.744 234.413L244.883 235.656L244.187 235.409L243.404 236.128L242.458 235.89L241.473 237.112L241.331 237.95L242.462 238.404L241.28 238.81L241.52 240.275L241.813 240.116L241.778 241.85L240.265 242.41L240.067 245.12L240.703 244.74L240.776 246.161L239.396 245.985L237.822 246.978L237.517 246.396L236.334 246.788L236.132 247.411L235.349 247.393L234.631 248.276L235.383 248.908L236.364 248.797L237.405 249.243L237.727 250.802L237.078 251.583L236.106 251.928L235.164 252.772L233.182 253.014L232.339 253.62L231.81 254.689L232.274 255.961L233.091 256.2L232.184 257.366L232.511 258.383L232.102 259.399L231.036 259.974L230.003 260.977L229.78 261.896L230.085 262.643L231.543 263.908L231.483 264.54L230.309 265.031L230.778 266.331L230.356 266.742L228.653 266.703L228.305 267.052L226.318 270.391L227.87 272.086L228.769 272.068L230.403 270.794L231.81 270.896L231.896 271.599L231.143 272.688L231.276 274.573L230.67 275.312L228.176 277.153L228.331 277.932L231.543 278.473L232.339 278.774L233.07 277.773L234.734 277.835L234.837 278.968L234.304 279.376L234.635 280.332L235.349 280.633L235.573 281.842L234.515 282.383L233.573 284.539L233.693 285.31L235.315 285.984L235.663 286.427L235.581 287.432L234.536 287.902L234.162 289.147L233.573 289.994L231.964 290.326L231.311 289.772L230.666 288.257L229.251 286.511L229.113 283.521L228.61 283.118L229.04 282.117L228.017 282.259L227.324 282.896L226.038 282.515L225.901 281.005L225.243 280.297L223.862 281.386L222.529 280.372L221.376 279.969L220.843 280.208L218.581 282.219L217.747 281.687L217.166 282.028L217.553 284.566L217.171 285.39L216.108 285.82L215.536 285.563L214.732 285.997L214.444 286.839L213.283 286.179L212.818 286.334L212.724 285.558L210.259 286.232L209.812 285.802L208.832 286.812L207.937 286.413L209.012 285.009L208.832 284.057L207.929 284.447L207.976 283.251L206.879 282.799L206.957 281.678L207.714 281.373L208.126 280.208L209.012 279.628L209.632 278.601L209.49 277.689L210.479 278.034L211.27 277.459L212.337 275.502L211.941 274.794L212.401 273.214L212.38 271.931L211.459 271.52L210.698 271.767L208.991 271.298L207.709 271.533L207.344 270.883L206.251 270.073L206.217 269.082L205.099 267.185L204.368 267.419L204.002 265.455L204.316 265.124L203.86 264.107L203.168 264.076L201.392 265.619L200.583 265.818L198.347 265.402L197.568 264.929L195.504 264.668L195.444 264.213L196.661 263.559L196.695 262.767L197.323 262.564L196.829 261.282L195.238 261.105L194.98 260.544L195.384 258.108L194.666 256.575L193.178 256.01L191.887 254.742L189.505 255.78L188.701 256.35L187.329 256.394L186.469 256.001L185.226 254.826L185.484 254.075L185.024 253.262L185.561 252.953L185.471 251.725L184.297 250.691L183.781 249.221L182.813 248.152L182.289 246.66L181.102 245.764L180.994 244.97L181.605 244.263L183.837 243.818L184.456 242.609L183.781 239.997L183.807 238.197L184.327 235.762L184.409 234.466L183.884 233.513L182.757 232.764L181.041 230.992L181.446 228.263L182.069 226.91L182.744 226.28L184.129 226.025L184.215 225.65L186.193 224.787L187.178 223.443L188.034 222.672L188.817 222.619L189.565 224.584L190.868 225.84L192.085 225.293L193.646 222.232L194.128 222.245L195.801 223.434L196.343 223.448L197.444 222.536L197.698 221.893L197.676 219.805L198.179 218.735L198.708 216.151L199.521 214.443L200.321 213.743L202.205 212.925L203.718 211.525L203.688 210.804L202.678 210.131L201.684 208.301L201.542 206.207L200.686 203.445L200.798 200.566L201.693 197.995L203.585 196.751L204.049 194.387L204.419 194.036L206.234 193.583L208.29 191.783L210.148 190.535L211.743 188.928L214.113 188.204L216.452 185.965L217.416 183.322L219.673 183.375L221.372 182.274L222.456 182.734L223.295 182.669L224.137 183.836L224.791 185.837L224.761 187.769L226.111 188.805L225.294 189.389L224.899 190.975L225.466 191.387L226.576 190.167L226.567 188.533L227.457 188.072L228.868 185.789L229.311 184.556L228.911 183.129L229.062 182.344L230.872 181.234L232.339 181.519L233.517 182.783L234.141 184.679L235.199 186.224L236.145 187.049L237 186.641L237.508 185.574L238.501 184.38L239.017 182.954L240.669 182.353L243.292 178.825L244.157 178.273L245.068 178.15L246.698 178.702L248.427 179.904L250.031 181.396L250.814 181.493L254.504 178.878L255.97 178.137L258.142 178.215Z"  stroke="black" /><path d="M138.883 273.471L137.494 273.975L136.165 275.268L135.73 276.011L135.288 277.729L135.141 279.478L134.118 280.775L134.251 283.02L135.606 284.358L136.354 285.913L137.029 286.471L137.941 285.235L138.556 285.576L138.401 286.648L139.218 286.622L140.371 285.749L141.085 286.396L142.745 285.674L142.732 286.546L143.665 287.871L145.747 288.066L147.759 287.924L149.105 288.678L150.817 290.486L151.638 289.803L152.146 291.594L151.178 292.117L150.636 291.589L149.802 291.687L149.028 292.303L149.097 292.915L148.267 293.744L148.318 294.927L146.658 294.134L145.553 294.293L144.83 292.799L144.177 292.534L143.854 293.11L144.297 294.95L143.695 297.012L143.244 300.759L142.783 301.895L142.078 301.549L140.981 300.431L139.541 300.697L138.104 302.077L136.836 304.136L136.092 304.966L132.78 306.022L131.013 306.288L129.606 306.248L127.835 306.652L126.059 306.137L121.797 307.091L120.205 306.688L119.036 307.047L118.132 308.681L118.537 309.253L118.223 309.808L117.251 309.231L116.64 308.179L116.094 305.676L115.307 303.537L113.841 301.469L114.215 299.81L113.849 297.969L112.873 296.448L113.269 293.566L113.036 292.689L113.789 292.219L113.767 291.244L111.673 291.173L110.245 293.464L109.248 292.183L107.79 292.121L106.818 292.706L105.029 292.325L104.848 291.727L104.044 291.354L102.65 292.923L101.679 293.633L100.629 295.145L100.302 296.32L101.162 299.114L99.4681 301.323L98.6424 301.527L98.2166 302.561L97.4339 303.581L97.1157 306.985L96.6899 307.846L96.006 310.288L96.0448 311.3L95.2878 313.547L95.7524 314.684L96.8017 315.501L96.3113 316.772L96.6039 317.638L96.535 320.406L95.4986 320.793L93.9246 322.504L93.2107 322.348L92.3076 323.419L92.0539 324.855L91.2065 326.429L91.1852 328.875L90.9872 329.391L91.5464 332.309L93.4687 335.601L93.7913 337.612L93.2278 340.466L92.8494 341.302L91.0389 342.959L90.3766 344.059L90.4883 344.74L91.4604 346.067L91.8302 347.158L91.7012 349.484L92.2903 350.25L93.3354 350.223L94.1611 350.883L93.9762 351.747L94.0751 354.051L92.6172 357.564L91.1722 359.414L90.2648 361.131L89.5896 363.861L89.581 364.98L89.9595 366.801L90.9142 367.551L91.7657 367.676L92.329 368.278L92.1915 368.854L91.0345 369.898L89.5337 368.323L88.4026 370.125L87.5555 370.79L84.8031 371.25L82.7302 370.942L79.5349 371.46L78.2447 372.072L77.9135 371.639L78.1071 370.233L77.6384 368.813L76.2449 367.367L75.8837 367.698L75.5482 369.063L74.9032 369.371L74.2065 368.572L72.7657 368.626L70.9897 366.694L71.1573 366.404L69.3038 364.963L68.8091 365.739L67.5492 365.164L67.2309 364.271L67.618 363.375L67.7212 360.944L67.5749 359.12L68.1169 358.179L68.1125 357.073L68.4609 355.313L68.2674 354.207L68.534 353.374L67.9878 352.826L67.5707 353.298L67.8716 354.087L66.2031 353.115L65.5666 353.615L65.0032 354.755L64.4011 354.987L63.2657 356.177L60.836 356.151L60.6037 357.93L59.7607 358.335L59.4469 356.949L58.6125 355.741L59.5414 355.273L59.864 353.726L59.7264 350.375L58.9351 349.577L59.3093 348.406L58.8318 347.582L58.1912 347.515L56.4924 346.548L55.9677 347.457L55.013 348.263L55.0861 346.726L54.4366 346.152L52.6434 346.299L52.2347 345.773L52.3251 344.624L51.1382 343.15L51.8736 342.224L50.9404 341.61L50.7123 340.328L51.1725 339.776L51.2672 338.093L51.7833 336.228L51.6971 333.43L52.08 333.007L51.865 331.873L52.1703 330.77L53.912 332.202L53.826 332.753L54.798 333.648L55.3442 333.532L56.2344 332.148L56.6343 330.729L57.1246 330.667L57.546 328.274L57.4643 327.172L58.0965 327.278L58.4319 325.878L59.2877 325.229L59.4899 324.526L58.9651 322.957L59.3996 321.442L60.2769 320.379L59.963 319.749L59.834 318.131L59.4899 317.74L58.5954 318.122L58.3159 316.483L58.7244 315.652L60.0232 314.777L60.6122 313.329L60.2511 312.752L60.4274 311.704L61.752 309.209L61.7305 308.166L62.3282 306.958L61.7477 305.032L62.2079 304.651L62.4917 302.769L61.2531 300.507L61.5714 299.655L62.0659 299.526L62.9647 300.458L64.3925 301.123L65.0506 299.939L65.6182 299.717L66.3578 298.271L66.345 296.227L65.7988 295.162L65.8418 291.793L66.4999 291.111L67.2739 289.023L67.2181 288.057L68.0223 287.198L67.4587 283.663L68.4136 281.709L69.3597 280.93L70.293 279.655L71.0283 277.543L72.6067 277.007L73.1915 276.405L74.9075 276.286L75.8837 275.777L75.8536 273.843L76.675 272.98L77.3201 273.108L77.6427 272.52L77.4233 271.648L76.3052 269.976L76.5503 268.671L76.2664 267.755V266.273L74.6365 265.875L73.9269 264.659L73.9011 263.722L74.3828 262.144L73.1141 260.318L72.7012 259.196L71.067 257.861L69.5102 257.698L69.6177 256.169L70.2844 255.93L75.5999 258.268L77.1266 258.069L76.6707 256.584L77.9565 255.89L78.2748 254.503L78.2017 252.356L77.948 250.444L78.4037 249.574L81.4744 247.124L82.0163 246.02L81.9647 244.008L82.2098 242.304L83.2419 241.783L83.3796 241.064L82.9065 240.094L83.2291 239.233L83.3194 237.681L82.8722 234.62L82.855 232.384L83.9301 230.661L84.8074 229.868L85.6804 228.607L86.0115 227.109L87.4565 225.461L88.1059 223.659L89.2026 223.104L89.8691 223.536L90.4798 224.496L90.7465 225.897L91.1766 226.549L93.1891 228.396L94.3116 228.276L94.9868 227.219L95.7653 225.082L96.5479 223.408L98.0876 221.466L100.186 220.409L101.644 220.105L102.109 223.738L101.803 225.21L100.242 226.981L100.104 228.475L101.128 229.819L103.695 230.467L105.05 232.12L105.033 232.623L104.061 233.359L104.341 234.232L106.37 234.911L107.093 236.133L107.08 236.966L106.022 238.902L106.108 241.073L107.132 243.496L107.05 245.098L106.538 245.751L107.484 246.453L108.129 248.192L108.486 248.484L109.398 248.047L109.166 249.3L109.944 250.281L110.387 252.286L110.882 252.719L112.426 251.411L113.475 251.38L114.271 252.255L115.466 252.855L115.578 253.721L115.255 255.802L115.965 256.809L118.115 257.75L118.55 258.139L120.494 258.268L121.483 256.955L123.25 257.534L124.067 258.935L125.684 259.151L125.439 260.106L124.768 260.72L126.041 262.82L126.699 261.998L127.426 263.417L128.983 263.934L131.039 263.992L132.028 265.566L132.935 265.889L136.272 265.849L137.128 266.676L137.188 268.215L138.109 271.369L138.883 273.471ZM79.1694 231.141L77.5352 233.654L77.4018 234.488L76.0771 236.622L75.574 236.781L75.2687 237.764L73.6259 237.91L71.4971 237.279L71.024 236.402L71.8196 235.048L71.9186 234.016L71.4111 232.482L71.8583 231.212L73.5399 229.488L73.7635 229.03L74.4214 225.302L75.0365 226.104L75.3074 227.853L76.4471 227.598L77.6556 226.355L78.5414 226.386L78.8253 227.259L79.1694 231.141Z"  stroke="black" /><path d="M320.44 12.7106L321.098 14.1911L320.737 15.4256L321.12 18.772L321.128 20.3009L321.799 21.0395L323.201 23.2945L323.137 24.634L323.876 25.7013L324.947 26.3453L325.39 27.482L325.132 30.2962L324.702 32.8474L324.823 33.8551L325.352 34.6596L326.706 35.5031L328.332 38.4321L329.05 40.0463L329.454 39.8688L330.345 38.4321L330.787 42.3749L329.906 43.639L329.471 44.8296L328.706 44.9942L328.53 45.7L328.508 48.4934L327.983 50.6117L327.171 51.8682L325.863 52.5442L324.255 54.2299L324.706 55.0144L323.674 56.4838L322.135 57.1601L321.507 56.6355L321.404 57.2728L319.877 57.9925L318.157 59.9306L318.221 60.785L319.043 62.4158L318.225 63.5696L318.587 64.1986L319.64 64.8406L320.479 66.2334L320.488 67.2185L319.043 68.7548L318.918 69.7661L319.774 71.4417L319.49 73.1567L318.957 74.1511L320.049 75.1456L320.359 76.2575L319.172 79.459L318.127 81.6665L317.34 81.397L316.621 79.8892L315.886 79.3418L316.346 78.7292L317.309 78.247L316.862 78.0645L316.011 76.8438L315.907 76.0446L315.151 75.6928L314.26 76.1749L314.213 75.3758L316.028 75.1065L316.234 73.9209L314.828 74.3683L313.835 73.7907L313.254 74.5636L313.228 76.1315L312.648 77.3043L313.495 78.538L314.247 78.6423L315.533 79.837L315.224 81.2666L314.763 81.3275L313.491 79.9109L312.282 80.2629L310.876 79.824L309.28 79.9979L309.805 81.2188L306.459 81.1928L305.887 82.3313L305.534 84.1481L305.608 87.0783L305.853 88.9873L305.509 91.6274L305.78 92.9761L305.582 96.3439L305.367 97.4625L304.825 97.2361L303.733 98.9903L302.842 99.0817L302.27 99.8348L301.363 99.06L301.522 99.9481L301.35 102.508L301.049 104.607L300.034 107.631L300.111 108.637L299.604 109.635L300.154 109.491L300.537 110.302L301.625 109.927L302.068 110.18L302.072 112.084L303.423 111.919L303.694 113.645L305.087 112.952L305.577 113.039L306.205 111.003L306.721 111.322L307.173 110.585L307.521 111.692L309.345 114.831L310.3 115.729L310.682 116.479L309.379 119.191L309.108 120.216L308.979 122.594L309.125 123.397L309.99 125.404L308.734 125.767L308.205 126.395L307.474 128.277L307.457 131.529L308.549 133.189L309.211 134.822L310.123 135.998L311.246 136.762L311.822 138.152L311.607 138.825L310.566 140.21L310.282 140.971L310.295 142.767L311.216 146.112L310.953 147.162L309.882 148.544L308.515 152.197L308.476 153.706L308.781 155.663L308.48 157.886L307.84 159.012L307.225 159.493L305.831 159.506L304.33 159.156L303.208 160.404L301.694 165.262L300.339 165.835L299.742 165.735L298.46 166.725L297.905 168.294L298.064 168.89L299.273 169.806L300.529 169.788L300.98 170.345L300.997 173.606L301.191 174.553L298.666 174.834L298.413 175.409L299.75 176.505L299.294 177.843L299.681 178.628L301.608 179.018L301.501 180.497L302.541 181.221L305.186 180.668L306.184 179.553L307.887 179.194L308.885 180.488L308.73 181.067L309.392 182.19L310.502 182.247L310.545 181.519L309.68 180.44L310.54 179.11L311.766 178.369L312.458 178.698L312.549 179.803L312.024 180.843L312.347 182.313L313.736 181.839L314.699 182.993L315.456 183.287L315.718 184.872L316.312 185.982L317.804 186.456L318.311 187.558L317.856 189.42L316.948 190.267L315.8 190.553L313.873 191.624L313.017 191.686L312.888 192.16L313.405 193.193L311.998 193.847L309.938 193.496L309.826 194.115L308.657 195.415L307.336 195.213L307.07 195.477L307.203 197.046L307.315 198.254L306.997 198.641L305.616 198.702L304.821 197.823L304.79 196.514L302.515 197.032L302.958 195.881L304.425 194.721L303.634 194.524L303.479 193.812L302.812 194.383L300.671 194.242L298.279 193.913L298.421 192.775L299.755 192.23L299.178 191.387L297.35 191.422L296.069 190.614L294.594 190.417L292.831 189.736L291.536 189.806L290.392 189.394L290.108 188.537L290.538 187.971L290.814 186.707L289.833 186.693L288.104 187.567L286.934 186.65L286.272 186.707L283.662 187.58L283.197 188.054L284.066 189.648L284.384 190.685L283.438 191.523L282.681 191.598L281.843 190.768L281.017 188.893L280.608 189.543L281.451 191.357L281.37 192.362L280.428 192.784L279.632 191.576L278.871 190.895L279.03 190.219L277.938 189.2L276.811 189.284L276.992 188.221L276.626 186.606L277.073 185.741L277.822 185.416L277.972 183.801L279.903 182.072L279.727 178.856L279.482 177.426L279.013 176.715L276.635 177.023L276.144 177.246L274.927 176.601L273.831 179.483L273.065 179.422L273.061 178.452L272.558 177.483L271.478 177.632L270.708 177.193L270.726 175.137L272.467 173.444L272.368 172.287L271.353 171.077L270.45 170.568L270.726 169.889L269.233 169.731L269.517 167.711L268.997 167.597L268.051 168.259L265.905 168.018L264.447 167.549L263.505 166.44L262.89 166.707L263.028 168.657L262.864 170.31L262.417 171.305L261.299 172.488L261.574 173.65L260.839 173.988L258.779 176.724L258.142 178.215L255.97 178.137L254.504 178.878L250.814 181.493L250.031 181.396L248.427 179.904L246.698 178.702L245.068 178.15L244.157 178.273L243.292 178.825L240.669 182.353L239.017 182.954L238.501 184.38L237.508 185.574L237 186.641L236.145 187.049L235.199 186.224L234.141 184.679L233.517 182.783L232.339 181.519L230.872 181.234L229.062 182.344L228.911 183.129L229.311 184.556L228.868 185.789L227.457 188.072L226.567 188.533L226.576 190.167L225.466 191.387L224.899 190.975L225.294 189.389L226.111 188.805L224.761 187.769L224.791 185.837L224.137 183.836L223.295 182.669L221.923 178.974L221.944 178.11L223.135 176.123L223.733 173.475L223.574 172.392L222.512 170.993L222.615 168.907L221.97 167.807L220.147 167.833L218.732 165.708L217.988 163.527L216.607 162.624L215.777 161.665L214.676 161.324L213.902 161.613L212.427 162.721L211.339 162.76L211.137 163.838L210.479 163.527L209.619 164.149L209.946 166.033L209.49 166.686L208.789 166.716L206.81 165.792L206.161 165.051L205.219 165.231L204.613 163.925L203.112 163.378L201.835 163.877L201.048 164.587L198.854 165.752L198.196 167.067L197.418 166.545L195.93 166.852L195.225 165.7L194.317 163.378L194.27 162.73L194.902 161.157L196.132 160.251L196.287 158.381L195.982 156.902L194.76 156.24L194.326 155.102L193.001 154.63L192.313 153.312L191.78 153.846L191.952 154.555L190.812 155.251L189.479 156.516L189.126 157.26L189.66 158.727L188.769 159.406L187.148 157.952L184.396 158.815L183.695 158.635L183.032 157.274L181.669 155.343L181.192 153.562L180.302 153.715L179.639 151.908L179.854 150.206L178.255 149.488L178.22 148.99L176.612 148.819L176.298 148.111L174.603 148.373L173.025 149.033L172.41 148.754L172.694 146.829L172.414 143.851L172.152 143.043L172.316 140.822L173.674 140.809L176.5 139.244L176.259 138.549L176.595 137.924L177.713 138.064L179.614 137.658L181.17 137.78L182.323 138.248L183.875 139.262L184.886 139.38L185.901 140.101L186.839 139.283L188.137 139.471L188.602 138.864H189.41L191.281 137.444L194.038 134.91L195.083 134.84L196.541 133.809L196.713 133.171L195.689 133.276L194.932 132.678L194.765 132.031L195.999 130.468L196.407 129.49L196.278 128.534L195.397 128.154L195.93 127.325L195.388 126.373L193.891 126.238L193.565 125.343L194.201 124.876L194.115 122.664L194.545 122.494L195.556 121.119L195.345 120.19L194.786 119.706L194.674 118.572L193.672 117.578L193.135 116.265L192.322 115.925L191.311 116.296L189.685 115.467L189.466 113.832L190.438 111.975L191.066 111.844L191.152 110.249L190.288 109.012L189.948 107.761L188.623 107.243L188.249 105.531L187.195 105.226L186.877 103.775L185.768 103.536L184.74 102.404L182.439 101.041L180.994 100.636L180.117 100.971L178.736 101.058L177.175 102.151L176.392 102.944L174.724 103.384L173.976 104.063L174.646 106.027L174.453 106.385L173.502 106.176L172.973 105.143L171.034 105.518L170.974 106.249L170.311 106.28L169.929 104.063L169.391 103.427L168.097 102.887L167.503 103.967L166.802 103.662L165.116 104.259L164.506 105.161L163.134 104.35L163.314 103.318L162.601 102.582L162.054 101.489L162.003 100.353L162.772 97.3014L163.491 96.357L164.174 94.0202L163.117 93.1979L163 92.2669L162.213 92.7846L161.267 92.3017L160.115 89.5179L159.358 87.2654L158.283 87.2349L157.513 86.7435L157.165 85.1089L156.653 84.4351L155.625 85.1697L155.621 86.0653L156.722 87.0827L154.907 87.0305L153.427 87.461L153.036 88.722L153.273 90.0964L152.662 90.5879L151.316 89.6745L150.873 89.8528L149.69 89.4222L149.29 88.348L148.396 86.9827L147.51 86.9088L146.916 86.1001L146.202 86.8697L146.168 85.6088L147.05 83.8309L147.273 81.9619L147.652 81.6839L147.118 81.0016L146.942 79.3635L146.4 78.5815L146.8 77.6127L146.439 75.3497L145.622 75.2889L144.237 74.6418L144.194 73.0873L144.719 72.2406L144.005 71.4591L144.388 70.3086L144.727 70.3304L145.342 68.0517L145.05 67.0665L146.366 67.1187L146.929 66.6023L147.961 66.5241L148.443 65.3309L149.406 65.4958L149.316 63.2659L149.922 62.6152L150.017 60.3296L150.503 59.974L151.441 60.5204L151.991 60.1345L153.212 57.8797L154.008 57.7887L154.614 59.0244L154.644 60.1605L156.137 59.3496L156.601 58.1745L157.565 58.9333L160.261 59.2932L161.302 58.6341L161.947 59.4363L163.142 58.9594L163.779 59.6704L164.381 58.6905L165.275 58.1833L164.153 57.1905L164.402 56.952L164.54 55.0577L164.927 54.5939L164.273 54.3296L164.097 52.4965L165.108 52.6178L166.424 51.6818L167.404 51.4046L167.245 49.4551L167.886 48.6796L168.862 48.3505L168.768 47.3196L169.559 46.2283L169.714 43.7819L170.535 45.2237L171.989 45.5701L172.664 46.0205L173.309 47.5102L174.096 47.7917L173.67 48.8962L174.612 49.0782L174.234 50.1482L175.119 50.2911L176.827 50.9973L176.788 50.3908L177.794 50.9843L178.5 52.5961L177.979 53.3675L179.067 53.9872L179.442 55.7859L180.684 56.1066L180.319 55.1705L181.299 55.4088L182.396 54.9581L182.929 55.7469L183.91 55.7729L184.306 56.4968L184.456 58.0402L185.282 59.1804L185.277 60.2472L185.837 61.4138L186.77 62.2986L187.428 61.7998L188.963 63.049L190.3 65.0315L191.909 65.6563L191.965 65.0836L193.01 65.2312L193.109 66.2247L194.029 68.49L195.238 69.2843L195.741 70.5084L196.506 70.6473L197.061 71.3072L197.332 70.6864L199.198 70.7385L199.001 69.4406L199.319 68.0951L198.884 67.7566L198.829 66.4113L199.177 65.6823L198.816 65.2008L199.981 63.7083L199.684 62.984L200.648 61.995L201.641 62.7627L202.376 62.8061L203.155 63.3787L203.697 63.1184L204.587 64.0425L204.518 64.5239L205.537 64.8233L205.847 65.6823L206.724 65.8733L207.408 65.1357L207.967 65.5002L208.221 64.5283L206.97 63.1748L206.372 61.6264L205.542 60.334L206.006 59.3366L207.8 60.5898L208.513 62.5979L209.61 61.3575L208.84 61.4355L207.477 59.2196L207.524 57.7887L207.993 57.4636L207.959 56.5488L208.363 55.8336L208.083 53.3761L209.331 53.2982L209.911 51.8119L209.021 50.811L208.625 48.2248L207.748 48.0039L207.443 45.8992L205.163 43.8209L204.621 42.4745L204.419 40.7994L205.215 40.3796L204.987 39.5659L204.398 39.3366L204.548 38.4927L205.619 37.584L205.146 37.1471L206.053 36.9524L206.178 37.5538L207.21 39.4881L208.513 40.5093L209.399 40.6608L209.537 41.9161L210.307 42.1455L210.324 42.8944L211.326 42.994L212.319 44.3144L212.466 45.2583L212.169 46.4362L212.208 47.6921L213.395 49.4464L213.79 49.4637L214.143 50.4861L214.917 50.4514L215.493 51.1056L216.431 50.7113L216.078 51.5606L216.323 52.8041L216.981 53.5712L217.583 53.6448L218.19 53.0858L218.74 54.5116L218.009 55.0144L216.323 55.0057L216.409 55.6732L217.106 55.942L217.695 57.017L217.463 58.5084L216.921 58.8249L215.992 58.3913L215.562 59.7832L216.263 62.7931L216.151 64.0511L214.259 65.7952L213.954 66.5763L212.81 66.5372L212.208 67.5222L212.754 68.2948L212.388 69.0499L212.762 70.3261L214.47 69.7226L214.448 68.8894L213.975 68.1428L214.582 67.826L215.786 68.9978L217.403 68.464L217.287 69.7314L218.624 70.7558L219.437 69.5751L220.675 70.5821L221.385 70.2652L222.06 71.0337L221.746 72.957L222.839 73.5345L223.389 72.97L224.039 73.1567L224.585 72.284L225.574 71.9887L225.445 69.7705L224.094 67.0232L223.948 65.9427L224.249 64.7842L224.907 63.704L226.124 63.2226L226.898 63.2356L227.956 62.702L228.034 61.6394L227.006 61.1363L226.43 60.373L226.464 58.1745L227.608 58.0922L227.991 56.8479L228.868 57.6847L228.928 58.6168L229.436 59.0331L229.952 60.2472L231.341 59.3756L231.784 57.9752L231.5 57.0647L234.158 56.8956L234.403 54.5463L234.201 54.464L235.181 51.5389L235.366 50.3994L233.857 50.538L233.324 49.9532L233.268 49.0695L233.887 48.9526L233.194 47.337L231.431 46.0724L231.126 44.3058L231.793 43.0978L232.158 43.3663L232.653 41.9291L233.87 41.968L234.033 42.5524L234.725 42.0503L235.594 40.6176L236.42 40.003L236.957 40.4834L238.226 39.1548L239.327 40.8426L239.602 41.8209L240.174 42.2538L240.282 43.271L241.434 42.587L242.875 42.5351L242.931 41.0374L242.406 39.7044L242.368 38.8519L242.974 37.2855L242.553 35.2177L243.933 34.9018L244.114 34.452L245.116 34.3092L244.896 32.2247L246.066 32.242L246.531 32.6572L246.539 34.0195L247.954 33.5177L247.012 32.9469L247.511 31.3987L248.517 30.9923L248.93 32.5274L248.289 32.7436L248.031 33.5654L248.956 33.7426L250.216 32.9296L250.676 31.4982L253.923 31.7231L254.199 32.7609L254.921 32.1771L255.73 32.4064L256.843 31.7792L256.947 32.4669L257.626 31.6237L257.974 32.6139L257.66 32.7869L258.555 33.6086L257.863 35.581L257.738 36.4722L259.978 36.5933L259.26 37.4197L258.847 38.6961L259.05 40.5873L259.432 41.1933L259.467 42.7213L261.561 43.7645L261.927 43.2883L261.845 41.9723L262.494 40.808L263.621 40.1934L265.591 39.4663L267.079 39.1981L268.498 37.2812L267.552 36.1737L269.556 35.3344L270.085 35.8103L271.246 35.4685L272.102 34.292L271.852 33.5654L272.872 31.3598L273.551 31.5242L273.422 29.4574L273.929 28.139L274.841 27.322L275.375 26.3625L275.211 25.2648L273.977 25.3339L273.362 24.7982L272.829 23.6401L272.751 22.7199L272.214 21.6226L270.313 21.5708L269.861 20.0676L270.803 18.4265L272.085 17.1959L271.766 15.3393L270.846 15.443L270.717 13.8371L270.261 12.2272L271.143 11.6619L271.878 12.2618L273.34 11.8647L274.411 8.7193L273.973 8.0031L273.035 7.7572L273.022 6.5581L273.315 5.5532L272.665 4.4923L272.747 3.022L274.373 2.7891L275.405 1.4828L277.022 2.2976L276.901 4.0741L277.671 4.6346L278.763 4.281L280.703 2.3882L281.916 2.2933L283.159 0.900799L283.503 0L284.573 0.00429916L285.016 1.1638L285.072 3.2849L285.425 4.488L286.07 5.1823L285.704 5.8465L286.006 6.6401L286.848 6.8514L286.818 5.7257L287.257 5.1651L287.988 5.4022L288.84 5.1305L290.065 5.6049L291.042 5.4109L291.265 6.8428L293.85 7.4811L294.491 6.2432L295.273 6.0578L295.901 4.1861L295.721 3.5652L296.774 2.9098L297.647 1.8966L298.206 2.5994L298.271 3.9964L298.817 4.2422L299.342 5.4152L299.853 5.5273L300.774 6.9808L301.883 7.658L301.118 10.8334L300.391 13.112L300.06 16.4705L301.367 16.885L302.202 17.6621L302.808 17.714L302.64 20.439L301.866 22.4866L303.135 23.2686L304.132 24.3703L305.964 24.7679L306.283 22.6076L307.074 22.275L307.405 20.1713L308.923 20.2835L310.523 17.619L311.826 17.7615L315.026 17.7529L317.202 17.2865L317.937 16.518L318.045 15.8186L320.44 12.7106ZM311.104 197.828L310.562 197.511L310.398 196.685L311.086 196.285L311.53 196.914L312.304 197.476L312.312 198.012L311.228 198.254L311.104 197.828Z"  stroke="black" /><path d="M118.537 309.253L118.132 308.681L119.036 307.047L120.205 306.688L121.797 307.091L126.059 306.137L127.835 306.652L129.606 306.248L131.013 306.288L132.78 306.022L136.092 304.966L136.836 304.136L138.104 302.077L139.541 300.697L140.981 300.431L142.078 301.549L142.783 301.895L143.244 300.759L143.695 297.012L144.297 294.95L143.854 293.11L144.177 292.534L144.83 292.799L145.553 294.293L146.658 294.134L148.318 294.927L148.267 293.744L149.097 292.915L149.028 292.303L149.802 291.687L150.636 291.589L151.178 292.117L152.146 291.594L151.638 289.803L150.817 290.486L149.105 288.678L147.759 287.924L145.747 288.066L143.665 287.871L142.732 286.546L142.745 285.674L141.085 286.396L140.371 285.749L139.218 286.622L138.401 286.648L138.556 285.576L137.941 285.235L137.029 286.471L136.354 285.913L135.606 284.358L134.251 283.02L134.118 280.775L135.141 279.478L135.288 277.729L135.73 276.011L136.165 275.268L137.494 273.975L138.883 273.471L140.194 272.683L142.078 271.17L142.934 269.02L143.867 268.14L146.581 266.729L148.232 266.172L148.856 265.553L149.836 266.579L150.645 264.717L152.873 263.81L154.103 265.057L155.513 264.31L156.171 262.776L157.16 262.449L160.085 262.692L161.181 262.237L162.957 260.243L164.256 259.589L165.577 258.188L166.071 258.033L167.254 258.86L169.331 257.667L169.838 257.958L169.946 259.2L169.58 260.415L170.303 262.06L170.152 263.744L169.142 264.443L170.075 265.818L171.554 265.469L173.382 264.611L174.926 263.421L176.547 263.673L180.366 261.525L180.977 260.893L181.355 259.748L181.506 257.733L181.953 256.235L182 253.138L182.254 252.423L183.355 251.009L182.813 248.152L183.781 249.221L184.297 250.691L185.471 251.725L185.561 252.953L185.024 253.262L185.484 254.075L185.226 254.826L186.469 256.001L187.329 256.394L188.701 256.35L189.505 255.78L191.887 254.742L193.178 256.01L194.666 256.575L195.384 258.108L194.98 260.544L195.238 261.105L196.829 261.282L197.323 262.564L196.695 262.767L196.661 263.559L195.444 264.213L195.504 264.668L197.568 264.929L198.347 265.402L200.583 265.818L201.392 265.619L203.168 264.076L203.86 264.107L204.316 265.124L204.002 265.455L204.368 267.419L205.099 267.185L206.217 269.082L206.251 270.073L207.344 270.883L207.709 271.533L208.991 271.298L210.698 271.767L211.459 271.52L212.38 271.931L212.401 273.214L211.941 274.794L212.337 275.502L211.27 277.459L210.479 278.034L209.49 277.689L209.632 278.601L209.012 279.628L208.126 280.208L207.714 281.373L206.957 281.678L206.879 282.799L202.467 281.962L200.527 281.359L199.375 280.7L197.986 280.912L197.9 283.565L197.087 285.776L196.222 286.604H194.906L193.965 285.222L193.384 283.654L192.141 284.292L191.9 284.845L190.485 284.681L189.47 286.396L190.034 286.617L191.647 286.533L193.5 288.788L192.924 288.833L192.429 289.52L192.391 291.425L191.78 294.107L190.537 294.821L190.442 295.451L191.84 295.566L192.644 296.914L192.584 298.098L191.358 299.278L190.847 299.038L190.43 298.094L189.638 298.967L189.174 302.951L188.292 304.77L188.038 305.174L187.458 304.735L187.221 305.813L188.116 305.578L188.864 305.254L188.881 305.747L190.245 304.788L189.952 305.458L190.64 306.319L190.971 305.693L191.862 305.946L192.859 307.571L193.771 307.602L193.59 308.627L194.442 308.778L194.433 309.884L194.051 310.945L193.079 310.958L192.614 311.384L192.468 312.552L192.782 313.742L191.844 313.814L191.918 315.19L193.276 315.652L193.393 316.185L192.494 317.687L192.313 319.006L191.75 319.202L191.629 321.353L190.752 322.904L189.466 323.975L189.729 325.558L189.535 327.261L189.918 327.51L190.425 329.631L190.619 332.304L190.339 333.857L188.662 335.165L188.714 336.349L189.733 336.727L191.414 335.045L192.472 334.244L193.53 334.724L193.827 335.45L193.668 336.82L193.982 338.147L195.444 339.192L196.751 339.584L198.166 340.555L199.947 341.245L200.841 341.267L201.624 340.857L202.669 338.943L203.331 338.672L205.039 339.802L206.376 341.356L207.09 341.637L206.922 342.816L205.783 345.938L203.374 349.208L203.082 349.903L203.348 351.792L203.237 352.906L201.946 355.977L201.086 355.87L200.549 356.926L200.407 358.87L200.975 358.986L200.433 359.949L201.491 360.195L202.088 361.47L202.114 362.282L201.349 363.526L200.372 363.491L200.102 365.177L200.82 364.758L202.458 366.203L202.936 368.157L202.063 368.871L200.648 368.403L199.422 368.314L196.837 369.447L195.835 369.621L195.255 369.291L193.896 366.97L193.246 366.158L190.976 365.056L190.137 365.074L188.266 365.815L187.746 363.509L186.972 360.988L186.322 359.954L185.793 358.509L184.856 359.28L183.742 358.986L183.88 357.787L183.45 357.444L183.183 358.919L182.134 360.012L181.192 360.003L180.852 357.778L181.747 357.114L180.009 354.537L178.607 354.862L176.986 353.245L176.964 352.505L178.074 352.13L178.581 352.42L179.231 351.756L178.745 351.19L179.454 349.453L178.964 348.241L177.769 347.323L178.027 346.415L177.489 346.254L176.646 347.689L175.945 347.853L176.078 348.713L175.55 350.076L174.659 349.814L173.662 348.967L171.46 349.056L171.094 347.639L171.361 346.428L170.746 344.94L170.557 346.374L169.976 347.804L169.4 348.45L169.305 349.243L169.821 349.836L170.677 349.453L171.524 350.673L170.694 351.988L167.396 354.515L166.045 355.767L165.774 356.512L166.041 358.474L167.095 359.575L166.781 360.578L167.662 361.604L166.819 362.161L165.516 361.773L165.443 362.42L164.411 363.107L163.211 362.099L160.149 360.337L158.769 359.419L156.722 358.701L156.502 355.848L154.541 351.511L154.09 349.626L152.851 348.74L151.935 345.911L150.993 344.887L149.733 341.044L149.144 340.243L148.022 339.504L146.112 339.112L144.985 338.587L141.747 335.356L140.973 335.338L139.64 337.038L138.448 337.012L137.283 335.116L135.816 333.425L135.12 332.042L132.935 330.77L131.942 329.093L131.116 328.141L130.402 328.057L128.398 326.007L127.456 324.548L127.061 322.526L127.34 319.073L126.63 318.127L125.31 318.54L124.411 318.527L122.923 317.571L121.921 316.332L120.803 314.444L119.431 313.849L118.61 312.468L119.173 310.243L118.971 309.022L118.537 309.253ZM188.292 304.77L188.864 305.254L188.116 305.578L188.038 305.174L188.292 304.77Z"  stroke="black" /><path d="M138.883 273.471L138.109 271.369L137.188 268.215L137.128 266.676L136.272 265.849L132.935 265.889L132.028 265.566L131.039 263.992L128.983 263.934L127.426 263.417L126.699 261.998L126.041 262.82L124.768 260.72L125.439 260.106L125.684 259.151L124.067 258.935L123.25 257.534L121.483 256.955L120.494 258.268L118.55 258.139L118.115 257.75L115.965 256.809L115.255 255.802L115.578 253.721L115.466 252.855L114.271 252.255L113.475 251.38L112.426 251.411L110.882 252.719L110.387 252.286L109.944 250.281L109.166 249.3L109.398 248.047L108.486 248.484L108.129 248.192L107.484 246.453L106.538 245.751L107.05 245.098L107.132 243.496L106.108 241.073L106.022 238.902L107.08 236.966L107.093 236.133L106.37 234.911L104.341 234.232L104.061 233.359L105.033 232.623L105.05 232.12L103.695 230.467L101.128 229.819L100.104 228.475L100.242 226.981L101.803 225.21L102.109 223.738L101.644 220.105L100.186 220.409L98.0876 221.466L96.5479 223.408L95.7653 225.082L94.9868 227.219L94.3116 228.276L93.1891 228.396L91.1766 226.549L90.7465 225.897L90.4798 224.496L89.8691 223.536L89.2026 223.104L88.1059 223.659L87.4565 225.461L86.0115 227.109L85.6804 228.607L84.8074 229.868L83.9301 230.661L82.855 232.384L82.8722 234.62L80.4509 233.024L79.1521 231.679L79.1694 231.141L78.8253 227.259L78.5414 226.386L77.6556 226.355L76.4471 227.598L75.3074 227.853L75.0365 226.104L74.4214 225.302L75.6343 222.483L75.4795 221.298L74.6494 219.493L73.7635 219.065L72.3185 220.268L71.6819 219.378L71.8196 217.996L70.8865 216.406L70.2198 216.041L68.0566 216.635L65.7085 216.613L63.9625 216.252L63.4207 215.535L62.7626 213.594L61.0682 213.281L59.6576 211.631L57.6708 211.657L56.1656 210.386L55.5591 210.483L55.0517 211.477L54.8969 212.705L54.1443 213.132L52.8627 212.102L52.6649 210.79L52.8068 208.701L53.4691 208.045L53.8389 206.462L53.4218 205.521L52.3337 205.086L52.7681 203.718L51.865 202.992L51.4435 201.691L52.1187 200.329L51.3962 199.673L51.1597 198.592L51.65 196.795L50.4415 196.14L50.0329 193.759L50.6436 191.818L49.2588 190.588L48.003 187.484L45.6462 187.611L42.8036 188.454L41.5436 187.69L41.0748 187.089L42.2059 185.662L42.2446 184.727L43.5649 185.644L44.3046 185.477L44.3003 184.815L43.7068 183.818L44.6056 183.638L45.1131 184.389L46.5923 183.529L47.2245 182.756L46.4849 181.664L46.3602 180.067L47.9816 177.724L48.6223 177.645L48.5406 176.637L48.9578 177.11L49.8007 176.413L50.7339 173.295L51.7057 173.238L52.6219 171.34L53.1164 171.384L53.1594 170.516L52.4499 169.779L53.2756 168.929L53.3528 167.982L54.5657 167.501L57.4471 168.719L58.0019 168.451L57.9503 169.657L58.462 170.59L59.3523 170.704L59.8512 171.506L60.6812 171.467L61.6703 172.015L62.0918 172.624L64.2335 172.602L63.7903 173.808L64.7624 174.26L65.6827 173.957L64.9946 175.185L66.0784 177.329L66.0439 178.356L67.6996 180.676L69.48 180.519L70.7831 181.352L71.2433 182.471L72.5121 182.862L73.8237 181.844L75.66 181.458L76.2321 181.953L77.4018 181.26L77.7974 180.22L78.3694 180.348L80.3219 179.492L81.3454 180.238L82.6872 179.211L83.6376 180.659L83.8828 181.887L85.1815 181.536L85.2589 180.641L86.5792 178.334L87.8307 178.549L88.5359 179.391L89.108 179.417L90.0154 180.435L89.4648 181.607L89.5853 183.138L91.069 184.424L91.6238 183.81L92.5527 183.573L92.7076 183.024L93.4903 182.84L94.0751 180.988L95.7911 180.01L96.2728 179.088L97.722 178.014L98.1993 178.04L100.294 176.645L101.171 175.878L102.62 173.935L103.562 174.356L103.67 173.277L104.439 173.093L105.119 172.274H106.749L107.428 172.9L109.015 172.217L109.979 172.445L111.57 173.527L112.301 173.146L112.662 174.247L113.552 174.711L113.501 177.097L114.008 176.689L114.245 175.632L115.501 174.036L116.503 172.133L117.001 170.516L116.524 170.055L117.096 168.911L117.444 167.308L117.062 166.734L117.221 165.332L118.124 164.859L118.219 163.947L118.945 163.014L118.459 160.965L118.735 160.518L118.003 160.102L117.139 160.584L116.967 159.997L117.715 159.515L117.552 158.81L118.27 158.171L117.806 157.484L118.36 157.4L118.739 156.499L120.025 155.838L121.147 154.45L122.188 153.562L122.055 152.346L121.461 151.689L122.098 151.059L122.528 149.607L122.463 148.089L121.917 146.947V145.679L123.16 143.939L123.758 142.715L124.687 142.518L125.68 140.63L126.682 140.634L127.099 140.044L127.899 139.804L128.497 140.472L128.592 139.45L130.531 138.764L131.185 139.314L131.873 138.108L132.479 138.099L133.167 138.811L134.522 138.143L135.653 138.344L137.438 139.096L137.795 139.742L138.853 140.162L139.7 142.702L140.465 143.392L141.958 143.248L143.717 143.825L143.54 144.853L144.052 146.068L144.959 147.135L145.046 148.539L145.415 149.033L146.426 149.13L147.282 147.485L147.953 146.838L148.92 146.899L149.466 147.358L150.653 147.512L152.017 146.751L151.879 146.051L152.146 144.739L155.358 143.585L156.545 143.475L158.67 144.227L159.917 144.35L160.756 144.791L162.016 143.742L162.575 142.19L163.555 141.604L164.226 141.832L165.224 140.984L166.381 140.804L167 142.605L169.77 141.403L170.978 140.542L172.316 140.822L172.152 143.043L172.414 143.851L172.694 146.829L172.41 148.754L173.025 149.033L174.603 148.373L176.298 148.111L176.612 148.819L178.22 148.99L178.255 149.488L179.854 150.206L179.639 151.908L180.302 153.715L181.192 153.562L181.669 155.343L183.032 157.274L183.695 158.635L184.396 158.815L187.148 157.952L188.769 159.406L189.66 158.727L189.126 157.26L189.479 156.516L190.812 155.251L191.952 154.555L191.78 153.846L192.313 153.312L193.001 154.63L194.326 155.102L194.76 156.24L195.982 156.902L196.287 158.381L196.132 160.251L194.902 161.157L194.27 162.73L194.317 163.378L195.225 165.7L195.93 166.852L197.418 166.545L198.196 167.067L198.854 165.752L201.048 164.587L201.835 163.877L203.112 163.378L204.613 163.925L205.219 165.231L206.161 165.051L206.81 165.792L208.789 166.716L209.49 166.686L209.946 166.033L209.619 164.149L210.479 163.527L211.137 163.838L211.339 162.76L212.427 162.721L213.902 161.613L214.676 161.324L215.777 161.665L216.607 162.624L217.988 163.527L218.732 165.708L220.147 167.833L221.97 167.807L222.615 168.907L222.512 170.993L223.574 172.392L223.733 173.475L223.135 176.123L221.944 178.11L221.923 178.974L223.295 182.669L222.456 182.734L221.372 182.274L219.673 183.375L217.416 183.322L216.452 185.965L214.113 188.204L211.743 188.928L210.148 190.535L208.29 191.783L206.234 193.583L204.419 194.036L204.049 194.387L203.585 196.751L201.693 197.995L200.798 200.566L200.686 203.445L201.542 206.207L201.684 208.301L202.678 210.131L203.688 210.804L203.718 211.525L202.205 212.925L200.321 213.743L199.521 214.443L198.708 216.151L198.179 218.735L197.676 219.805L197.698 221.893L197.444 222.536L196.343 223.448L195.801 223.434L194.128 222.245L193.646 222.232L192.085 225.293L190.868 225.84L189.565 224.584L188.817 222.619L188.034 222.672L187.178 223.443L186.193 224.787L184.215 225.65L184.129 226.025L182.744 226.28L182.069 226.91L181.446 228.263L181.041 230.992L182.757 232.764L183.884 233.513L184.409 234.466L184.327 235.762L183.807 238.197L183.781 239.997L184.456 242.609L183.837 243.818L181.605 244.263L180.994 244.97L181.102 245.764L182.289 246.66L182.813 248.152L183.355 251.009L182.254 252.423L182 253.138L181.953 256.235L181.506 257.733L181.355 259.748L180.977 260.893L180.366 261.525L176.547 263.673L174.926 263.421L173.382 264.611L171.554 265.469L170.075 265.818L169.142 264.443L170.152 263.744L170.303 262.06L169.58 260.415L169.946 259.2L169.838 257.958L169.331 257.667L167.254 258.86L166.071 258.033L165.577 258.188L164.256 259.589L162.957 260.243L161.181 262.237L160.085 262.692L157.16 262.449L156.171 262.776L155.513 264.31L154.103 265.057L152.873 263.81L150.645 264.717L149.836 266.579L148.856 265.553L148.232 266.172L146.581 266.729L143.867 268.14L142.934 269.02L142.078 271.17L140.194 272.683L138.883 273.471ZM74.4214 225.302L73.7635 229.03L73.5399 229.488L71.8583 231.212L71.4111 232.482L71.9186 234.016L71.8196 235.048L71.024 236.402L71.4971 237.279L73.6259 237.91L75.2687 237.764L75.574 236.781L76.0771 236.622L77.4018 234.488L77.5352 233.654L79.1694 231.141L79.1521 231.679L80.4509 233.024L82.8722 234.62L83.3194 237.681L83.2291 239.233L82.9065 240.094L83.3796 241.064L83.2419 241.783L82.2098 242.304L81.9647 244.008L82.0163 246.02L81.4744 247.124L78.4037 249.574L77.948 250.444L78.2017 252.356L78.2748 254.503L77.9565 255.89L76.6707 256.584L77.1266 258.069L75.5999 258.268L70.2844 255.93L69.6177 256.169L70.3016 254.631L70.1595 253.545L69.6219 253.425L69.5662 252.568L68.4996 251.407L67.5276 251.946L64.5602 251.508L63.5496 252.445L61.8595 250.956L61.5412 250.161L61.5112 248.382L62.139 246.232L61.425 244.405L60.3371 243.549L60.2682 242.172L59.7222 241.144L58.9651 240.455L58.7975 239.776L57.1891 240.191L57.1418 242.278L55.959 244.422L55.8301 245.822L54.7635 246.404L54.6174 247.468L53.9164 248.506L52.1703 248.629L51.0092 249.27L50.1447 247.601L48.3041 247.265L48.1493 248.475L47.001 248.651L46.4377 247.923L45.6807 247.901L45.0699 248.59L43.3282 248.02L42.3263 247.203L41.0876 247.119L40.1028 246.016L38.6837 246.488L37.8795 246.289L37.2645 246.877L36.7054 248.201L35.6045 250.007L35.3163 250.837L34.3057 252.37L33.5015 253.037L33.209 254.278L33.6778 256.125L33.751 258.223L32.3531 259.363L31.6393 258.683L29.2095 258.931L28.6505 258.17L26.6077 258.48L25.3691 257.989L23.2403 258.453L22.6855 258.767L21.2277 258.696L20.5052 258.369L18.9482 258.882L17.383 257.105L15.7314 257.313L15.3488 256.915L15.0262 254.883L14.1489 253.615L11.9384 252.246L12.0674 250.223L10.545 248.042L11.4438 245.804L11.2632 244.233L11.3278 241.938L11.9297 241.135V240.173L12.3298 239.313L12.0287 237.69L11.6417 237.301L10.6525 238.448L9.73645 238.188L8.89355 236.834L8.84198 235.758L8.42474 235.034L8.53235 234.069L7.47437 231.869L7.28949 229.898L7.59479 228.594L8.16675 228.431L8.79895 227.382L8.66138 226.448L9.28497 226.034L10.8203 225.611L11.5127 225.047L12.3771 224.963L12.7684 224.121L11.9211 222.628L11.6288 221.272L11.7449 220.188L12.605 218.458L12.4545 216.93L10.9536 215.764L10.902 214.817L10.2827 212.942L9.54297 211.82L9.26776 210.223L8.12805 208.842L7.43567 207.544L5.31976 207.298L3.8877 209.176L3.763 210.051L2.66638 210.971L1.50946 211.587L0.881653 211.345L1.91376 210.698L1.59558 208.859L1.20416 208.895L0.408569 207.716L0 206.295L0.516052 205.961L1.18268 204.606L1.93097 205.292L3.32434 205.969L4.18878 205.948L3.71997 203.388L2.85126 203.634L1.36328 202.988L1.65564 201.511L2.30078 200.729L3.4964 200.232L4.30487 200.478L5.25525 199.704L6.79486 200.126L7.90009 198.61L7.54315 197.199L8.4679 196.821L9.09137 195.108L9.75366 194.488L10.3558 193.245L10.6266 192.033L11.7018 191.963L12.9189 190.25L13.6156 188.902L13.4651 188.041L14.3381 188.265L14.407 186.68L16.0283 186.979L17.2109 186.158L17.5033 184.745L18.9354 185.298L18.944 183.252L19.4386 183.064L19.5504 180.646L20.389 180.615L21.649 178.966L21.761 175.466L22.3672 175.093L22.4532 174.308L23.2317 172.725L23.7392 169.788L24.5649 170.708L25.4293 170.822L25.4637 171.563L26.827 171.805L27.1366 172.344L28.0569 172.103L29.0246 171.107L29.6783 171.191L29.7643 172.808L30.0051 172.94L30.0137 176.172L31.42 177.562L32.7317 178.233L33.0671 178.992L34.3488 179.843L34.5724 180.536L36.7484 179.917L37.1097 180.672L38.2106 181.418L38.0171 182.919L38.7997 183.889L39.2901 185.091L41.0748 187.089L41.5436 187.69L42.8036 188.454L45.6462 187.611L48.003 187.484L49.2588 190.588L50.6436 191.818L50.0329 193.759L50.4415 196.14L51.65 196.795L51.1597 198.592L51.3962 199.673L52.1187 200.329L51.4435 201.691L51.865 202.992L52.7681 203.718L52.3337 205.086L53.4218 205.521L53.8389 206.462L53.4691 208.045L52.8068 208.701L52.6649 210.79L52.8627 212.102L54.1443 213.132L54.8969 212.705L55.0517 211.477L55.5591 210.483L56.1656 210.386L57.6708 211.657L59.6576 211.631L61.0682 213.281L62.7626 213.594L63.4207 215.535L63.9625 216.252L65.7085 216.613L68.0566 216.635L70.2198 216.041L70.8865 216.406L71.8196 217.996L71.6819 219.378L72.3185 220.268L73.7635 219.065L74.6494 219.493L75.4795 221.298L75.6343 222.483L74.4214 225.302Z"  stroke="black" /><path d="M320.44 12.7106L323.339 13.7119L324.698 14.7047L324.982 15.8143L326.397 15.8488L327.756 14.7349L329.644 14.2299L330.147 15.5595L330.886 15.62L331.987 16.4964L331.574 17.9687L332.839 18.2754L333.892 16.9713L334.125 14.8903L334.731 13.5479L334.873 12.2963L336.017 12.456L337.118 13.0429L337.492 13.5738L336.826 16.4791L337.681 19.2254L337.604 20.6637L337.879 21.2684L338.623 25.3902L339.84 25.9736L340.343 26.5829L340.606 27.6505L340.589 29.8725L341.1 31.1825L340.945 33.3404L340.309 34.7288L340.937 37.0865L340.868 38.748L342.889 39.5573L343.182 39.9554L343.362 41.4659L343.096 42.7689L342.382 43.2191L342.18 43.9247L340.369 46.2066L340.395 48.7923L340.111 50.0138L339.311 51.6255L340.133 52.2191L340.718 51.9591L343.5 54.2862L345.706 55.0924L346.949 55.9853L348.553 55.9723L349.25 56.5792L350.699 56.3147L351.396 56.6876L351.71 55.8162L352.914 55.2268L354.084 54.1953L354.75 54.6589L355.709 54.5376L356.092 53.2548L356.767 53.5278L357.498 54.5723L357.442 55.4478L358.221 55.3784L359.141 56.0243L360.165 55.2744L360.814 55.5128L361.081 57.1557L359.851 58.6125L358.827 60.1691L359.279 65.0315L357.731 65.1096L356.836 65.5652L356.574 66.1119L357.137 68.1341L356.698 69.0239L357.606 70.7775L357.546 72.3317L358.298 72.9309L358.698 74.6462L359.206 74.9501L359.128 77.6648L357.593 77.8907L356.883 79.3027L356.797 81.7751L357.068 83.7874L358.668 84.0221L359.27 85.5262L363.326 84.6351L363.928 83.8091L363.799 82.7094L362.732 83.1137L362.543 82.5356L363.136 80.0022L363.816 79.3809L365.072 78.9334L365.437 77.9255L364.831 76.2313L363.506 75.3541L363.287 74.3639L361.468 73.0351L361.739 71.802L362.702 70.899L363.597 71.1638L364.852 70.4736H365.768L366.362 68.6984L367.342 69.5708L367.506 71.1118L368.099 71.776L368.8 71.8933L369.187 72.5228L369.02 73.5605L370.968 74.7417L371.355 75.7406L370.095 78.816L370.172 79.7198L371.626 80.2368L371.217 81.5578L371.256 83.4092L370.073 85.574L370.693 86.4958L370.241 87.3871L368.611 88.4133L367.514 89.8093L367.648 91.7667L368.362 92.5715L368.452 94.8731L369.217 94.8513L369.875 95.5562L369.841 97.6453L370.353 98.2416L370.925 96.2003L372.821 94.9427L373.238 93.4633L374.4 93.1718L374.585 94.5206L375.225 95.7782L375.436 96.7835L376.795 97.5017L377.462 96.901L379.814 95.6216L380.889 96.0001L381.41 95.7869L382.39 96.7356L381.969 97.8237L382.119 98.3896L384.072 99.1775L385.745 100.283L386.162 101.184L387.293 101.18L387.886 100.558L388.204 99.6041L388.174 97.5278L389.103 95.5693L389.925 95.8217L390.166 96.975L391.589 97.4756L393.068 98.986L393.636 97.8107L394.458 97.3536L394.341 96.0785L393.305 94.3509L393.03 92.8455L393.464 91.6579L394.384 91.3839L395.722 89.6223L395.52 89.0482L396.277 88.2176L397.313 85.9609L397.059 84.6524L397.997 83.6527L398.061 83.0919L397.124 82.3183L397.567 81.8229L398.165 80.1759L398.199 78.6206L398.453 78.0384L398.246 76.6788L399.012 76.9307L399.063 75.4583L399.859 75.3497L400.143 74.5897L399.846 73.947L400.487 73.2826L400.934 71.585L402.637 70.5084L403.936 71.1942L404.138 70.8643L406.86 69.3103L406.972 70.3304L406.284 70.5431L405.888 72.1755L405.957 73.1611L405.605 74.8502L406.142 77.9429L406.164 79.0811L407.075 80.6061L407.862 80.8191L407.643 82.2792L406.443 84.283L406.925 86.5827L406.766 87.0262L407.66 87.5305L408.525 88.6133L408.335 89.9789L409.157 90.3921L409.772 90.1833L411.638 88.5264L413.225 89.5527L412.443 90.9358L412.967 91.1881L413.423 90.3921L414.214 90.1312L415.849 90.8619L415.01 90.975L413.969 92.0537L413.526 93.7548L412.769 94.2857L412.972 95.5345L411.982 96.8488L411.6 98.4071L411.797 100.013L411.698 101.106L411.268 101.485L411.436 103.057L410.714 104.481L410.52 105.596L409.729 106.676L409.565 108.628L409.054 109.308L408.606 113.505L409.122 113.745L409.527 112.982L410.507 112.524L411.178 110.663L412.068 110.838L413.758 112.206L414.378 113.449L413.367 115.742L411.729 116.104L410.249 117.399L410.146 119.388L409.208 119.671L408.826 120.596L409.69 122.991L409.763 124.444L409.553 125.43L410.176 126.596L409.974 127.561L410.266 129.237L411.389 129.088L410.623 130.136L411.965 131.844L411.582 133.691L411.759 135.666L410.937 136.539L411.643 136.675L411.066 137.383L411.432 138.042L412.275 138.506L413.311 139.585L413.217 140.997L414.292 141.665L413.427 143.178L415.324 142.78L415.535 143.226L416.885 142.907L417.177 143.939L418.02 144.962L419.947 145.915L420.923 147.188L420.046 147.713L419.895 148.224L420.493 149.948L420.893 152.113L420.829 152.862L419.547 156.21L420.313 158.154L420.11 158.675L419.169 158.46L418.283 159.8L416.227 159.598L414.373 161.004L410.555 164.981L409.587 165.748L408.912 166.756L409.196 170.7L408.692 171.699L407.725 171.633L404.792 172.252L404.628 171.156L403.097 170.27L402.508 169.161L401.678 169.201L400.775 170.494L399.158 172.282L398.388 172.409L398.616 169.941L398.233 169.324L397.511 169.319L396.027 171.252V172.23L395.283 171.633L395.012 172.199L395.485 172.786L396.148 172.501L396.453 171.546L397.128 171.09L397.365 172.296L396.341 173.505L395.494 173.979L396.13 175.145L395.348 177.128L395.679 177.601L395.386 178.509L394.814 178.233L394.432 178.786L394.625 180.005L393.378 180.584L392.948 180.216L392.148 181.37L391.451 180.984L390.918 180.045L390.368 180.58L391.064 182.971L391.051 184.042L390.454 184.679L390.11 185.824L388.897 185.249L387.942 186.373L387.151 186.654L386.286 186.36L386.08 187.738L384.927 188.761L384.562 189.719L383.702 189.666L383.388 190.399L381.031 191.712L380.631 192.701L381.857 193.153L381.384 193.737L382.145 195.02L381.878 195.486L381.93 196.852L380.992 197.16L380.364 199.335L379.087 200.649L378.941 199.599L377.737 198.777L376.997 197.656L376.971 196.408L376.159 195.569L375.741 194.313L373.165 193.421L372.929 192.81L373.359 191.725L374.675 191.242L375.286 190.513L375.724 189.051L375.956 186.654L376.971 185.772L377.586 182.901L377.229 181.484L376.189 180.194L375.931 179.387L376.18 178.514L377.457 178.43L376.924 177.509L377.573 177.04L378.223 177.154L378.696 177.847L378.795 179.251L380.012 179.15L380.721 177.422L381.238 177.167L382.67 177.588L383.25 176.913L384.463 176.373L387.667 176.895L388.514 176.632L388.768 175.11L389.692 172.778L389.568 171.967L388.635 170.459L387.598 169.762L386.489 169.863L386.17 168.684L384.265 168.96L383.637 168.25L383.753 167.281L385.134 165.595L384.936 165.007L383.353 164.591L382.459 163.321L381.719 163.369L380.274 165.577H379.405L378.563 165.069L377.023 164.71L375.604 164.74L375.784 163.698L375.015 163.702L374.314 164.267L375.277 166.085L374.941 166.449L374.253 165.831L372.89 165.476L372.322 165.783L371.243 165.489L369.936 165.651L370.099 167.334L369.024 167.189L368.989 165.98L368.327 165.419L366.392 162.927L365.33 162.695L363.48 163.96L361.971 163.698L360.41 162.559L359.739 162.357L358.879 162.887L358.268 163.807L357.507 166.528L356.741 167.141L355.602 166.339L354.441 166.387L353.593 167.619L352.6 170.367L352.118 172.243L350.673 171.8L350.295 173.08L349.766 173.361L348.545 172.208L347.413 172.019L346.811 171.55L345.891 171.686L344.799 173.277L343.319 174.246L340.954 176.123L339.621 177.926L338.507 178.821L337.376 178.549L335.703 179.176L334.55 178.865L332.146 177.136L331.119 177.391L330.267 178.097L329.252 180.672L328.895 182.77L328.319 184.262L327.407 184.727L326.186 183.533L325.597 182.124L324.84 181.137L323.532 181.335L321.374 180.637L320.113 181.383L318.617 181.418L315.778 181.94L315.456 183.287L314.699 182.993L313.736 181.839L312.347 182.313L312.024 180.843L312.549 179.803L312.458 178.698L311.766 178.369L310.54 179.11L309.68 180.44L309.461 180.418L309.143 180.405L308.885 180.488L307.887 179.194L306.184 179.553L305.186 180.668L302.541 181.221L301.501 180.497L301.608 179.018L299.681 178.628L299.294 177.843L299.75 176.505L298.413 175.409L298.666 174.834L301.191 174.553L300.997 173.606L300.98 170.345L300.529 169.788L299.273 169.806L298.064 168.89L297.905 168.294L298.46 166.725L299.742 165.735L300.339 165.835L301.694 165.262L303.208 160.404L304.33 159.156L305.831 159.506L307.225 159.493L307.84 159.012L308.48 157.886L308.781 155.663L308.476 153.706L308.515 152.197L309.882 148.544L310.953 147.162L311.216 146.112L310.295 142.767L310.282 140.97L310.566 140.21L311.607 138.825L311.822 138.152L311.246 136.762L310.123 135.998L309.211 134.822L308.549 133.189L307.457 131.529L307.474 128.276L308.205 126.395L308.734 125.767L309.99 125.404L309.125 123.397L308.979 122.594L309.108 120.216L309.379 119.191L310.682 116.479L310.3 115.729L309.345 114.831L307.521 111.692L307.173 110.585L306.721 111.321L306.205 111.003L305.577 113.039L305.087 112.952L303.694 113.645L303.423 111.919L302.072 112.084L302.068 110.18L301.625 109.927L300.537 110.302L300.154 109.491L299.604 109.635L300.111 108.637L300.034 107.631L301.049 104.607L301.35 102.508L301.522 99.9481L301.363 99.06L302.27 99.8348L302.842 99.0817L303.733 98.9903L304.825 97.2361L305.367 97.4625L305.582 96.3439L305.78 92.9761L305.509 91.6274L305.853 88.9873L305.608 87.0783L305.534 84.1481L305.887 82.3313L306.459 81.1928L309.805 81.2188L309.28 79.9979L310.876 79.824L312.282 80.2629L313.491 79.9109L314.763 81.3275L315.224 81.2666L315.533 79.837L314.247 78.6423L313.495 78.538L312.648 77.3043L313.228 76.1315L313.254 74.5636L313.835 73.7907L314.828 74.3683L316.234 73.9209L316.028 75.1065L314.213 75.3758L314.26 76.1749L315.151 75.6928L315.907 76.0446L316.011 76.8438L316.862 78.0645L317.309 78.247L316.346 78.7292L315.886 79.3418L316.621 79.8892L317.34 81.397L318.127 81.6665L319.172 79.459L320.359 76.2575L320.049 75.1456L318.957 74.1511L319.49 73.1567L319.774 71.4417L318.918 69.7661L319.043 68.7548L320.488 67.2185L320.479 66.2334L319.64 64.8406L318.587 64.1986L318.225 63.5696L319.043 62.4158L318.221 60.785L318.157 59.9306L319.877 57.9925L321.404 57.2728L321.507 56.6355L322.135 57.1601L323.674 56.4838L324.706 55.0144L324.255 54.2299L325.863 52.5442L327.171 51.8682L327.983 50.6117L328.508 48.4934L328.53 45.7L328.706 44.9942L329.471 44.8296L329.906 43.639L330.787 42.3749L330.345 38.4321L329.454 39.8688L329.05 40.0463L328.332 38.4321L326.706 35.5031L325.352 34.6596L324.823 33.8551L324.702 32.8474L325.132 30.2962L325.39 27.482L324.947 26.3453L323.876 25.7013L323.137 24.634L323.201 23.2945L321.799 21.0395L321.128 20.3009L321.12 18.772L320.737 15.4256L321.098 14.1911L320.44 12.7106ZM309.68 180.44L310.545 181.519L310.502 182.247L309.392 182.19L308.73 181.067L308.885 180.488L309.143 180.405L309.461 180.418L309.68 180.44Z"  stroke="black" /><path d="M209.503 397.768L208.78 398.604L205.271 399.638L204.295 400.314L203.959 401.356L203.275 401.795L201.546 402.327L201.147 402.954L199.899 402.976L198.553 403.603L197.388 404.427L195.87 404.592L194.713 405.107L193.896 405.971L192.004 405.474L190.778 405.658L190.223 406.244L189.393 406.159L188.391 405.385L187.471 405.228L186.146 407.019L185.768 407.945L185.166 408.111L184.602 407.628L182.998 407.225L182.448 407.887L182.775 408.805L183.807 409.759L184.047 410.691L185.101 412.697L185.802 413.342L186.189 414.413L186.116 415.726L186.658 416.743L186.804 417.733L186.391 418.814L186.176 421.332L185.308 422.507L185.51 423.498L184.232 426.601L182.775 426.17L182.297 426.758L181.983 428.633L181.605 429.328L180.56 429.776L180.168 430.835L178.999 431.612L178.057 431.683L176.745 432.441L175.399 433.702L175.339 434.748L174.84 436.427L173.687 438.649L173.051 438.469L171.313 437.033L171.008 435.87L169.288 434.326L168.656 433.316L168.187 431.8L167.864 429.808L165.207 429.768L164.299 430.001L163.478 429.27L162.278 429.359L161.702 430.566L159.659 431.899L158.072 432.033L157.337 431.719L155.259 430.234L154.735 428.839L153.217 428.121L152.305 426.879L150.916 425.632L148.951 424.951L146.951 425.278L145.209 424.798L144.366 423.996L143.884 422.26L142.659 421.893L141.39 422.875L139.343 422.758L137.838 422.467L135.984 421.723L135.679 421.023L135.649 419.427L135.051 418.132L134.083 417.581L133.051 415.17L132.471 412.03L132.088 410.964L131.013 410.117L128.407 409.074L126.527 408.895L124.618 409.862L124.257 410.534L122.455 410.762L120.39 410.238L119.345 410.167L118.782 409.029L119.238 407.677L118.343 406.607L117.143 406.781L116.881 405.317L115.741 405.282L115.556 403.934L114.361 404.001L113.105 404.888L111.583 407.426L110.74 406.871L109.807 407.184L109.286 408.635L108.121 409.284L107.497 410.073L105.695 411.457L105.355 413.535L103.089 415.636L102.951 416.34L103.295 417.456L103.012 419.36L102.225 421.126L102.754 423.054L102.698 423.785L101.528 424.022L99.0508 425.444L93.086 427.117L91.3915 428.368L90.7121 429.247L90.2949 432.033L88.9659 434.456L87.6071 435.013L86.7211 434.887L86.1879 435.457L83.3968 436.288L82.4679 437.235L81.9001 439.614L80.9025 440L79.4316 439.43L78.7134 438.613L79.0489 437.36L78.6403 437.019L76.3567 436.301L73.9828 436.081L73.6818 435.892L71.6003 432.558L71.1875 431.194L69.7769 430.835L68.6458 429.521L66.5557 429.176L66.4999 428.66L67.4847 426.843L67.347 425.973L67.6696 424.744L67.1061 423.26L67.4159 422.148L67.2997 421.292L68.9167 418.885L69.5359 418.401L70.6843 415.645L71.3509 414.539L72.211 413.786L72.9593 413.634L74.1548 412.679L74.3914 411.309L75.3031 409.746L75.2945 409.199L76.202 408.169L76.1675 407.019L77.8577 405.886L77.7286 404.879L78.8382 403.992L79.7198 403.854L79.2812 402.524L78.8296 400.018L77.6254 398.246L76.9029 397.893L75.3503 397.857L74.1935 398.26L73.0195 397.692L75.0063 397.593L76.7094 397.106L77.8188 396.202L77.806 394.341L78.2963 393.652L78.5284 391.694L80.0983 390.017L80.1413 388.891L81.1089 387.447L81.2723 386.066L80.5497 384.779L81.0788 383.894L81.7153 383.737L82.4205 382.928L83.6075 383.943L84.3343 385.668L85.0696 386.352L86.2997 388.032L87.2974 388.175L87.6114 387.112L86.5792 385.293L87.0953 384.524L86.5492 382.857L86.6866 381.334L87.9683 380.82L87.2071 378.528L86.39 378.358L85.7191 379.247L85.1343 378.939L84.5236 377.671L83.5558 377.05L82.6743 377.108L82.8893 378.019L81.3625 377.876L80.924 377.322L79.4747 376.545L79.3542 375.166L76.7223 375.429L76.0643 376.255L74.5591 375.299L74.4903 374.906L75.4062 374.326L74.8989 373.237L75.0107 370.616L74.9032 369.371L75.5482 369.063L75.8837 367.698L76.2449 367.367L77.6384 368.813L78.1071 370.233L77.9135 371.639L78.2447 372.072L79.5349 371.46L82.7302 370.942L84.8031 371.25L87.5555 370.79L88.4026 370.125L89.5337 368.323L91.0345 369.898L92.1915 368.854L92.329 368.278L91.7657 367.676L90.9142 367.551L89.9595 366.801L89.581 364.98L89.5896 363.861L90.2648 361.131L91.1722 359.414L92.6172 357.564L94.0751 354.051L93.9762 351.747L94.1611 350.883L93.3354 350.223L92.2903 350.25L91.7012 349.484L91.8302 347.158L91.4604 346.067L90.4883 344.74L90.3766 344.059L91.0389 342.959L92.8494 341.302L93.2278 340.466L93.7913 337.612L93.4687 335.601L91.5464 332.309L90.9872 329.391L91.1852 328.875L91.2065 326.429L92.0539 324.855L92.3076 323.419L93.2107 322.348L93.9246 322.504L95.4986 320.793L96.535 320.406L96.6039 317.638L96.3113 316.772L96.8017 315.501L95.7524 314.684L95.2878 313.547L96.0448 311.3L96.006 310.288L96.6899 307.846L97.1157 306.985L97.4339 303.581L98.2166 302.561L98.6424 301.527L99.4681 301.323L101.162 299.114L100.302 296.32L100.629 295.145L101.679 293.633L102.65 292.923L104.044 291.354L104.848 291.727L105.029 292.325L106.818 292.706L107.79 292.121L109.248 292.183L110.245 293.464L111.673 291.173L113.767 291.244L113.789 292.219L113.036 292.689L113.269 293.566L112.873 296.448L113.849 297.969L114.215 299.81L113.841 301.469L115.307 303.537L116.094 305.676L116.64 308.179L117.251 309.231L118.223 309.808L118.537 309.253L118.971 309.022L119.173 310.243L118.61 312.468L119.431 313.849L120.803 314.444L121.921 316.332L122.923 317.571L124.411 318.527L125.31 318.54L126.63 318.127L127.34 319.073L127.061 322.526L127.456 324.548L128.398 326.007L130.402 328.057L131.116 328.141L131.942 329.093L132.935 330.77L135.12 332.042L135.816 333.425L137.283 335.116L138.448 337.012L139.64 337.038L140.973 335.338L141.747 335.356L144.985 338.587L146.112 339.112L148.022 339.504L149.144 340.243L149.733 341.044L150.993 344.887L151.935 345.911L152.851 348.74L154.09 349.626L154.541 351.511L156.502 355.848L156.722 358.701L158.769 359.419L160.149 360.337L163.211 362.099L164.411 363.107L165.443 362.42L165.516 361.773L166.819 362.161L167.662 361.604L166.781 360.578L167.095 359.575L166.041 358.474L165.774 356.512L166.045 355.767L167.396 354.515L170.694 351.988L171.524 350.673L170.677 349.453L169.821 349.836L169.305 349.243L169.4 348.45L169.976 347.804L170.557 346.374L170.746 344.94L171.361 346.428L171.094 347.639L171.46 349.056L173.662 348.967L174.659 349.814L175.55 350.076L176.078 348.713L175.945 347.853L176.646 347.689L177.489 346.254L178.027 346.415L177.769 347.323L178.964 348.241L179.454 349.453L178.745 351.19L179.231 351.756L178.581 352.42L178.074 352.13L176.964 352.505L176.986 353.245L178.607 354.862L180.009 354.537L181.747 357.114L180.852 357.778L181.192 360.003L182.134 360.012L183.183 358.919L183.45 357.444L183.88 357.787L183.742 358.986L184.856 359.28L185.793 358.509L186.322 359.954L186.972 360.988L187.746 363.509L188.266 365.815L190.137 365.074L190.976 365.056L193.246 366.158L193.896 366.97L195.255 369.291L195.835 369.621L196.837 369.447L199.422 368.314L200.648 368.403L202.063 368.871L202.303 370.054L202.119 371.21L202.407 372.295L203.817 372.612L204.781 372.531L205.357 373.081L206.686 375.679L207.09 378.202L207.589 379.962L207.692 381.606L208.341 382.576L207.649 384.148L205.525 385.596L204.836 386.548L204.032 386.642L204.454 387.715L204.996 388.193L205.249 387.483L206.333 388.305L206.415 388.926L207.739 390.518L208.858 392.418L209.133 393.599L209.743 394.006L210.113 394.874L209.941 396.081L209.24 397.481L209.503 397.768ZM106.181 411.56L107.385 410.27L107.489 410.686L106.706 411.6L106.181 411.56Z"  stroke="black" /><path d="M337.213 353.695L336.365 353.325L335.768 351.257L335.647 350.148L336.026 349.185L334.92 347.773L334.155 347.221L333.166 347.466L332.865 345.849L333.174 344.139L332.482 343.391L331.643 344.081L331.037 345.038L329.596 345.069L328.495 344.54L328.818 342.024L328.478 341.458L327.347 340.71L327.588 338.885L326.831 336.3L326.212 336.887L325.223 336.856L324.835 337.426L323.743 337.777L323.399 338.453L322.586 338.538L322.806 336.851L322.492 336.237L322.595 334.902L322.879 335.031L322.44 332.638L323.201 331.503L322.96 330.4L321.718 329.8L321.386 328.626L322.139 325.9L324.358 324.024L323.24 323.215L323.36 322.615L325.128 320.473L325.42 319.589L326.336 318.811L325.992 317.611L325.622 317.438L325.352 315.981L326.422 315.47L327.493 313.884V312.175L328.53 312.303L329.132 311.904L329.708 312.228L330.516 311.42L330.732 310.705L331.48 310.43L331.149 309.702L331.153 307.615L331.63 307.047L331.114 306.798L332 305.289L332.727 304.793L332.564 303.599L331.695 303.892L331.484 302.942L332.026 301.931L331.867 301.159L330.895 301.238L330.4 302.534L328.925 304.313L328.069 304.517L327.407 304.056L327.098 301.207L327.781 300.941L327.674 300.258L326.822 299.775L326.354 298.666L325.291 298.87L325.386 299.823L324.848 300.103L324.319 299.557L323.567 300.848L320.956 300.333L320.066 300.657L318.587 300.316L317.602 299.513L316.488 299.233L315.628 300.258L314.695 299.97L313.675 300.249L313.525 301.021L312.841 300.657L312.407 302.121L312.132 301.828L312.11 300.342L311.19 300.387L311.521 299.819L310.433 299.287L310.007 298.276L309.371 297.655L309.328 296.697L308.751 296.005L307.354 296.706L306.739 296.209L305.448 294.453L304.606 294.746L304.356 297.233L304.034 298.413L303.298 298.746L302.249 298.289L301.113 297.016L300.563 295.934L300.236 294.218L298.86 293.296L298.34 292.565L298.469 291.523L297.987 291.882L297.892 291L297.252 290.743L297.226 291.598L296.671 291.82L296.899 287.432L297.226 287.167L298.284 283.671L299.114 281.603L299.656 279.053L299.664 278.216L298.645 277.654L296.353 277.658L296.004 278.264L294.254 279.053L292.714 279.203L291.321 280.695L290.181 281.098L289.855 280.655L289.726 279.207L289.287 277.623L288.5 275.883L287.936 275.237L286.1 274.073L285.911 273.259L283.903 272.719L282.767 273.356L282.023 274.44L281.344 273.09L281.361 271.316L280.918 268.48L280.049 267.764L277.172 268.808L275.869 269.113L274.639 271.285L273.413 271.705L271.547 271.263L270.222 269.953L268.102 269.033L266.421 266.707L265.746 266.848L265.397 265.601L266.305 265.239L266.133 264.456L267.621 263.483L269.259 261.268L269.319 260.632L268.463 259.903L267.087 259.757L266.584 258.48L266.683 257.141L267.741 256.5L267.53 255.833L268.008 255.091L269.152 255.868L269.693 255.276L270.932 255.939L271.194 256.438L272.614 256.257L272.291 254.945L273.676 254.543L274.355 255.144L274.274 253.761L274.824 253.902L274.734 253.134L275.564 253.112L275.951 252.484L277.228 252.648L276.798 253.973L276.914 255.524L278.101 255.546L278.316 253.973L278.841 253.849L279.017 254.547L279.839 255.069L280.561 254.574L280.574 253.452L281.215 253.019L282.311 253.068L283.081 251.557L283.649 251.429L284.35 250.038L285.188 249.998L285.92 249.327L285.915 251.327L286.999 252.016L287.567 250.7L287.532 249.605L288.392 249.349L289.652 249.804L290.16 250.382L290.964 252.431L291.708 253.076L294.921 253.408L296.503 252.992L297.183 251.703L296.787 250.577L295.781 248.991L295.437 247.212L294.934 246.241L293.932 245.438L293.622 243.482L293.471 240.839L293.063 239.728L293.858 238.664L293.618 237.539L294.598 235.894L295.252 236.022L295.733 234.382L296.331 234.378L297.462 232.922L297.303 232.548L298.383 232.054L298.847 231.058L298.52 229.03L297.565 229.272L296.318 228.753L296.142 227.862L296.903 227.911L296.693 227.153L295.561 226.117L293.286 225.007L293.093 225.597L293.36 226.977L292.77 226.615L292.585 227.329L291.73 227.215L290.246 227.937L289.218 227.082L289.816 226.364L290.014 225.104L289.334 223.729L288.564 223.637L288.341 222.888L287.472 222.267L286.775 220.871L287.894 219.052L288.956 216.38L289.446 216.415L291.282 214.918L291.536 213.757L289.687 209.501L289.541 207.531L290.169 205.873L290.994 204.808L292.297 205.266L292.065 203.388L292.71 202.562L294.25 199.287L293.88 197.639L292.831 195.96L292.426 194.317L293.046 193.895L291.915 192.23L291.312 192.841L290.487 192.406L291.252 191.484L291.536 189.806L292.831 189.736L294.594 190.417L296.069 190.614L297.35 191.422L299.178 191.387L299.755 192.23L298.421 192.775L298.279 193.913L300.671 194.242L302.812 194.383L303.479 193.812L303.634 194.524L304.425 194.721L302.958 195.881L302.515 197.032L304.79 196.514L304.821 197.823L305.616 198.702L306.997 198.641L307.315 198.254L307.203 197.046L308.545 197.336L308.932 198.148L311.104 197.828L311.228 198.254L312.312 198.012L312.304 197.476L311.53 196.914L311.998 193.847L313.405 193.193L312.888 192.16L313.017 191.686L313.873 191.624L315.8 190.553L316.948 190.267L317.856 189.42L318.311 187.558L317.804 186.456L316.312 185.982L315.718 184.872L315.456 183.287L315.778 181.94L318.617 181.418L320.113 181.383L321.374 180.637L323.532 181.335L324.84 181.137L325.597 182.124L326.186 183.533L327.407 184.727L328.319 184.262L328.895 182.77L329.252 180.672L330.267 178.097L331.119 177.391L332.146 177.136L334.55 178.865L335.703 179.176L337.376 178.549L338.507 178.821L339.621 177.926L340.954 176.123L343.319 174.247L344.799 173.277L345.891 171.686L346.811 171.55L347.413 172.019L348.545 172.208L349.766 173.361L350.295 173.08L350.673 171.8L352.118 172.243L352.6 170.367L353.593 167.619L354.441 166.387L355.602 166.339L356.741 167.141L357.507 166.528L358.268 163.807L358.879 162.887L359.739 162.357L360.41 162.559L361.971 163.698L363.48 163.96L365.33 162.695L366.392 162.927L368.327 165.419L368.989 165.98L369.024 167.189L370.099 167.334L369.936 165.652L371.243 165.489L372.322 165.783L372.89 165.476L374.253 165.831L374.941 166.449L375.277 166.085L374.314 164.267L375.015 163.702L375.784 163.698L375.604 164.74L377.023 164.71L378.563 165.069L379.405 165.577H380.274L381.719 163.369L382.459 163.321L383.353 164.591L384.936 165.007L385.134 165.595L383.753 167.281L383.637 168.25L384.265 168.96L386.17 168.684L386.489 169.863L387.598 169.762L388.635 170.459L389.568 171.967L389.692 172.778L388.768 175.11L388.514 176.632L387.667 176.895L384.463 176.373L383.25 176.913L382.67 177.588L381.238 177.167L380.721 177.422L380.012 179.15L378.795 179.251L378.696 177.847L378.223 177.154L377.573 177.04L376.924 177.509L377.457 178.43L376.18 178.514L375.931 179.387L376.189 180.194L377.229 181.484L377.586 182.901L376.971 185.772L375.956 186.654L375.724 189.051L375.286 190.513L374.675 191.242L373.359 191.725L372.929 192.81L373.165 193.421L375.741 194.313L376.159 195.569L376.971 196.408L376.997 197.656L377.737 198.777L378.941 199.599L379.087 200.649L379.113 201.48L378.489 202.074L378.111 201.344L377.139 201.256L376.735 203.059L376.128 202.821L374.795 203.696L373.376 202.812L372.284 204.276L373.114 204.699L375.075 206.704L375.776 206.211L376.111 206.691L375.991 207.654L376.765 209.18L377.754 209.273L378.386 210.685L378.464 211.631L378.064 212.251L378.937 211.961L380.055 210.619L381.336 210.417L381.083 209.757L381.517 209.392L381.543 211.305L382.648 211.112L383.736 210.447L383.667 208.71L383.104 208.666L382.91 207.962L384.618 207.029L386.437 205.156L387.723 204.567L388.338 203.942L388.531 203.076L389.516 202.315L389.753 202.861L391.034 202.839L391.628 201.682L391.985 202.245L392.948 201.098L394.156 201.137L395.171 200.46L396.001 200.443L396.793 200.979L396.582 201.709L395.713 202.179L395.012 203.393L394.436 205.648L396.543 206.018L397.3 205.204L398.246 205.358L398.913 205.948L399.752 203.898L400.487 204.369L401.235 203.511L403.179 200.526L404.319 197.977L404.977 197.568L405.643 197.837L406.134 199.63L407.303 200.082L408.624 199.304L411.213 198.94L411.114 198.017L412.911 197.621L414.004 198.105L414.305 197.375L414.765 198.478L415.38 198.482L415.354 197.314L415.93 196.98L415.887 197.665L416.967 197.525L417.874 200.188L418.803 200.939L419.336 200.711L419.999 199.489L421.082 199.339L420.846 201.199L420.145 201.885L420.024 203.01L420.704 203.168L420.145 204.197L420.605 204.54L421.783 204.483L421.71 205.424L419.784 205.596L420.768 206.044L422.115 207.082L422.768 206.264L422.093 205.793L422.312 204.721L422.932 204.65L423.405 205.283L424.368 205.301L423.792 205.745L424.394 206.502L424.329 208.107L424.837 208.674L424.893 209.699L426.007 211.006L425.955 212.802L425.142 213.022L425.022 214.421L425.598 214.734L426.213 214.276L426.531 214.712L426.987 217.318L425.456 218.11L424.957 219.325L424.054 218.858L422.557 219.783L421.912 220.505L421.018 220.734L420.046 221.624L419.212 221.835L418.485 222.509L418.635 223.963L419.087 224.505L418.485 225.518L419.646 225.452L420.67 228.312L421.362 228.506L422.089 235.176L419.741 235.074L418.575 235.647L417.143 237.125L416.872 238.801L416.378 239.03L414.528 238.303L414.864 239.767L413.935 240.447L413.359 241.294L412.645 241.576L411.251 240.927L410.069 240.76L408.585 241.258L408.194 240.804L407.531 241.064L407.768 241.916L409.002 244.453L411.144 246.069L412.653 244.846L413.316 247.292L414.343 248.342L414.773 250.038L415.246 250.44L414.95 251.632L415.169 252.189L414.829 253.262L415.801 253.266L415.526 253.699L416.154 254.296L416.498 256.509L416.18 257.216L414.558 258.285L414.829 260.672L413.294 262.356L413.178 263.28L414.507 263.709L413.974 264.885L413.075 264.996L410.623 266.941L410.103 267.835L409.673 269.865L408.628 272.657L408.168 274.843L407.071 275.352L406.65 276.525L406.869 277.702L407.686 279.575L408.529 279.442L409.161 280.066L410.486 280.102L410.374 280.855L411.191 281.408L411.552 282.613L412.597 282.498L413.952 281.262L415.238 281.368L415.978 280.735L417.38 280.257L418.007 280.452L418.928 280.146L418.992 278.986L420.184 277.857L420.614 277.826L421.383 279.252L420.055 280.762L419.702 282.569L418.713 285.027L419.629 287.818L420.768 288.434L420.923 289.09L420.123 289.307L421.018 291.616L420.713 292.343L421.616 293.943L422.643 294.001L422.699 293.269L423.4 295.038L424.054 295.601L423.955 296.821L423.336 298.604L421.207 298.395L420.162 298.927L419.435 298.129L419.526 300.6L419.28 301.003L419.732 302.698L420.622 303.213L421.547 303.297L421.796 305.032L421.254 306.776L420.347 308.308L416.481 310.994L416.36 311.589L417.736 312.152L418.167 312.859L418.334 314.337L417.715 315.861L416.82 316.892L415.638 317.398L415.251 318.264L415.057 320.224L413.986 321.895L413.651 322.913L412.928 323.544L412.215 323.277L411.518 323.762L411.359 325.922L411.548 326.749L411.303 327.985L410.787 328.501L411.148 329.667L410.697 330.681L411.453 331.268L411.673 332.068L411.574 333.519L409.768 333.381L409.694 334.444L408.46 335.196L407.299 335.218L405.57 334.662L405.454 333.821L404.947 333.852L403.979 333.078L402.766 333.038L402.027 332.704L402.203 332.01L401.885 329.484L402.005 328.128L401.029 326.98L399.764 326.523L399.098 327.345L400.255 328.052L399.945 328.706L400.887 329.426L400.293 330.503L398.603 330.907L398.324 332.277L397.816 332.553L396.672 330.534L397.498 329.168L397.481 327.443L396.874 326.469L395.644 326.091L393.98 326.772L394.23 327.456L393.468 327.39L392.961 328.074L392.767 329.213L390.639 327.892L389.43 327.572L388.385 327.861L388.028 328.95L387.017 328.483L386.437 329.004L387.185 330.761L386.446 330.529L385.719 332.22L384.618 332.242L384.282 332.718L384.57 333.443L383.874 333.612L382.898 332.718L382.145 333.439L380.829 334.186L380.881 334.8L379.741 335.2L379.659 336.228L380.033 338.24L381.414 338.681L382.119 338.066L383.482 338.783L384.183 337.381L385.357 336.513L386.028 334.586L387.28 334.208L387.413 333.078L389.374 334.382L389.83 334.208L390.256 332.949L391.189 332.909L391.077 333.474L392.858 334.573L392.342 335.77L392.578 337.141L391.305 338.485L390.733 340.323L390.264 340.67L390.187 342.389L389.422 343.293L390.527 344.312L390.226 345.266L390.505 348.526L390.927 349.288L392.045 349.764L392.604 350.602L393.533 350.945L392.729 352.215L391.976 351.974L391.163 353.236L390.35 353.004L388.983 354.484L387.977 353.837L386.441 352.456L385.237 352.638L385.207 351.614L383.771 350.29L382.73 350.553L382.287 350.286L380.949 351.493L379.831 351.77L379.216 351.391L379.324 350.299L378.305 350.575L377.668 350.081L376.537 350.455L376.851 351.052L375.015 351.204L374.739 350.892L373.75 353.16L372.847 352.041L372.701 351.213L372.06 350.451L371.497 350.482L371.901 348.78L372.778 348.41L372.469 346.691L371.424 345.943L371.875 344.125L371.695 343.413L370.366 343.048L370.112 342.505L367.342 342.816L366.706 343.872L365.932 343.676L364.878 343.898L364.405 345.555L364.93 345.706L364.981 346.473L364.504 347.444L363.717 347.056L362.865 347.568L362.792 348.655L363.222 349.715L362.668 350.722L364.758 352.309L364.981 353.869L364.409 353.668L363.351 352.598L363.016 353.191L362.41 352.803L360.853 353.873L360.741 354.876L360.087 355.402L360.014 356.369L359.029 356.436L359.795 357.176L359.958 357.907L360.522 357.787L360.874 359.08L360.027 358.737L359.322 357.626L358.414 359.998L358.518 362.135L357.61 363.196L358.199 364.521L359.489 364.548L360.092 366.221L360.208 367.412L359.597 368.514L360.651 371.371L360.281 372.478L360.302 374.027L359.489 373.862L357.709 371.424L358.092 370.259L357.481 368.492L355.804 367.72L355.916 366.738L354.475 364.891L354.505 364.477L353.06 363.486L352.131 363.865L352.316 362.496L351.852 362.09L351.349 360.667L350.488 359.851L349.301 359.611L348.691 360.047L347.246 360.462L346.549 361.76L345.513 361.095L345.233 359.343L344.175 356.503L343.616 355.816L342.816 355.616L341.251 354.39L340.696 353.316L340.743 352.514L340.184 352.108L338.176 352.665L337.213 353.695ZM419.646 225.452L419.938 224.364L421.1 223.258L421.19 222.346L422.097 222.249L422.385 223.368L424.033 224.263L423.787 225.1L423.985 227.514L422.85 229.158L422.863 229.903L423.594 231.252L424.299 233.284L424.256 235.409L424.63 236.221L423.375 236.662L423.211 235.409L422.089 235.176L421.362 228.506L421.758 227.823L420.67 228.312L419.646 225.452ZM428.591 235.991L428.806 235.603L428.574 234.179L429.959 235.123L428.712 237.023L428.647 237.742L427.938 238.422L426.871 238.73L426.432 239.216L426.364 237.958L425.082 236.962L425.495 236.666L426.91 237.553L427.456 236.891L427.206 235.7L428.092 236.344L428.591 235.991ZM307.203 197.046L307.07 195.477L307.336 195.213L308.657 195.415L309.826 194.115L309.938 193.496L311.998 193.847L311.53 196.914L311.086 196.285L310.398 196.685L310.562 197.511L311.104 197.828L308.932 198.148L308.545 197.336L307.203 197.046Z"  stroke="black" /><path d="M206.879 282.799L207.976 283.251L207.929 284.447L208.832 284.057L209.012 285.009L207.937 286.413L208.832 286.812L209.812 285.802L210.259 286.232L212.724 285.558L212.818 286.334L213.283 286.179L214.444 286.839L214.732 285.997L215.536 285.563L216.108 285.82L217.171 285.39L217.553 284.566L217.166 282.028L217.747 281.687L218.581 282.219L220.843 280.208L221.376 279.969L222.529 280.372L223.862 281.386L225.243 280.297L225.901 281.005L226.038 282.515L227.324 282.896L228.017 282.259L229.04 282.117L228.61 283.118L229.113 283.521L229.251 286.511L230.666 288.257L231.311 289.772L231.964 290.326L233.573 289.994L234.162 289.147L234.536 287.902L235.581 287.432L235.663 286.427L235.315 285.984L233.693 285.31L233.573 284.539L234.515 282.383L235.573 281.842L235.349 280.633L234.635 280.332L234.304 279.376L234.837 278.968L234.734 277.835L233.07 277.773L232.339 278.774L231.543 278.473L228.331 277.932L228.176 277.153L230.67 275.312L231.276 274.573L231.143 272.688L231.896 271.599L231.81 270.896L230.403 270.794L228.769 272.068L227.87 272.086L226.318 270.391L228.305 267.052L228.653 266.703L230.356 266.742L230.778 266.331L230.309 265.031L231.483 264.54L231.543 263.908L230.085 262.643L229.78 261.896L230.003 260.977L231.036 259.974L232.102 259.399L232.511 258.383L232.184 257.366L233.091 256.2L232.274 255.961L231.81 254.689L232.339 253.62L233.182 253.014L235.164 252.772L236.106 251.928L237.078 251.583L237.727 250.802L237.405 249.243L236.364 248.797L235.383 248.908L234.631 248.276L235.349 247.393L236.132 247.411L236.334 246.788L237.517 246.396L237.822 246.978L239.396 245.985L240.776 246.161L240.703 244.74L240.067 245.12L240.265 242.41L241.778 241.85L241.813 240.116L241.52 240.275L241.28 238.81L242.462 238.404L241.331 237.95L241.473 237.112L242.458 235.89L243.404 236.128L244.187 235.409L244.883 235.656L245.744 234.413L246.789 234.298L248.337 232.517L249.094 231.097L250.117 231.058L251.648 230.026L253.106 229.427L254.065 229.603L256.112 229.533L257.888 230.749L259.282 230.224L261.277 231.15L262.051 232.102L262.826 231.053L263.109 227.417L263.63 227.091L263.767 225.236L263.234 222.254L262.899 221.531L261.712 215.759L261.234 215.187L260.675 212.568L257.97 211.433L257.531 209.691L255.721 209.77L255.695 208.327L256.246 205.464L256.241 203.349L257.432 201.238L257.497 200.452L256.689 198.311L257.265 197.226L259.204 196.356L261.144 195.965L262.296 194.967L262.563 191.559L260.585 189.978L260.722 189.187L257.527 189.003L254.917 189.846L253.669 188.796L253.996 187.795L255.403 187.053L255.932 185.056L257.42 183.305L258.301 181.826L258.469 179.742L258.142 178.215L258.779 176.724L260.839 173.988L261.574 173.65L261.299 172.488L262.417 171.305L262.864 170.31L263.028 168.657L262.89 166.707L263.505 166.44L264.447 167.549L265.905 168.018L268.051 168.259L268.997 167.597L269.517 167.711L269.233 169.731L270.726 169.889L270.45 170.568L271.353 171.077L272.368 172.287L272.467 173.444L270.726 175.137L270.708 177.193L271.478 177.632L272.558 177.483L273.061 178.452L273.065 179.422L273.831 179.483L274.927 176.601L276.144 177.246L276.635 177.023L279.013 176.715L279.482 177.426L279.727 178.856L279.903 182.072L277.972 183.801L277.822 185.416L277.073 185.741L276.626 186.606L276.992 188.221L276.811 189.284L277.938 189.2L279.03 190.219L278.871 190.895L279.632 191.576L280.428 192.784L281.37 192.362L281.451 191.357L280.608 189.543L281.017 188.893L281.843 190.768L282.681 191.598L283.438 191.523L284.384 190.685L284.066 189.648L283.197 188.054L283.662 187.58L286.272 186.707L286.934 186.65L288.104 187.567L289.833 186.693L290.814 186.707L290.538 187.971L290.108 188.537L290.392 189.394L291.536 189.806L291.252 191.484L290.487 192.406L291.312 192.841L291.915 192.23L293.046 193.895L292.426 194.317L292.831 195.96L293.88 197.639L294.25 199.287L292.71 202.562L292.065 203.388L292.297 205.266L290.994 204.808L290.169 205.873L289.541 207.531L289.687 209.501L291.536 213.757L291.282 214.918L289.446 216.415L288.956 216.38L287.894 219.052L286.775 220.871L287.472 222.267L288.341 222.888L288.564 223.637L289.334 223.729L290.014 225.104L289.816 226.364L289.218 227.082L290.246 227.937L291.73 227.215L292.585 227.329L292.77 226.615L293.36 226.977L293.093 225.597L293.286 225.007L295.561 226.117L296.693 227.153L296.903 227.911L296.142 227.862L296.318 228.753L297.565 229.272L298.52 229.03L298.847 231.058L298.383 232.054L297.303 232.548L297.462 232.922L296.331 234.378L295.733 234.382L295.252 236.022L294.598 235.894L293.618 237.539L293.858 238.664L293.063 239.728L293.471 240.839L293.622 243.482L293.932 245.438L294.934 246.241L295.437 247.212L295.781 248.991L296.787 250.577L297.183 251.703L296.503 252.992L294.921 253.408L291.708 253.076L290.964 252.431L290.16 250.382L289.652 249.804L288.392 249.349L287.532 249.605L287.567 250.7L286.999 252.016L285.915 251.327L285.92 249.327L285.188 249.998L284.35 250.038L283.649 251.429L283.081 251.557L282.311 253.068L281.215 253.019L280.574 253.452L280.561 254.574L279.839 255.069L279.017 254.547L278.841 253.849L278.316 253.973L278.101 255.546L276.914 255.524L276.798 253.973L277.228 252.648L275.951 252.484L275.564 253.112L274.734 253.134L274.824 253.902L274.274 253.761L274.355 255.144L273.676 254.543L272.291 254.945L272.614 256.257L271.194 256.438L270.932 255.939L269.693 255.276L269.152 255.868L268.008 255.091L267.53 255.833L267.741 256.5L266.683 257.141L266.584 258.48L267.087 259.757L268.463 259.903L269.319 260.632L269.259 261.268L267.621 263.483L266.133 264.456L266.305 265.239L265.397 265.601L265.746 266.848L266.421 266.707L268.102 269.033L270.222 269.953L271.547 271.263L273.413 271.705L274.639 271.285L275.869 269.113L277.172 268.808L280.049 267.764L280.918 268.48L281.361 271.316L281.344 273.09L282.023 274.44L282.767 273.356L283.903 272.719L285.911 273.259L286.1 274.073L287.936 275.237L288.5 275.883L289.287 277.623L289.726 279.207L289.855 280.655L290.181 281.098L291.321 280.695L292.714 279.203L294.254 279.053L296.004 278.264L296.353 277.658L298.645 277.654L299.664 278.216L299.656 279.053L299.114 281.603L298.284 283.671L297.226 287.167L296.899 287.432L296.671 291.82L297.226 291.598L297.252 290.743L297.892 291L297.987 291.882L298.469 291.523L298.34 292.565L298.86 293.296L300.236 294.218L300.563 295.934L301.113 297.016L302.249 298.289L303.298 298.746L304.034 298.413L304.356 297.233L304.606 294.746L305.448 294.453L306.739 296.209L307.354 296.706L308.751 296.005L309.328 296.697L309.371 297.655L310.007 298.276L310.433 299.287L311.521 299.819L311.19 300.387L312.11 300.342L312.132 301.828L312.407 302.121L312.841 300.657L313.525 301.021L313.675 300.249L314.695 299.97L315.628 300.258L316.488 299.233L317.602 299.513L318.587 300.316L320.066 300.657L320.956 300.333L323.567 300.848L324.319 299.557L324.848 300.103L325.386 299.823L325.291 298.87L326.354 298.666L326.822 299.775L327.674 300.258L327.781 300.941L327.098 301.207L327.407 304.056L328.069 304.517L328.925 304.313L330.4 302.534L330.895 301.238L331.867 301.159L332.026 301.931L331.484 302.942L331.695 303.892L332.564 303.599L332.727 304.793L332 305.289L331.114 306.798L331.63 307.047L331.153 307.615L331.149 309.702L331.48 310.43L330.732 310.705L330.516 311.42L329.708 312.228L329.132 311.904L328.53 312.303L327.493 312.175V313.884L326.422 315.47L325.352 315.981L325.622 317.438L325.992 317.611L326.336 318.811L325.42 319.589L325.128 320.473L323.36 322.615L323.24 323.215L324.358 324.024L322.139 325.9L321.386 328.626L321.718 329.8L322.96 330.4L323.201 331.503L322.44 332.638L322.879 335.031L322.595 334.902L322.492 336.237L322.806 336.851L322.586 338.538L323.399 338.453L323.743 337.777L324.835 337.426L325.223 336.856L326.212 336.887L326.831 336.3L327.588 338.885L327.347 340.71L328.478 341.458L328.818 342.024L328.495 344.54L329.596 345.069L331.037 345.038L331.643 344.081L332.482 343.391L333.174 344.139L332.865 345.849L333.166 347.466L334.155 347.221L334.92 347.773L336.026 349.185L335.647 350.148L335.768 351.257L336.365 353.325L337.213 353.695L337.367 354.127L336.924 355.571L335.621 357.591L334.176 358.188L332.727 359.321L332.396 360.52L333.566 361.564L333.54 362.326L331.66 362.661L331.691 361.68L331.342 360.453L330.022 360.297L329.278 359.593L327.115 360.962L326.766 361.51L327.3 362.621L327.7 362.197L329.132 363.433L328.783 363.963L329.325 364.713L328.555 366.047H327.304L326.495 365.743L325.704 366.136L326.599 367.35L326.375 369.666L325.261 370.679L325.347 371.313L326.371 372.469L326.186 373.813L325.214 375.009L325.291 376.894L325.743 377.693L325.128 378.658L325.055 381.079L324.195 381.401L323.704 383.389L321.245 384.962L319.309 384.408L316.234 384.819L315.602 384.698L314.682 385.623L313.25 386.481L311.912 386.834L310.343 388.591L309.396 388.497L308.154 389.253L308.123 389.642L306.313 389.95L305.986 391.117L304.124 392.405L302.52 391.139L301.608 391.555L300.722 392.387L299.587 391.56L298.894 392.253L298.443 391.586L299.6 390.589L300.365 388.694L299.879 387.192L298.249 385.453L297.991 384.376L298.404 381.597L297.746 380.458L296.968 380.52L294.693 384.037L293.992 384.926L293.562 384.569L293.678 382.468L293.269 381.673L291.794 380.118L291.214 378.729L290.96 375.438L291.717 374.09L291.054 373.246L289.889 373.384L289.068 373.835L287.807 377.005L287.85 377.854L287.416 378.05L287.18 379.087L286.328 378.358L286.732 379.493L286.117 379.676L285.597 379.006L283.829 379.882L283.481 380.583L282.711 381.034L282.578 382.017L281.146 382.312L280.918 383.639L280.544 382.781L279.925 382.683L279.933 383.344L278.114 383.295L277.615 383.054L277.783 381.883L277.452 381.298L278.892 377.032L278.282 374.786L277.52 374.728L275.951 375.996L274.777 375.844L274.489 373.518L273.087 370.295L273.044 369.045L273.366 367.845L274.14 366.783L273.929 365.904L272.605 365.842L271.457 364.227L270.696 364.088L270.081 364.869L269.896 365.721L269.126 365.672L268.442 364.891L266.326 364.99L265.905 364.365L265.862 362.072L266.343 362.402L267.105 361.921L267.074 361.176L267.608 360.774L267.423 358.242L266.782 357.154L266.851 356.307L267.315 356.2L266.227 355.206L265.814 355.656L264.98 353.721L262.671 351.551L260.787 350.74L260.254 349.484L260.671 347.519L260.142 345.648L258.89 345.239L258.069 345.751L257.175 346.985L257.028 348.187L255.648 348.57L255.269 348.958L252.517 349.488L250.444 349.003L248.371 349.987L248.345 351.538L249.094 353.646L248.771 354.555L247.735 355.299L246.595 355.362L245.111 355.928L244.281 357.644L244.019 359.303L243.49 361.158L242.445 360.636L241.142 361.671L241.512 362.759L241.434 364.334L241.89 364.57L242.294 366.377L242.273 367.72L242.806 369.09L244.526 369.55L244.767 370.518L244.277 374.031L244.703 375.233L244.458 375.733L244.729 377.162L243.124 378.332L242.845 379.033L243.623 380.145L243.447 380.579L242.028 381.217L240.536 379.944L238.957 379.542L237.504 380.252L236.867 381.351L236.588 383.152V384.895L235.732 386.07L233.182 385.614L232.008 386.329L229.264 387.192L228.507 387.152L227.419 386.146L226.864 385.981L224.533 387.97L223.836 388.014L222.624 386.647L221.591 386.352L219.897 387.178L218.284 387.728L217.854 388.452L217.962 390.576L217.158 391.882L216.082 392.365L214.848 393.46L214.384 395.097L213.545 395.491L211.563 395.571L210.105 396.555L209.503 397.768L209.24 397.481L209.941 396.081L210.113 394.874L209.743 394.006L209.133 393.599L208.858 392.418L207.739 390.518L206.415 388.926L206.333 388.305L205.249 387.483L204.996 388.193L204.454 387.715L204.032 386.642L204.836 386.548L205.525 385.596L207.649 384.148L208.341 382.576L207.692 381.606L207.589 379.962L207.09 378.202L206.686 375.679L205.357 373.081L204.781 372.531L203.817 372.612L202.407 372.295L202.119 371.21L202.303 370.054L202.063 368.871L202.936 368.157L202.458 366.203L200.82 364.758L200.102 365.177L200.372 363.491L201.349 363.526L202.114 362.282L202.088 361.47L201.491 360.195L200.433 359.949L200.975 358.986L200.407 358.87L200.549 356.926L201.086 355.87L201.946 355.977L203.237 352.906L203.348 351.792L203.082 349.903L203.374 349.208L205.783 345.938L206.922 342.816L207.09 341.637L206.376 341.356L205.039 339.802L203.331 338.672L202.669 338.943L201.624 340.857L200.841 341.267L199.947 341.245L198.166 340.555L196.751 339.584L195.444 339.192L193.982 338.147L193.668 336.82L193.827 335.45L193.53 334.724L192.472 334.244L191.414 335.045L189.733 336.727L188.714 336.349L188.662 335.165L190.339 333.857L190.619 332.304L190.425 329.631L189.918 327.51L189.535 327.261L189.729 325.558L189.466 323.975L190.752 322.904L191.629 321.353L191.75 319.202L192.313 319.006L192.494 317.687L193.393 316.185L193.276 315.652L191.918 315.19L191.844 313.814L192.782 313.742L192.468 312.552L192.614 311.384L193.079 310.958L194.051 310.945L194.433 309.884L194.442 308.778L193.59 308.627L193.771 307.602L192.859 307.571L191.862 305.946L190.971 305.693L190.64 306.319L189.952 305.458L190.245 304.788L188.881 305.747L188.864 305.254L188.292 304.77L189.174 302.951L189.638 298.967L190.43 298.094L190.847 299.038L191.358 299.278L192.584 298.098L192.644 296.914L191.84 295.566L190.442 295.451L190.537 294.821L191.78 294.107L192.391 291.425L192.429 289.52L192.924 288.833L193.5 288.788L191.647 286.533L190.034 286.617L189.47 286.396L190.485 284.681L191.9 284.845L192.141 284.292L193.384 283.654L193.965 285.222L194.906 286.604H196.222L197.087 285.776L197.9 283.565L197.986 280.912L199.375 280.7L200.527 281.359L202.467 281.962L206.879 282.799ZM188.038 305.174L188.116 305.578L187.221 305.813L187.458 304.735L188.038 305.174Z"  stroke="black" /><text fill="#000000" transform="translate(222.38067626953125 229.23129272460938)"></text><text fill="#000000" transform="translate(101.4290771484375 291.0881042480469)"></text><text fill="#000000" transform="translate(237.39617919921875 94.35110473632812)"></text><text fill="#000000" transform="translate(165.266845703125 303.8868103027344)"></text><text fill="#000000" transform="translate(111.8665771484375 200.78509521484375)"></text><text fill="#000000" transform="translate(359.41424560546875 101.4727783203125)"></text><text fill="#000000" transform="translate(138.30657958984375 360.5863037109375)"></text><text fill="#000000" transform="translate(347.677978515625 263.1921081542969)"></text><text fill="#000000" transform="translate(262.29437255859375 277.1039123535156)"></text></svg>